<?xml version="1.0" encoding="utf-8" standalone="no"?>
<!DOCTYPE svg PUBLIC "-//W3C//DTD SVG 1.1//EN"
  "http://www.w3.org/Graphics/SVG/1.1/DTD/svg11.dtd">
<!-- Created with matplotlib (https://matplotlib.org/) -->
<svg height="345.6pt" version="1.1" viewBox="0 0 460.8 345.6" width="460.8pt" xmlns="http://www.w3.org/2000/svg" xmlns:xlink="http://www.w3.org/1999/xlink">
 <defs>
  <style type="text/css">
*{stroke-linecap:butt;stroke-linejoin:round;}
  </style>
 </defs>
 <g id="figure_1">
  <g id="patch_1">
   <path d="M 0 345.6 
L 460.8 345.6 
L 460.8 0 
L 0 0 
z
" style="fill:#ffffff;"/>
  </g>
  <g id="axes_1">
   <g id="patch_2">
    <path d="M 32.708 317.572 
L 406.452 317.572 
L 406.452 34.368 
L 32.708 34.368 
z
" style="fill:#ffffff;"/>
   </g>
   <g id="matplotlib.axis_1">
    <g id="xtick_1">
     <g id="line2d_1">
      <defs>
       <path d="M 0 0 
L 0 4.8 
" id="mc731fe1176" style="stroke:#000000;"/>
      </defs>
      <g>
       <use style="stroke:#000000;" x="49.410605" xlink:href="#mc731fe1176" y="317.572"/>
      </g>
     </g>
     <g id="text_1">
      <!-- 0 -->
      <defs>
       <path d="M 31.78125 66.40625 
Q 24.171875 66.40625 20.328125 58.90625 
Q 16.5 51.421875 16.5 36.375 
Q 16.5 21.390625 20.328125 13.890625 
Q 24.171875 6.390625 31.78125 6.390625 
Q 39.453125 6.390625 43.28125 13.890625 
Q 47.125 21.390625 47.125 36.375 
Q 47.125 51.421875 43.28125 58.90625 
Q 39.453125 66.40625 31.78125 66.40625 
z
M 31.78125 74.21875 
Q 44.046875 74.21875 50.515625 64.515625 
Q 56.984375 54.828125 56.984375 36.375 
Q 56.984375 17.96875 50.515625 8.265625 
Q 44.046875 -1.421875 31.78125 -1.421875 
Q 19.53125 -1.421875 13.0625 8.265625 
Q 6.59375 17.96875 6.59375 36.375 
Q 6.59375 54.828125 13.0625 64.515625 
Q 19.53125 74.21875 31.78125 74.21875 
z
" id="DejaVuSans-48"/>
      </defs>
      <g transform="translate(46.611105 332.558625)scale(0.088 -0.088)">
       <use xlink:href="#DejaVuSans-48"/>
      </g>
     </g>
    </g>
    <g id="xtick_2">
     <g id="line2d_2">
      <g>
       <use style="stroke:#000000;" x="106.562375" xlink:href="#mc731fe1176" y="317.572"/>
      </g>
     </g>
     <g id="text_2">
      <!-- 200 -->
      <defs>
       <path d="M 19.1875 8.296875 
L 53.609375 8.296875 
L 53.609375 0 
L 7.328125 0 
L 7.328125 8.296875 
Q 12.9375 14.109375 22.625 23.890625 
Q 32.328125 33.6875 34.8125 36.53125 
Q 39.546875 41.84375 41.421875 45.53125 
Q 43.3125 49.21875 43.3125 52.78125 
Q 43.3125 58.59375 39.234375 62.25 
Q 35.15625 65.921875 28.609375 65.921875 
Q 23.96875 65.921875 18.8125 64.3125 
Q 13.671875 62.703125 7.8125 59.421875 
L 7.8125 69.390625 
Q 13.765625 71.78125 18.9375 73 
Q 24.125 74.21875 28.421875 74.21875 
Q 39.75 74.21875 46.484375 68.546875 
Q 53.21875 62.890625 53.21875 53.421875 
Q 53.21875 48.921875 51.53125 44.890625 
Q 49.859375 40.875 45.40625 35.40625 
Q 44.1875 33.984375 37.640625 27.21875 
Q 31.109375 20.453125 19.1875 8.296875 
z
" id="DejaVuSans-50"/>
      </defs>
      <g transform="translate(98.163875 332.558625)scale(0.088 -0.088)">
       <use xlink:href="#DejaVuSans-50"/>
       <use x="63.623047" xlink:href="#DejaVuSans-48"/>
       <use x="127.246094" xlink:href="#DejaVuSans-48"/>
      </g>
     </g>
    </g>
    <g id="xtick_3">
     <g id="line2d_3">
      <g>
       <use style="stroke:#000000;" x="163.714145" xlink:href="#mc731fe1176" y="317.572"/>
      </g>
     </g>
     <g id="text_3">
      <!-- 400 -->
      <defs>
       <path d="M 37.796875 64.3125 
L 12.890625 25.390625 
L 37.796875 25.390625 
z
M 35.203125 72.90625 
L 47.609375 72.90625 
L 47.609375 25.390625 
L 58.015625 25.390625 
L 58.015625 17.1875 
L 47.609375 17.1875 
L 47.609375 0 
L 37.796875 0 
L 37.796875 17.1875 
L 4.890625 17.1875 
L 4.890625 26.703125 
z
" id="DejaVuSans-52"/>
      </defs>
      <g transform="translate(155.315645 332.558625)scale(0.088 -0.088)">
       <use xlink:href="#DejaVuSans-52"/>
       <use x="63.623047" xlink:href="#DejaVuSans-48"/>
       <use x="127.246094" xlink:href="#DejaVuSans-48"/>
      </g>
     </g>
    </g>
    <g id="xtick_4">
     <g id="line2d_4">
      <g>
       <use style="stroke:#000000;" x="220.865915" xlink:href="#mc731fe1176" y="317.572"/>
      </g>
     </g>
     <g id="text_4">
      <!-- 600 -->
      <defs>
       <path d="M 33.015625 40.375 
Q 26.375 40.375 22.484375 35.828125 
Q 18.609375 31.296875 18.609375 23.390625 
Q 18.609375 15.53125 22.484375 10.953125 
Q 26.375 6.390625 33.015625 6.390625 
Q 39.65625 6.390625 43.53125 10.953125 
Q 47.40625 15.53125 47.40625 23.390625 
Q 47.40625 31.296875 43.53125 35.828125 
Q 39.65625 40.375 33.015625 40.375 
z
M 52.59375 71.296875 
L 52.59375 62.3125 
Q 48.875 64.0625 45.09375 64.984375 
Q 41.3125 65.921875 37.59375 65.921875 
Q 27.828125 65.921875 22.671875 59.328125 
Q 17.53125 52.734375 16.796875 39.40625 
Q 19.671875 43.65625 24.015625 45.921875 
Q 28.375 48.1875 33.59375 48.1875 
Q 44.578125 48.1875 50.953125 41.515625 
Q 57.328125 34.859375 57.328125 23.390625 
Q 57.328125 12.15625 50.6875 5.359375 
Q 44.046875 -1.421875 33.015625 -1.421875 
Q 20.359375 -1.421875 13.671875 8.265625 
Q 6.984375 17.96875 6.984375 36.375 
Q 6.984375 53.65625 15.1875 63.9375 
Q 23.390625 74.21875 37.203125 74.21875 
Q 40.921875 74.21875 44.703125 73.484375 
Q 48.484375 72.75 52.59375 71.296875 
z
" id="DejaVuSans-54"/>
      </defs>
      <g transform="translate(212.467415 332.558625)scale(0.088 -0.088)">
       <use xlink:href="#DejaVuSans-54"/>
       <use x="63.623047" xlink:href="#DejaVuSans-48"/>
       <use x="127.246094" xlink:href="#DejaVuSans-48"/>
      </g>
     </g>
    </g>
    <g id="xtick_5">
     <g id="line2d_5">
      <g>
       <use style="stroke:#000000;" x="278.017685" xlink:href="#mc731fe1176" y="317.572"/>
      </g>
     </g>
     <g id="text_5">
      <!-- 800 -->
      <defs>
       <path d="M 31.78125 34.625 
Q 24.75 34.625 20.71875 30.859375 
Q 16.703125 27.09375 16.703125 20.515625 
Q 16.703125 13.921875 20.71875 10.15625 
Q 24.75 6.390625 31.78125 6.390625 
Q 38.8125 6.390625 42.859375 10.171875 
Q 46.921875 13.96875 46.921875 20.515625 
Q 46.921875 27.09375 42.890625 30.859375 
Q 38.875 34.625 31.78125 34.625 
z
M 21.921875 38.8125 
Q 15.578125 40.375 12.03125 44.71875 
Q 8.5 49.078125 8.5 55.328125 
Q 8.5 64.0625 14.71875 69.140625 
Q 20.953125 74.21875 31.78125 74.21875 
Q 42.671875 74.21875 48.875 69.140625 
Q 55.078125 64.0625 55.078125 55.328125 
Q 55.078125 49.078125 51.53125 44.71875 
Q 48 40.375 41.703125 38.8125 
Q 48.828125 37.15625 52.796875 32.3125 
Q 56.78125 27.484375 56.78125 20.515625 
Q 56.78125 9.90625 50.3125 4.234375 
Q 43.84375 -1.421875 31.78125 -1.421875 
Q 19.734375 -1.421875 13.25 4.234375 
Q 6.78125 9.90625 6.78125 20.515625 
Q 6.78125 27.484375 10.78125 32.3125 
Q 14.796875 37.15625 21.921875 38.8125 
z
M 18.3125 54.390625 
Q 18.3125 48.734375 21.84375 45.5625 
Q 25.390625 42.390625 31.78125 42.390625 
Q 38.140625 42.390625 41.71875 45.5625 
Q 45.3125 48.734375 45.3125 54.390625 
Q 45.3125 60.0625 41.71875 63.234375 
Q 38.140625 66.40625 31.78125 66.40625 
Q 25.390625 66.40625 21.84375 63.234375 
Q 18.3125 60.0625 18.3125 54.390625 
z
" id="DejaVuSans-56"/>
      </defs>
      <g transform="translate(269.619185 332.558625)scale(0.088 -0.088)">
       <use xlink:href="#DejaVuSans-56"/>
       <use x="63.623047" xlink:href="#DejaVuSans-48"/>
       <use x="127.246094" xlink:href="#DejaVuSans-48"/>
      </g>
     </g>
    </g>
    <g id="xtick_6">
     <g id="line2d_6">
      <g>
       <use style="stroke:#000000;" x="335.169455" xlink:href="#mc731fe1176" y="317.572"/>
      </g>
     </g>
     <g id="text_6">
      <!-- 1000 -->
      <defs>
       <path d="M 12.40625 8.296875 
L 28.515625 8.296875 
L 28.515625 63.921875 
L 10.984375 60.40625 
L 10.984375 69.390625 
L 28.421875 72.90625 
L 38.28125 72.90625 
L 38.28125 8.296875 
L 54.390625 8.296875 
L 54.390625 0 
L 12.40625 0 
z
" id="DejaVuSans-49"/>
      </defs>
      <g transform="translate(323.971455 332.558625)scale(0.088 -0.088)">
       <use xlink:href="#DejaVuSans-49"/>
       <use x="63.623047" xlink:href="#DejaVuSans-48"/>
       <use x="127.246094" xlink:href="#DejaVuSans-48"/>
       <use x="190.869141" xlink:href="#DejaVuSans-48"/>
      </g>
     </g>
    </g>
    <g id="xtick_7">
     <g id="line2d_7">
      <g>
       <use style="stroke:#000000;" x="392.321225" xlink:href="#mc731fe1176" y="317.572"/>
      </g>
     </g>
     <g id="text_7">
      <!-- 1200 -->
      <g transform="translate(381.123225 332.558625)scale(0.088 -0.088)">
       <use xlink:href="#DejaVuSans-49"/>
       <use x="63.623047" xlink:href="#DejaVuSans-50"/>
       <use x="127.246094" xlink:href="#DejaVuSans-48"/>
       <use x="190.869141" xlink:href="#DejaVuSans-48"/>
      </g>
     </g>
    </g>
   </g>
   <g id="matplotlib.axis_2">
    <g id="ytick_1">
     <g id="line2d_8">
      <defs>
       <path d="M 0 0 
L -4.8 0 
" id="m796e46116f" style="stroke:#000000;"/>
      </defs>
      <g>
       <use style="stroke:#000000;" x="32.708" xlink:href="#m796e46116f" y="317.572"/>
      </g>
     </g>
     <g id="text_8">
      <!-- 0.0 -->
      <defs>
       <path d="M 10.6875 12.40625 
L 21 12.40625 
L 21 0 
L 10.6875 0 
z
" id="DejaVuSans-46"/>
      </defs>
      <g transform="translate(10.41325 320.915312)scale(0.088 -0.088)">
       <use xlink:href="#DejaVuSans-48"/>
       <use x="63.623047" xlink:href="#DejaVuSans-46"/>
       <use x="95.410156" xlink:href="#DejaVuSans-48"/>
      </g>
     </g>
    </g>
    <g id="ytick_2">
     <g id="line2d_9">
      <g>
       <use style="stroke:#000000;" x="32.708" xlink:href="#m796e46116f" y="260.9312"/>
      </g>
     </g>
     <g id="text_9">
      <!-- 0.2 -->
      <g transform="translate(10.41325 264.274512)scale(0.088 -0.088)">
       <use xlink:href="#DejaVuSans-48"/>
       <use x="63.623047" xlink:href="#DejaVuSans-46"/>
       <use x="95.410156" xlink:href="#DejaVuSans-50"/>
      </g>
     </g>
    </g>
    <g id="ytick_3">
     <g id="line2d_10">
      <g>
       <use style="stroke:#000000;" x="32.708" xlink:href="#m796e46116f" y="204.2904"/>
      </g>
     </g>
     <g id="text_10">
      <!-- 0.4 -->
      <g transform="translate(10.41325 207.633712)scale(0.088 -0.088)">
       <use xlink:href="#DejaVuSans-48"/>
       <use x="63.623047" xlink:href="#DejaVuSans-46"/>
       <use x="95.410156" xlink:href="#DejaVuSans-52"/>
      </g>
     </g>
    </g>
    <g id="ytick_4">
     <g id="line2d_11">
      <g>
       <use style="stroke:#000000;" x="32.708" xlink:href="#m796e46116f" y="147.6496"/>
      </g>
     </g>
     <g id="text_11">
      <!-- 0.6 -->
      <g transform="translate(10.41325 150.992912)scale(0.088 -0.088)">
       <use xlink:href="#DejaVuSans-48"/>
       <use x="63.623047" xlink:href="#DejaVuSans-46"/>
       <use x="95.410156" xlink:href="#DejaVuSans-54"/>
      </g>
     </g>
    </g>
    <g id="ytick_5">
     <g id="line2d_12">
      <g>
       <use style="stroke:#000000;" x="32.708" xlink:href="#m796e46116f" y="91.0088"/>
      </g>
     </g>
     <g id="text_12">
      <!-- 0.8 -->
      <g transform="translate(10.41325 94.352112)scale(0.088 -0.088)">
       <use xlink:href="#DejaVuSans-48"/>
       <use x="63.623047" xlink:href="#DejaVuSans-46"/>
       <use x="95.410156" xlink:href="#DejaVuSans-56"/>
      </g>
     </g>
    </g>
    <g id="ytick_6">
     <g id="line2d_13">
      <g>
       <use style="stroke:#000000;" x="32.708" xlink:href="#m796e46116f" y="34.368"/>
      </g>
     </g>
     <g id="text_13">
      <!-- 1.0 -->
      <g transform="translate(10.41325 37.711312)scale(0.088 -0.088)">
       <use xlink:href="#DejaVuSans-49"/>
       <use x="63.623047" xlink:href="#DejaVuSans-46"/>
       <use x="95.410156" xlink:href="#DejaVuSans-48"/>
      </g>
     </g>
    </g>
   </g>
   <g id="patch_3">
    <path d="M 32.708 317.572 
L 32.708 34.368 
" style="fill:none;stroke:#000000;stroke-linecap:square;stroke-linejoin:miter;"/>
   </g>
   <g id="patch_4">
    <path d="M 406.452 317.572 
L 406.452 34.368 
" style="fill:none;stroke:#000000;stroke-linecap:square;stroke-linejoin:miter;"/>
   </g>
   <g id="patch_5">
    <path d="M 32.708 317.572 
L 406.452 317.572 
" style="fill:none;stroke:#000000;stroke-linecap:square;stroke-linejoin:miter;"/>
   </g>
   <g id="patch_6">
    <path d="M 32.708 34.368 
L 406.452 34.368 
" style="fill:none;stroke:#000000;stroke-linecap:square;stroke-linejoin:miter;"/>
   </g>
   <g id="text_14">
    <!-- DHWcalc (4 cats), ∆t = 60, No. Drawoffs = 13079, Peak = 1190.0 L/h  -->
    <defs>
     <path d="M 19.671875 64.796875 
L 19.671875 8.109375 
L 31.59375 8.109375 
Q 46.6875 8.109375 53.6875 14.9375 
Q 60.6875 21.78125 60.6875 36.53125 
Q 60.6875 51.171875 53.6875 57.984375 
Q 46.6875 64.796875 31.59375 64.796875 
z
M 9.8125 72.90625 
L 30.078125 72.90625 
Q 51.265625 72.90625 61.171875 64.09375 
Q 71.09375 55.28125 71.09375 36.53125 
Q 71.09375 17.671875 61.125 8.828125 
Q 51.171875 0 30.078125 0 
L 9.8125 0 
z
" id="DejaVuSans-68"/>
     <path d="M 9.8125 72.90625 
L 19.671875 72.90625 
L 19.671875 43.015625 
L 55.515625 43.015625 
L 55.515625 72.90625 
L 65.375 72.90625 
L 65.375 0 
L 55.515625 0 
L 55.515625 34.71875 
L 19.671875 34.71875 
L 19.671875 0 
L 9.8125 0 
z
" id="DejaVuSans-72"/>
     <path d="M 3.328125 72.90625 
L 13.28125 72.90625 
L 28.609375 11.28125 
L 43.890625 72.90625 
L 54.984375 72.90625 
L 70.3125 11.28125 
L 85.59375 72.90625 
L 95.609375 72.90625 
L 77.296875 0 
L 64.890625 0 
L 49.515625 63.28125 
L 33.984375 0 
L 21.578125 0 
z
" id="DejaVuSans-87"/>
     <path d="M 48.78125 52.59375 
L 48.78125 44.1875 
Q 44.96875 46.296875 41.140625 47.34375 
Q 37.3125 48.390625 33.40625 48.390625 
Q 24.65625 48.390625 19.8125 42.84375 
Q 14.984375 37.3125 14.984375 27.296875 
Q 14.984375 17.28125 19.8125 11.734375 
Q 24.65625 6.203125 33.40625 6.203125 
Q 37.3125 6.203125 41.140625 7.25 
Q 44.96875 8.296875 48.78125 10.40625 
L 48.78125 2.09375 
Q 45.015625 0.34375 40.984375 -0.53125 
Q 36.96875 -1.421875 32.421875 -1.421875 
Q 20.0625 -1.421875 12.78125 6.34375 
Q 5.515625 14.109375 5.515625 27.296875 
Q 5.515625 40.671875 12.859375 48.328125 
Q 20.21875 56 33.015625 56 
Q 37.15625 56 41.109375 55.140625 
Q 45.0625 54.296875 48.78125 52.59375 
z
" id="DejaVuSans-99"/>
     <path d="M 34.28125 27.484375 
Q 23.390625 27.484375 19.1875 25 
Q 14.984375 22.515625 14.984375 16.5 
Q 14.984375 11.71875 18.140625 8.90625 
Q 21.296875 6.109375 26.703125 6.109375 
Q 34.1875 6.109375 38.703125 11.40625 
Q 43.21875 16.703125 43.21875 25.484375 
L 43.21875 27.484375 
z
M 52.203125 31.203125 
L 52.203125 0 
L 43.21875 0 
L 43.21875 8.296875 
Q 40.140625 3.328125 35.546875 0.953125 
Q 30.953125 -1.421875 24.3125 -1.421875 
Q 15.921875 -1.421875 10.953125 3.296875 
Q 6 8.015625 6 15.921875 
Q 6 25.140625 12.171875 29.828125 
Q 18.359375 34.515625 30.609375 34.515625 
L 43.21875 34.515625 
L 43.21875 35.40625 
Q 43.21875 41.609375 39.140625 45 
Q 35.0625 48.390625 27.6875 48.390625 
Q 23 48.390625 18.546875 47.265625 
Q 14.109375 46.140625 10.015625 43.890625 
L 10.015625 52.203125 
Q 14.9375 54.109375 19.578125 55.046875 
Q 24.21875 56 28.609375 56 
Q 40.484375 56 46.34375 49.84375 
Q 52.203125 43.703125 52.203125 31.203125 
z
" id="DejaVuSans-97"/>
     <path d="M 9.421875 75.984375 
L 18.40625 75.984375 
L 18.40625 0 
L 9.421875 0 
z
" id="DejaVuSans-108"/>
     <path id="DejaVuSans-32"/>
     <path d="M 31 75.875 
Q 24.46875 64.65625 21.28125 53.65625 
Q 18.109375 42.671875 18.109375 31.390625 
Q 18.109375 20.125 21.3125 9.0625 
Q 24.515625 -2 31 -13.1875 
L 23.1875 -13.1875 
Q 15.875 -1.703125 12.234375 9.375 
Q 8.59375 20.453125 8.59375 31.390625 
Q 8.59375 42.28125 12.203125 53.3125 
Q 15.828125 64.359375 23.1875 75.875 
z
" id="DejaVuSans-40"/>
     <path d="M 18.3125 70.21875 
L 18.3125 54.6875 
L 36.8125 54.6875 
L 36.8125 47.703125 
L 18.3125 47.703125 
L 18.3125 18.015625 
Q 18.3125 11.328125 20.140625 9.421875 
Q 21.96875 7.515625 27.59375 7.515625 
L 36.8125 7.515625 
L 36.8125 0 
L 27.59375 0 
Q 17.1875 0 13.234375 3.875 
Q 9.28125 7.765625 9.28125 18.015625 
L 9.28125 47.703125 
L 2.6875 47.703125 
L 2.6875 54.6875 
L 9.28125 54.6875 
L 9.28125 70.21875 
z
" id="DejaVuSans-116"/>
     <path d="M 44.28125 53.078125 
L 44.28125 44.578125 
Q 40.484375 46.53125 36.375 47.5 
Q 32.28125 48.484375 27.875 48.484375 
Q 21.1875 48.484375 17.84375 46.4375 
Q 14.5 44.390625 14.5 40.28125 
Q 14.5 37.15625 16.890625 35.375 
Q 19.28125 33.59375 26.515625 31.984375 
L 29.59375 31.296875 
Q 39.15625 29.25 43.1875 25.515625 
Q 47.21875 21.78125 47.21875 15.09375 
Q 47.21875 7.46875 41.1875 3.015625 
Q 35.15625 -1.421875 24.609375 -1.421875 
Q 20.21875 -1.421875 15.453125 -0.5625 
Q 10.6875 0.296875 5.421875 2 
L 5.421875 11.28125 
Q 10.40625 8.6875 15.234375 7.390625 
Q 20.0625 6.109375 24.8125 6.109375 
Q 31.15625 6.109375 34.5625 8.28125 
Q 37.984375 10.453125 37.984375 14.40625 
Q 37.984375 18.0625 35.515625 20.015625 
Q 33.0625 21.96875 24.703125 23.78125 
L 21.578125 24.515625 
Q 13.234375 26.265625 9.515625 29.90625 
Q 5.8125 33.546875 5.8125 39.890625 
Q 5.8125 47.609375 11.28125 51.796875 
Q 16.75 56 26.8125 56 
Q 31.78125 56 36.171875 55.265625 
Q 40.578125 54.546875 44.28125 53.078125 
z
" id="DejaVuSans-115"/>
     <path d="M 8.015625 75.875 
L 15.828125 75.875 
Q 23.140625 64.359375 26.78125 53.3125 
Q 30.421875 42.28125 30.421875 31.390625 
Q 30.421875 20.453125 26.78125 9.375 
Q 23.140625 -1.703125 15.828125 -13.1875 
L 8.015625 -13.1875 
Q 14.5 -2 17.703125 9.0625 
Q 20.90625 20.125 20.90625 31.390625 
Q 20.90625 42.671875 17.703125 53.65625 
Q 14.5 64.65625 8.015625 75.875 
z
" id="DejaVuSans-41"/>
     <path d="M 11.71875 12.40625 
L 22.015625 12.40625 
L 22.015625 4 
L 14.015625 -11.625 
L 7.71875 -11.625 
L 11.71875 4 
z
" id="DejaVuSans-44"/>
     <path d="M 33.40625 61.625 
L 12.984375 8.6875 
L 53.8125 8.6875 
z
M 27.984375 71.921875 
L 38.921875 71.921875 
L 67.1875 0 
L -0.296875 0 
z
" id="DejaVuSans-8710"/>
     <path d="M 10.59375 45.40625 
L 73.1875 45.40625 
L 73.1875 37.203125 
L 10.59375 37.203125 
z
M 10.59375 25.484375 
L 73.1875 25.484375 
L 73.1875 17.1875 
L 10.59375 17.1875 
z
" id="DejaVuSans-61"/>
     <path d="M 9.8125 72.90625 
L 23.09375 72.90625 
L 55.421875 11.921875 
L 55.421875 72.90625 
L 64.984375 72.90625 
L 64.984375 0 
L 51.703125 0 
L 19.390625 60.984375 
L 19.390625 0 
L 9.8125 0 
z
" id="DejaVuSans-78"/>
     <path d="M 30.609375 48.390625 
Q 23.390625 48.390625 19.1875 42.75 
Q 14.984375 37.109375 14.984375 27.296875 
Q 14.984375 17.484375 19.15625 11.84375 
Q 23.34375 6.203125 30.609375 6.203125 
Q 37.796875 6.203125 41.984375 11.859375 
Q 46.1875 17.53125 46.1875 27.296875 
Q 46.1875 37.015625 41.984375 42.703125 
Q 37.796875 48.390625 30.609375 48.390625 
z
M 30.609375 56 
Q 42.328125 56 49.015625 48.375 
Q 55.71875 40.765625 55.71875 27.296875 
Q 55.71875 13.875 49.015625 6.21875 
Q 42.328125 -1.421875 30.609375 -1.421875 
Q 18.84375 -1.421875 12.171875 6.21875 
Q 5.515625 13.875 5.515625 27.296875 
Q 5.515625 40.765625 12.171875 48.375 
Q 18.84375 56 30.609375 56 
z
" id="DejaVuSans-111"/>
     <path d="M 41.109375 46.296875 
Q 39.59375 47.171875 37.8125 47.578125 
Q 36.03125 48 33.890625 48 
Q 26.265625 48 22.1875 43.046875 
Q 18.109375 38.09375 18.109375 28.8125 
L 18.109375 0 
L 9.078125 0 
L 9.078125 54.6875 
L 18.109375 54.6875 
L 18.109375 46.1875 
Q 20.953125 51.171875 25.484375 53.578125 
Q 30.03125 56 36.53125 56 
Q 37.453125 56 38.578125 55.875 
Q 39.703125 55.765625 41.0625 55.515625 
z
" id="DejaVuSans-114"/>
     <path d="M 4.203125 54.6875 
L 13.1875 54.6875 
L 24.421875 12.015625 
L 35.59375 54.6875 
L 46.1875 54.6875 
L 57.421875 12.015625 
L 68.609375 54.6875 
L 77.59375 54.6875 
L 63.28125 0 
L 52.6875 0 
L 40.921875 44.828125 
L 29.109375 0 
L 18.5 0 
z
" id="DejaVuSans-119"/>
     <path d="M 37.109375 75.984375 
L 37.109375 68.5 
L 28.515625 68.5 
Q 23.6875 68.5 21.796875 66.546875 
Q 19.921875 64.59375 19.921875 59.515625 
L 19.921875 54.6875 
L 34.71875 54.6875 
L 34.71875 47.703125 
L 19.921875 47.703125 
L 19.921875 0 
L 10.890625 0 
L 10.890625 47.703125 
L 2.296875 47.703125 
L 2.296875 54.6875 
L 10.890625 54.6875 
L 10.890625 58.5 
Q 10.890625 67.625 15.140625 71.796875 
Q 19.390625 75.984375 28.609375 75.984375 
z
" id="DejaVuSans-102"/>
     <path d="M 40.578125 39.3125 
Q 47.65625 37.796875 51.625 33 
Q 55.609375 28.21875 55.609375 21.1875 
Q 55.609375 10.40625 48.1875 4.484375 
Q 40.765625 -1.421875 27.09375 -1.421875 
Q 22.515625 -1.421875 17.65625 -0.515625 
Q 12.796875 0.390625 7.625 2.203125 
L 7.625 11.71875 
Q 11.71875 9.328125 16.59375 8.109375 
Q 21.484375 6.890625 26.8125 6.890625 
Q 36.078125 6.890625 40.9375 10.546875 
Q 45.796875 14.203125 45.796875 21.1875 
Q 45.796875 27.640625 41.28125 31.265625 
Q 36.765625 34.90625 28.71875 34.90625 
L 20.21875 34.90625 
L 20.21875 43.015625 
L 29.109375 43.015625 
Q 36.375 43.015625 40.234375 45.921875 
Q 44.09375 48.828125 44.09375 54.296875 
Q 44.09375 59.90625 40.109375 62.90625 
Q 36.140625 65.921875 28.71875 65.921875 
Q 24.65625 65.921875 20.015625 65.03125 
Q 15.375 64.15625 9.8125 62.3125 
L 9.8125 71.09375 
Q 15.4375 72.65625 20.34375 73.4375 
Q 25.25 74.21875 29.59375 74.21875 
Q 40.828125 74.21875 47.359375 69.109375 
Q 53.90625 64.015625 53.90625 55.328125 
Q 53.90625 49.265625 50.4375 45.09375 
Q 46.96875 40.921875 40.578125 39.3125 
z
" id="DejaVuSans-51"/>
     <path d="M 8.203125 72.90625 
L 55.078125 72.90625 
L 55.078125 68.703125 
L 28.609375 0 
L 18.3125 0 
L 43.21875 64.59375 
L 8.203125 64.59375 
z
" id="DejaVuSans-55"/>
     <path d="M 10.984375 1.515625 
L 10.984375 10.5 
Q 14.703125 8.734375 18.5 7.8125 
Q 22.3125 6.890625 25.984375 6.890625 
Q 35.75 6.890625 40.890625 13.453125 
Q 46.046875 20.015625 46.78125 33.40625 
Q 43.953125 29.203125 39.59375 26.953125 
Q 35.25 24.703125 29.984375 24.703125 
Q 19.046875 24.703125 12.671875 31.3125 
Q 6.296875 37.9375 6.296875 49.421875 
Q 6.296875 60.640625 12.9375 67.421875 
Q 19.578125 74.21875 30.609375 74.21875 
Q 43.265625 74.21875 49.921875 64.515625 
Q 56.59375 54.828125 56.59375 36.375 
Q 56.59375 19.140625 48.40625 8.859375 
Q 40.234375 -1.421875 26.421875 -1.421875 
Q 22.703125 -1.421875 18.890625 -0.6875 
Q 15.09375 0.046875 10.984375 1.515625 
z
M 30.609375 32.421875 
Q 37.25 32.421875 41.125 36.953125 
Q 45.015625 41.5 45.015625 49.421875 
Q 45.015625 57.28125 41.125 61.84375 
Q 37.25 66.40625 30.609375 66.40625 
Q 23.96875 66.40625 20.09375 61.84375 
Q 16.21875 57.28125 16.21875 49.421875 
Q 16.21875 41.5 20.09375 36.953125 
Q 23.96875 32.421875 30.609375 32.421875 
z
" id="DejaVuSans-57"/>
     <path d="M 19.671875 64.796875 
L 19.671875 37.40625 
L 32.078125 37.40625 
Q 38.96875 37.40625 42.71875 40.96875 
Q 46.484375 44.53125 46.484375 51.125 
Q 46.484375 57.671875 42.71875 61.234375 
Q 38.96875 64.796875 32.078125 64.796875 
z
M 9.8125 72.90625 
L 32.078125 72.90625 
Q 44.34375 72.90625 50.609375 67.359375 
Q 56.890625 61.8125 56.890625 51.125 
Q 56.890625 40.328125 50.609375 34.8125 
Q 44.34375 29.296875 32.078125 29.296875 
L 19.671875 29.296875 
L 19.671875 0 
L 9.8125 0 
z
" id="DejaVuSans-80"/>
     <path d="M 56.203125 29.59375 
L 56.203125 25.203125 
L 14.890625 25.203125 
Q 15.484375 15.921875 20.484375 11.0625 
Q 25.484375 6.203125 34.421875 6.203125 
Q 39.59375 6.203125 44.453125 7.46875 
Q 49.3125 8.734375 54.109375 11.28125 
L 54.109375 2.78125 
Q 49.265625 0.734375 44.1875 -0.34375 
Q 39.109375 -1.421875 33.890625 -1.421875 
Q 20.796875 -1.421875 13.15625 6.1875 
Q 5.515625 13.8125 5.515625 26.8125 
Q 5.515625 40.234375 12.765625 48.109375 
Q 20.015625 56 32.328125 56 
Q 43.359375 56 49.78125 48.890625 
Q 56.203125 41.796875 56.203125 29.59375 
z
M 47.21875 32.234375 
Q 47.125 39.59375 43.09375 43.984375 
Q 39.0625 48.390625 32.421875 48.390625 
Q 24.90625 48.390625 20.390625 44.140625 
Q 15.875 39.890625 15.1875 32.171875 
z
" id="DejaVuSans-101"/>
     <path d="M 9.078125 75.984375 
L 18.109375 75.984375 
L 18.109375 31.109375 
L 44.921875 54.6875 
L 56.390625 54.6875 
L 27.390625 29.109375 
L 57.625 0 
L 45.90625 0 
L 18.109375 26.703125 
L 18.109375 0 
L 9.078125 0 
z
" id="DejaVuSans-107"/>
     <path d="M 9.8125 72.90625 
L 19.671875 72.90625 
L 19.671875 8.296875 
L 55.171875 8.296875 
L 55.171875 0 
L 9.8125 0 
z
" id="DejaVuSans-76"/>
     <path d="M 25.390625 72.90625 
L 33.6875 72.90625 
L 8.296875 -9.28125 
L 0 -9.28125 
z
" id="DejaVuSans-47"/>
     <path d="M 54.890625 33.015625 
L 54.890625 0 
L 45.90625 0 
L 45.90625 32.71875 
Q 45.90625 40.484375 42.875 44.328125 
Q 39.84375 48.1875 33.796875 48.1875 
Q 26.515625 48.1875 22.3125 43.546875 
Q 18.109375 38.921875 18.109375 30.90625 
L 18.109375 0 
L 9.078125 0 
L 9.078125 75.984375 
L 18.109375 75.984375 
L 18.109375 46.1875 
Q 21.34375 51.125 25.703125 53.5625 
Q 30.078125 56 35.796875 56 
Q 45.21875 56 50.046875 50.171875 
Q 54.890625 44.34375 54.890625 33.015625 
z
" id="DejaVuSans-104"/>
    </defs>
    <g transform="translate(51.895 17.6181)scale(0.096 -0.096)">
     <use xlink:href="#DejaVuSans-68"/>
     <use x="77.001953" xlink:href="#DejaVuSans-72"/>
     <use x="152.197266" xlink:href="#DejaVuSans-87"/>
     <use x="251.074219" xlink:href="#DejaVuSans-99"/>
     <use x="306.054688" xlink:href="#DejaVuSans-97"/>
     <use x="367.333984" xlink:href="#DejaVuSans-108"/>
     <use x="395.117188" xlink:href="#DejaVuSans-99"/>
     <use x="450.097656" xlink:href="#DejaVuSans-32"/>
     <use x="481.884766" xlink:href="#DejaVuSans-40"/>
     <use x="520.898438" xlink:href="#DejaVuSans-52"/>
     <use x="584.521484" xlink:href="#DejaVuSans-32"/>
     <use x="616.308594" xlink:href="#DejaVuSans-99"/>
     <use x="671.289062" xlink:href="#DejaVuSans-97"/>
     <use x="732.568359" xlink:href="#DejaVuSans-116"/>
     <use x="771.777344" xlink:href="#DejaVuSans-115"/>
     <use x="823.876953" xlink:href="#DejaVuSans-41"/>
     <use x="862.890625" xlink:href="#DejaVuSans-44"/>
     <use x="894.677734" xlink:href="#DejaVuSans-32"/>
     <use x="926.464844" xlink:href="#DejaVuSans-8710"/>
     <use x="993.359375" xlink:href="#DejaVuSans-116"/>
     <use x="1032.568359" xlink:href="#DejaVuSans-32"/>
     <use x="1064.355469" xlink:href="#DejaVuSans-61"/>
     <use x="1148.144531" xlink:href="#DejaVuSans-32"/>
     <use x="1179.931641" xlink:href="#DejaVuSans-54"/>
     <use x="1243.554688" xlink:href="#DejaVuSans-48"/>
     <use x="1307.177734" xlink:href="#DejaVuSans-44"/>
     <use x="1338.964844" xlink:href="#DejaVuSans-32"/>
     <use x="1370.751953" xlink:href="#DejaVuSans-78"/>
     <use x="1445.556641" xlink:href="#DejaVuSans-111"/>
     <use x="1504.988281" xlink:href="#DejaVuSans-46"/>
     <use x="1536.775391" xlink:href="#DejaVuSans-32"/>
     <use x="1568.5625" xlink:href="#DejaVuSans-68"/>
     <use x="1645.564453" xlink:href="#DejaVuSans-114"/>
     <use x="1686.677734" xlink:href="#DejaVuSans-97"/>
     <use x="1747.957031" xlink:href="#DejaVuSans-119"/>
     <use x="1829.744141" xlink:href="#DejaVuSans-111"/>
     <use x="1890.925781" xlink:href="#DejaVuSans-102"/>
     <use x="1926.130859" xlink:href="#DejaVuSans-102"/>
     <use x="1961.335938" xlink:href="#DejaVuSans-115"/>
     <use x="2013.435547" xlink:href="#DejaVuSans-32"/>
     <use x="2045.222656" xlink:href="#DejaVuSans-61"/>
     <use x="2129.011719" xlink:href="#DejaVuSans-32"/>
     <use x="2160.798828" xlink:href="#DejaVuSans-49"/>
     <use x="2224.421875" xlink:href="#DejaVuSans-51"/>
     <use x="2288.044922" xlink:href="#DejaVuSans-48"/>
     <use x="2351.667969" xlink:href="#DejaVuSans-55"/>
     <use x="2415.291016" xlink:href="#DejaVuSans-57"/>
     <use x="2478.914062" xlink:href="#DejaVuSans-44"/>
     <use x="2510.701172" xlink:href="#DejaVuSans-32"/>
     <use x="2542.488281" xlink:href="#DejaVuSans-80"/>
     <use x="2599.166016" xlink:href="#DejaVuSans-101"/>
     <use x="2660.689453" xlink:href="#DejaVuSans-97"/>
     <use x="2721.96875" xlink:href="#DejaVuSans-107"/>
     <use x="2779.878906" xlink:href="#DejaVuSans-32"/>
     <use x="2811.666016" xlink:href="#DejaVuSans-61"/>
     <use x="2895.455078" xlink:href="#DejaVuSans-32"/>
     <use x="2927.242188" xlink:href="#DejaVuSans-49"/>
     <use x="2990.865234" xlink:href="#DejaVuSans-49"/>
     <use x="3054.488281" xlink:href="#DejaVuSans-57"/>
     <use x="3118.111328" xlink:href="#DejaVuSans-48"/>
     <use x="3181.734375" xlink:href="#DejaVuSans-46"/>
     <use x="3213.521484" xlink:href="#DejaVuSans-48"/>
     <use x="3277.144531" xlink:href="#DejaVuSans-32"/>
     <use x="3308.931641" xlink:href="#DejaVuSans-76"/>
     <use x="3364.644531" xlink:href="#DejaVuSans-47"/>
     <use x="3398.335938" xlink:href="#DejaVuSans-104"/>
     <use x="3461.714844" xlink:href="#DejaVuSans-32"/>
    </g>
    <!--  Yearly Demand = 73000 L -->
    <defs>
     <path d="M -0.203125 72.90625 
L 10.40625 72.90625 
L 30.609375 42.921875 
L 50.6875 72.90625 
L 61.28125 72.90625 
L 35.5 34.71875 
L 35.5 0 
L 25.59375 0 
L 25.59375 34.71875 
z
" id="DejaVuSans-89"/>
     <path d="M 32.171875 -5.078125 
Q 28.375 -14.84375 24.75 -17.8125 
Q 21.140625 -20.796875 15.09375 -20.796875 
L 7.90625 -20.796875 
L 7.90625 -13.28125 
L 13.1875 -13.28125 
Q 16.890625 -13.28125 18.9375 -11.515625 
Q 21 -9.765625 23.484375 -3.21875 
L 25.09375 0.875 
L 2.984375 54.6875 
L 12.5 54.6875 
L 29.59375 11.921875 
L 46.6875 54.6875 
L 56.203125 54.6875 
z
" id="DejaVuSans-121"/>
     <path d="M 52 44.1875 
Q 55.375 50.25 60.0625 53.125 
Q 64.75 56 71.09375 56 
Q 79.640625 56 84.28125 50.015625 
Q 88.921875 44.046875 88.921875 33.015625 
L 88.921875 0 
L 79.890625 0 
L 79.890625 32.71875 
Q 79.890625 40.578125 77.09375 44.375 
Q 74.3125 48.1875 68.609375 48.1875 
Q 61.625 48.1875 57.5625 43.546875 
Q 53.515625 38.921875 53.515625 30.90625 
L 53.515625 0 
L 44.484375 0 
L 44.484375 32.71875 
Q 44.484375 40.625 41.703125 44.40625 
Q 38.921875 48.1875 33.109375 48.1875 
Q 26.21875 48.1875 22.15625 43.53125 
Q 18.109375 38.875 18.109375 30.90625 
L 18.109375 0 
L 9.078125 0 
L 9.078125 54.6875 
L 18.109375 54.6875 
L 18.109375 46.1875 
Q 21.1875 51.21875 25.484375 53.609375 
Q 29.78125 56 35.6875 56 
Q 41.65625 56 45.828125 52.96875 
Q 50 49.953125 52 44.1875 
z
" id="DejaVuSans-109"/>
     <path d="M 54.890625 33.015625 
L 54.890625 0 
L 45.90625 0 
L 45.90625 32.71875 
Q 45.90625 40.484375 42.875 44.328125 
Q 39.84375 48.1875 33.796875 48.1875 
Q 26.515625 48.1875 22.3125 43.546875 
Q 18.109375 38.921875 18.109375 30.90625 
L 18.109375 0 
L 9.078125 0 
L 9.078125 54.6875 
L 18.109375 54.6875 
L 18.109375 46.1875 
Q 21.34375 51.125 25.703125 53.5625 
Q 30.078125 56 35.796875 56 
Q 45.21875 56 50.046875 50.171875 
Q 54.890625 44.34375 54.890625 33.015625 
z
" id="DejaVuSans-110"/>
     <path d="M 45.40625 46.390625 
L 45.40625 75.984375 
L 54.390625 75.984375 
L 54.390625 0 
L 45.40625 0 
L 45.40625 8.203125 
Q 42.578125 3.328125 38.25 0.953125 
Q 33.9375 -1.421875 27.875 -1.421875 
Q 17.96875 -1.421875 11.734375 6.484375 
Q 5.515625 14.40625 5.515625 27.296875 
Q 5.515625 40.1875 11.734375 48.09375 
Q 17.96875 56 27.875 56 
Q 33.9375 56 38.25 53.625 
Q 42.578125 51.265625 45.40625 46.390625 
z
M 14.796875 27.296875 
Q 14.796875 17.390625 18.875 11.75 
Q 22.953125 6.109375 30.078125 6.109375 
Q 37.203125 6.109375 41.296875 11.75 
Q 45.40625 17.390625 45.40625 27.296875 
Q 45.40625 37.203125 41.296875 42.84375 
Q 37.203125 48.484375 30.078125 48.484375 
Q 22.953125 48.484375 18.875 42.84375 
Q 14.796875 37.203125 14.796875 27.296875 
z
" id="DejaVuSans-100"/>
    </defs>
    <g transform="translate(155.2915 28.368)scale(0.096 -0.096)">
     <use xlink:href="#DejaVuSans-32"/>
     <use x="31.787109" xlink:href="#DejaVuSans-89"/>
     <use x="79.621094" xlink:href="#DejaVuSans-101"/>
     <use x="141.144531" xlink:href="#DejaVuSans-97"/>
     <use x="202.423828" xlink:href="#DejaVuSans-114"/>
     <use x="243.537109" xlink:href="#DejaVuSans-108"/>
     <use x="271.320312" xlink:href="#DejaVuSans-121"/>
     <use x="330.5" xlink:href="#DejaVuSans-32"/>
     <use x="362.287109" xlink:href="#DejaVuSans-68"/>
     <use x="439.289062" xlink:href="#DejaVuSans-101"/>
     <use x="500.8125" xlink:href="#DejaVuSans-109"/>
     <use x="598.224609" xlink:href="#DejaVuSans-97"/>
     <use x="659.503906" xlink:href="#DejaVuSans-110"/>
     <use x="722.882812" xlink:href="#DejaVuSans-100"/>
     <use x="786.359375" xlink:href="#DejaVuSans-32"/>
     <use x="818.146484" xlink:href="#DejaVuSans-61"/>
     <use x="901.935547" xlink:href="#DejaVuSans-32"/>
     <use x="933.722656" xlink:href="#DejaVuSans-55"/>
     <use x="997.345703" xlink:href="#DejaVuSans-51"/>
     <use x="1060.96875" xlink:href="#DejaVuSans-48"/>
     <use x="1124.591797" xlink:href="#DejaVuSans-48"/>
     <use x="1188.214844" xlink:href="#DejaVuSans-48"/>
     <use x="1251.837891" xlink:href="#DejaVuSans-32"/>
     <use x="1283.625" xlink:href="#DejaVuSans-76"/>
    </g>
   </g>
  </g>
  <g id="axes_2">
   <g id="patch_7">
    <path clip-path="url(#p21f083bcfc)" d="M 49.696364 317.572 
L 57.786061 317.572 
L 57.786061 216.729277 
L 49.696364 216.729277 
z
" style="fill:#1f77b4;fill-opacity:0.5;stroke:#000000;stroke-linejoin:miter;stroke-width:0.772987;"/>
   </g>
   <g id="patch_8">
    <path clip-path="url(#p21f083bcfc)" d="M 57.786061 317.572 
L 65.875758 317.572 
L 65.875758 207.400924 
L 57.786061 207.400924 
z
" style="fill:#1f77b4;fill-opacity:0.5;stroke:#000000;stroke-linejoin:miter;stroke-width:0.772987;"/>
   </g>
   <g id="patch_9">
    <path clip-path="url(#p21f083bcfc)" d="M 65.875758 317.572 
L 73.965455 317.572 
L 73.965455 204.345083 
L 65.875758 204.345083 
z
" style="fill:#1f77b4;fill-opacity:0.5;stroke:#000000;stroke-linejoin:miter;stroke-width:0.772987;"/>
   </g>
   <g id="patch_10">
    <path clip-path="url(#p21f083bcfc)" d="M 73.965455 317.572 
L 82.055152 317.572 
L 82.055152 229.274305 
L 73.965455 229.274305 
z
" style="fill:#1f77b4;fill-opacity:0.5;stroke:#000000;stroke-linejoin:miter;stroke-width:0.772987;"/>
   </g>
   <g id="patch_11">
    <path clip-path="url(#p21f083bcfc)" d="M 82.055152 317.572 
L 90.144848 317.572 
L 90.144848 209.974263 
L 82.055152 209.974263 
z
" style="fill:#1f77b4;fill-opacity:0.5;stroke:#000000;stroke-linejoin:miter;stroke-width:0.772987;"/>
   </g>
   <g id="patch_12">
    <path clip-path="url(#p21f083bcfc)" d="M 90.144848 317.572 
L 98.234545 317.572 
L 98.234545 217.855113 
L 90.144848 217.855113 
z
" style="fill:#1f77b4;fill-opacity:0.5;stroke:#000000;stroke-linejoin:miter;stroke-width:0.772987;"/>
   </g>
   <g id="patch_13">
    <path clip-path="url(#p21f083bcfc)" d="M 98.234545 317.572 
L 106.324242 317.572 
L 106.324242 231.204309 
L 98.234545 231.204309 
z
" style="fill:#1f77b4;fill-opacity:0.5;stroke:#000000;stroke-linejoin:miter;stroke-width:0.772987;"/>
   </g>
   <g id="patch_14">
    <path clip-path="url(#p21f083bcfc)" d="M 106.324242 317.572 
L 114.413939 317.572 
L 114.413939 254.203527 
L 106.324242 254.203527 
z
" style="fill:#1f77b4;fill-opacity:0.5;stroke:#000000;stroke-linejoin:miter;stroke-width:0.772987;"/>
   </g>
   <g id="patch_15">
    <path clip-path="url(#p21f083bcfc)" d="M 114.413939 317.572 
L 122.503636 317.572 
L 122.503636 238.924326 
L 114.413939 238.924326 
z
" style="fill:#1f77b4;fill-opacity:0.5;stroke:#000000;stroke-linejoin:miter;stroke-width:0.772987;"/>
   </g>
   <g id="patch_16">
    <path clip-path="url(#p21f083bcfc)" d="M 122.503636 317.572 
L 130.593333 317.572 
L 130.593333 241.980167 
L 122.503636 241.980167 
z
" style="fill:#1f77b4;fill-opacity:0.5;stroke:#000000;stroke-linejoin:miter;stroke-width:0.772987;"/>
   </g>
   <g id="patch_17">
    <path clip-path="url(#p21f083bcfc)" d="M 130.593333 317.572 
L 138.68303 317.572 
L 138.68303 252.434356 
L 130.593333 252.434356 
z
" style="fill:#1f77b4;fill-opacity:0.5;stroke:#000000;stroke-linejoin:miter;stroke-width:0.772987;"/>
   </g>
   <g id="patch_18">
    <path clip-path="url(#p21f083bcfc)" d="M 138.68303 317.572 
L 146.772727 317.572 
L 146.772727 266.426887 
L 138.68303 266.426887 
z
" style="fill:#1f77b4;fill-opacity:0.5;stroke:#000000;stroke-linejoin:miter;stroke-width:0.772987;"/>
   </g>
   <g id="patch_19">
    <path clip-path="url(#p21f083bcfc)" d="M 146.772727 317.572 
L 154.862424 317.572 
L 154.862424 249.056849 
L 146.772727 249.056849 
z
" style="fill:#1f77b4;fill-opacity:0.5;stroke:#000000;stroke-linejoin:miter;stroke-width:0.772987;"/>
   </g>
   <g id="patch_20">
    <path clip-path="url(#p21f083bcfc)" d="M 154.862424 317.572 
L 162.952121 317.572 
L 162.952121 251.791021 
L 154.862424 251.791021 
z
" style="fill:#1f77b4;fill-opacity:0.5;stroke:#000000;stroke-linejoin:miter;stroke-width:0.772987;"/>
   </g>
   <g id="patch_21">
    <path clip-path="url(#p21f083bcfc)" d="M 162.952121 317.572 
L 171.041818 317.572 
L 171.041818 269.482727 
L 162.952121 269.482727 
z
" style="fill:#1f77b4;fill-opacity:0.5;stroke:#000000;stroke-linejoin:miter;stroke-width:0.772987;"/>
   </g>
   <g id="patch_22">
    <path clip-path="url(#p21f083bcfc)" d="M 171.041818 317.572 
L 179.131515 317.572 
L 179.131515 200.645909 
L 171.041818 200.645909 
z
" style="fill:#1f77b4;fill-opacity:0.5;stroke:#000000;stroke-linejoin:miter;stroke-width:0.772987;"/>
   </g>
   <g id="patch_23">
    <path clip-path="url(#p21f083bcfc)" d="M 179.131515 317.572 
L 187.221212 317.572 
L 187.221212 47.853905 
L 179.131515 47.853905 
z
" style="fill:#1f77b4;fill-opacity:0.5;stroke:#000000;stroke-linejoin:miter;stroke-width:0.772987;"/>
   </g>
   <g id="patch_24">
    <path clip-path="url(#p21f083bcfc)" d="M 187.221212 317.572 
L 195.310909 317.572 
L 195.310909 85.649822 
L 187.221212 85.649822 
z
" style="fill:#1f77b4;fill-opacity:0.5;stroke:#000000;stroke-linejoin:miter;stroke-width:0.772987;"/>
   </g>
   <g id="patch_25">
    <path clip-path="url(#p21f083bcfc)" d="M 195.310909 317.572 
L 203.400606 317.572 
L 203.400606 245.357674 
L 195.310909 245.357674 
z
" style="fill:#1f77b4;fill-opacity:0.5;stroke:#000000;stroke-linejoin:miter;stroke-width:0.772987;"/>
   </g>
   <g id="patch_26">
    <path clip-path="url(#p21f083bcfc)" d="M 203.400606 317.572 
L 211.490303 317.572 
L 211.490303 293.929448 
L 203.400606 293.929448 
z
" style="fill:#1f77b4;fill-opacity:0.5;stroke:#000000;stroke-linejoin:miter;stroke-width:0.772987;"/>
   </g>
   <g id="patch_27">
    <path clip-path="url(#p21f083bcfc)" d="M 211.490303 317.572 
L 219.58 317.572 
L 219.58 300.523629 
L 211.490303 300.523629 
z
" style="fill:#1f77b4;fill-opacity:0.5;stroke:#000000;stroke-linejoin:miter;stroke-width:0.772987;"/>
   </g>
   <g id="patch_28">
    <path clip-path="url(#p21f083bcfc)" d="M 219.58 317.572 
L 227.669697 317.572 
L 227.669697 310.17365 
L 219.58 310.17365 
z
" style="fill:#1f77b4;fill-opacity:0.5;stroke:#000000;stroke-linejoin:miter;stroke-width:0.772987;"/>
   </g>
   <g id="patch_29">
    <path clip-path="url(#p21f083bcfc)" d="M 227.669697 317.572 
L 235.759394 317.572 
L 235.759394 312.907823 
L 227.669697 312.907823 
z
" style="fill:#1f77b4;fill-opacity:0.5;stroke:#000000;stroke-linejoin:miter;stroke-width:0.772987;"/>
   </g>
   <g id="patch_30">
    <path clip-path="url(#p21f083bcfc)" d="M 235.759394 317.572 
L 243.849091 317.572 
L 243.849091 310.656151 
L 235.759394 310.656151 
z
" style="fill:#1f77b4;fill-opacity:0.5;stroke:#000000;stroke-linejoin:miter;stroke-width:0.772987;"/>
   </g>
   <g id="patch_31">
    <path clip-path="url(#p21f083bcfc)" d="M 243.849091 317.572 
L 251.938788 317.572 
L 251.938788 313.390324 
L 243.849091 313.390324 
z
" style="fill:#1f77b4;fill-opacity:0.5;stroke:#000000;stroke-linejoin:miter;stroke-width:0.772987;"/>
   </g>
   <g id="patch_32">
    <path clip-path="url(#p21f083bcfc)" d="M 251.938788 317.572 
L 260.028485 317.572 
L 260.028485 312.746989 
L 251.938788 312.746989 
z
" style="fill:#1f77b4;fill-opacity:0.5;stroke:#000000;stroke-linejoin:miter;stroke-width:0.772987;"/>
   </g>
   <g id="patch_33">
    <path clip-path="url(#p21f083bcfc)" d="M 260.028485 317.572 
L 268.118182 317.572 
L 268.118182 312.746989 
L 260.028485 312.746989 
z
" style="fill:#1f77b4;fill-opacity:0.5;stroke:#000000;stroke-linejoin:miter;stroke-width:0.772987;"/>
   </g>
   <g id="patch_34">
    <path clip-path="url(#p21f083bcfc)" d="M 268.118182 317.572 
L 276.207879 317.572 
L 276.207879 314.676994 
L 268.118182 314.676994 
z
" style="fill:#1f77b4;fill-opacity:0.5;stroke:#000000;stroke-linejoin:miter;stroke-width:0.772987;"/>
   </g>
   <g id="patch_35">
    <path clip-path="url(#p21f083bcfc)" d="M 276.207879 317.572 
L 284.297576 317.572 
L 284.297576 313.390324 
L 276.207879 313.390324 
z
" style="fill:#1f77b4;fill-opacity:0.5;stroke:#000000;stroke-linejoin:miter;stroke-width:0.772987;"/>
   </g>
   <g id="patch_36">
    <path clip-path="url(#p21f083bcfc)" d="M 284.297576 317.572 
L 292.387273 317.572 
L 292.387273 251.791021 
L 284.297576 251.791021 
z
" style="fill:#1f77b4;fill-opacity:0.5;stroke:#000000;stroke-linejoin:miter;stroke-width:0.772987;"/>
   </g>
   <g id="patch_37">
    <path clip-path="url(#p21f083bcfc)" d="M 292.387273 317.572 
L 300.47697 317.572 
L 300.47697 300.684463 
L 292.387273 300.684463 
z
" style="fill:#1f77b4;fill-opacity:0.5;stroke:#000000;stroke-linejoin:miter;stroke-width:0.772987;"/>
   </g>
   <g id="patch_38">
    <path clip-path="url(#p21f083bcfc)" d="M 300.47697 317.572 
L 308.566667 317.572 
L 308.566667 314.676994 
L 300.47697 314.676994 
z
" style="fill:#1f77b4;fill-opacity:0.5;stroke:#000000;stroke-linejoin:miter;stroke-width:0.772987;"/>
   </g>
   <g id="patch_39">
    <path clip-path="url(#p21f083bcfc)" d="M 308.566667 317.572 
L 316.656364 317.572 
L 316.656364 314.033659 
L 308.566667 314.033659 
z
" style="fill:#1f77b4;fill-opacity:0.5;stroke:#000000;stroke-linejoin:miter;stroke-width:0.772987;"/>
   </g>
   <g id="patch_40">
    <path clip-path="url(#p21f083bcfc)" d="M 316.656364 317.572 
L 324.746061 317.572 
L 324.746061 311.46032 
L 316.656364 311.46032 
z
" style="fill:#1f77b4;fill-opacity:0.5;stroke:#000000;stroke-linejoin:miter;stroke-width:0.772987;"/>
   </g>
   <g id="patch_41">
    <path clip-path="url(#p21f083bcfc)" d="M 324.746061 317.572 
L 332.835758 317.572 
L 332.835758 314.51616 
L 324.746061 314.51616 
z
" style="fill:#1f77b4;fill-opacity:0.5;stroke:#000000;stroke-linejoin:miter;stroke-width:0.772987;"/>
   </g>
   <g id="patch_42">
    <path clip-path="url(#p21f083bcfc)" d="M 332.835758 317.572 
L 340.925455 317.572 
L 340.925455 313.551158 
L 332.835758 313.551158 
z
" style="fill:#1f77b4;fill-opacity:0.5;stroke:#000000;stroke-linejoin:miter;stroke-width:0.772987;"/>
   </g>
   <g id="patch_43">
    <path clip-path="url(#p21f083bcfc)" d="M 340.925455 317.572 
L 349.015152 317.572 
L 349.015152 315.963663 
L 340.925455 315.963663 
z
" style="fill:#1f77b4;fill-opacity:0.5;stroke:#000000;stroke-linejoin:miter;stroke-width:0.772987;"/>
   </g>
   <g id="patch_44">
    <path clip-path="url(#p21f083bcfc)" d="M 349.015152 317.572 
L 357.104848 317.572 
L 357.104848 315.802829 
L 349.015152 315.802829 
z
" style="fill:#1f77b4;fill-opacity:0.5;stroke:#000000;stroke-linejoin:miter;stroke-width:0.772987;"/>
   </g>
   <g id="patch_45">
    <path clip-path="url(#p21f083bcfc)" d="M 357.104848 317.572 
L 365.194545 317.572 
L 365.194545 316.28533 
L 357.104848 316.28533 
z
" style="fill:#1f77b4;fill-opacity:0.5;stroke:#000000;stroke-linejoin:miter;stroke-width:0.772987;"/>
   </g>
   <g id="patch_46">
    <path clip-path="url(#p21f083bcfc)" d="M 365.194545 317.572 
L 373.284242 317.572 
L 373.284242 315.963663 
L 365.194545 315.963663 
z
" style="fill:#1f77b4;fill-opacity:0.5;stroke:#000000;stroke-linejoin:miter;stroke-width:0.772987;"/>
   </g>
   <g id="patch_47">
    <path clip-path="url(#p21f083bcfc)" d="M 373.284242 317.572 
L 381.373939 317.572 
L 381.373939 317.089499 
L 373.284242 317.089499 
z
" style="fill:#1f77b4;fill-opacity:0.5;stroke:#000000;stroke-linejoin:miter;stroke-width:0.772987;"/>
   </g>
   <g id="patch_48">
    <path clip-path="url(#p21f083bcfc)" d="M 381.373939 317.572 
L 389.463636 317.572 
L 389.463636 316.928665 
L 381.373939 316.928665 
z
" style="fill:#1f77b4;fill-opacity:0.5;stroke:#000000;stroke-linejoin:miter;stroke-width:0.772987;"/>
   </g>
   <g id="matplotlib.axis_3">
    <g id="ytick_7">
     <g id="line2d_14">
      <defs>
       <path d="M 0 0 
L 4.8 0 
" id="m7c49980cb4" style="stroke:#000000;"/>
      </defs>
      <g>
       <use style="stroke:#000000;" x="406.452" xlink:href="#m7c49980cb4" y="317.572"/>
      </g>
     </g>
     <g id="text_15">
      <!-- 0 -->
      <g transform="translate(414.752 320.915312)scale(0.088 -0.088)">
       <use xlink:href="#DejaVuSans-48"/>
      </g>
     </g>
    </g>
    <g id="ytick_8">
     <g id="line2d_15">
      <g>
       <use style="stroke:#000000;" x="406.452" xlink:href="#m7c49980cb4" y="285.405262"/>
      </g>
     </g>
     <g id="text_16">
      <!-- 200 -->
      <g transform="translate(414.752 288.748575)scale(0.088 -0.088)">
       <use xlink:href="#DejaVuSans-50"/>
       <use x="63.623047" xlink:href="#DejaVuSans-48"/>
       <use x="127.246094" xlink:href="#DejaVuSans-48"/>
      </g>
     </g>
    </g>
    <g id="ytick_9">
     <g id="line2d_16">
      <g>
       <use style="stroke:#000000;" x="406.452" xlink:href="#m7c49980cb4" y="253.238525"/>
      </g>
     </g>
     <g id="text_17">
      <!-- 400 -->
      <g transform="translate(414.752 256.581837)scale(0.088 -0.088)">
       <use xlink:href="#DejaVuSans-52"/>
       <use x="63.623047" xlink:href="#DejaVuSans-48"/>
       <use x="127.246094" xlink:href="#DejaVuSans-48"/>
      </g>
     </g>
    </g>
    <g id="ytick_10">
     <g id="line2d_17">
      <g>
       <use style="stroke:#000000;" x="406.452" xlink:href="#m7c49980cb4" y="221.071787"/>
      </g>
     </g>
     <g id="text_18">
      <!-- 600 -->
      <g transform="translate(414.752 224.4151)scale(0.088 -0.088)">
       <use xlink:href="#DejaVuSans-54"/>
       <use x="63.623047" xlink:href="#DejaVuSans-48"/>
       <use x="127.246094" xlink:href="#DejaVuSans-48"/>
      </g>
     </g>
    </g>
    <g id="ytick_11">
     <g id="line2d_18">
      <g>
       <use style="stroke:#000000;" x="406.452" xlink:href="#m7c49980cb4" y="188.905049"/>
      </g>
     </g>
     <g id="text_19">
      <!-- 800 -->
      <g transform="translate(414.752 192.248362)scale(0.088 -0.088)">
       <use xlink:href="#DejaVuSans-56"/>
       <use x="63.623047" xlink:href="#DejaVuSans-48"/>
       <use x="127.246094" xlink:href="#DejaVuSans-48"/>
      </g>
     </g>
    </g>
    <g id="ytick_12">
     <g id="line2d_19">
      <g>
       <use style="stroke:#000000;" x="406.452" xlink:href="#m7c49980cb4" y="156.738312"/>
      </g>
     </g>
     <g id="text_20">
      <!-- 1000 -->
      <g transform="translate(414.752 160.081624)scale(0.088 -0.088)">
       <use xlink:href="#DejaVuSans-49"/>
       <use x="63.623047" xlink:href="#DejaVuSans-48"/>
       <use x="127.246094" xlink:href="#DejaVuSans-48"/>
       <use x="190.869141" xlink:href="#DejaVuSans-48"/>
      </g>
     </g>
    </g>
    <g id="ytick_13">
     <g id="line2d_20">
      <g>
       <use style="stroke:#000000;" x="406.452" xlink:href="#m7c49980cb4" y="124.571574"/>
      </g>
     </g>
     <g id="text_21">
      <!-- 1200 -->
      <g transform="translate(414.752 127.914887)scale(0.088 -0.088)">
       <use xlink:href="#DejaVuSans-49"/>
       <use x="63.623047" xlink:href="#DejaVuSans-50"/>
       <use x="127.246094" xlink:href="#DejaVuSans-48"/>
       <use x="190.869141" xlink:href="#DejaVuSans-48"/>
      </g>
     </g>
    </g>
    <g id="ytick_14">
     <g id="line2d_21">
      <g>
       <use style="stroke:#000000;" x="406.452" xlink:href="#m7c49980cb4" y="92.404836"/>
      </g>
     </g>
     <g id="text_22">
      <!-- 1400 -->
      <g transform="translate(414.752 95.748149)scale(0.088 -0.088)">
       <use xlink:href="#DejaVuSans-49"/>
       <use x="63.623047" xlink:href="#DejaVuSans-52"/>
       <use x="127.246094" xlink:href="#DejaVuSans-48"/>
       <use x="190.869141" xlink:href="#DejaVuSans-48"/>
      </g>
     </g>
    </g>
    <g id="ytick_15">
     <g id="line2d_22">
      <g>
       <use style="stroke:#000000;" x="406.452" xlink:href="#m7c49980cb4" y="60.238099"/>
      </g>
     </g>
     <g id="text_23">
      <!-- 1600 -->
      <g transform="translate(414.752 63.581411)scale(0.088 -0.088)">
       <use xlink:href="#DejaVuSans-49"/>
       <use x="63.623047" xlink:href="#DejaVuSans-54"/>
       <use x="127.246094" xlink:href="#DejaVuSans-48"/>
       <use x="190.869141" xlink:href="#DejaVuSans-48"/>
      </g>
     </g>
    </g>
    <g id="text_24">
     <!-- Count -->
     <defs>
      <path d="M 64.40625 67.28125 
L 64.40625 56.890625 
Q 59.421875 61.53125 53.78125 63.8125 
Q 48.140625 66.109375 41.796875 66.109375 
Q 29.296875 66.109375 22.65625 58.46875 
Q 16.015625 50.828125 16.015625 36.375 
Q 16.015625 21.96875 22.65625 14.328125 
Q 29.296875 6.6875 41.796875 6.6875 
Q 48.140625 6.6875 53.78125 8.984375 
Q 59.421875 11.28125 64.40625 15.921875 
L 64.40625 5.609375 
Q 59.234375 2.09375 53.4375 0.328125 
Q 47.65625 -1.421875 41.21875 -1.421875 
Q 24.65625 -1.421875 15.125 8.703125 
Q 5.609375 18.84375 5.609375 36.375 
Q 5.609375 53.953125 15.125 64.078125 
Q 24.65625 74.21875 41.21875 74.21875 
Q 47.75 74.21875 53.53125 72.484375 
Q 59.328125 70.75 64.40625 67.28125 
z
" id="DejaVuSans-67"/>
      <path d="M 8.5 21.578125 
L 8.5 54.6875 
L 17.484375 54.6875 
L 17.484375 21.921875 
Q 17.484375 14.15625 20.5 10.265625 
Q 23.53125 6.390625 29.59375 6.390625 
Q 36.859375 6.390625 41.078125 11.03125 
Q 45.3125 15.671875 45.3125 23.6875 
L 45.3125 54.6875 
L 54.296875 54.6875 
L 54.296875 0 
L 45.3125 0 
L 45.3125 8.40625 
Q 42.046875 3.421875 37.71875 1 
Q 33.40625 -1.421875 27.6875 -1.421875 
Q 18.265625 -1.421875 13.375 4.4375 
Q 8.5 10.296875 8.5 21.578125 
z
M 31.109375 56 
z
" id="DejaVuSans-117"/>
     </defs>
     <g transform="translate(448.4425 190.2245)rotate(-90)scale(0.096 -0.096)">
      <use xlink:href="#DejaVuSans-67"/>
      <use x="69.824219" xlink:href="#DejaVuSans-111"/>
      <use x="131.005859" xlink:href="#DejaVuSans-117"/>
      <use x="194.384766" xlink:href="#DejaVuSans-110"/>
      <use x="257.763672" xlink:href="#DejaVuSans-116"/>
     </g>
    </g>
   </g>
   <g id="line2d_23">
    <path clip-path="url(#p21f083bcfc)" d="M 49.696364 264.705784 
L 53.11111 250.150558 
L 54.818483 243.454263 
L 56.525857 237.375302 
L 58.23323 232.024484 
L 59.940603 227.458444 
L 61.647976 223.68337 
L 63.355349 220.663768 
L 65.062723 218.334093 
L 66.770096 216.611047 
L 68.477469 215.404779 
L 70.184842 214.627856 
L 71.892216 214.201551 
L 73.599589 214.059503 
L 75.306962 214.149179 
L 77.014335 214.431624 
L 78.721709 214.880044 
L 80.429082 215.477651 
L 82.136455 216.215088 
L 83.843828 217.087734 
L 85.551201 218.093072 
L 88.965948 220.488451 
L 92.380694 223.344048 
L 95.795441 226.534852 
L 102.624934 233.120555 
L 106.03968 236.0836 
L 109.454427 238.626665 
L 112.869173 240.732189 
L 116.28392 242.501751 
L 124.820786 246.658652 
L 129.942905 249.526307 
L 133.357652 251.437213 
L 136.772398 253.084785 
L 138.479772 253.744153 
L 140.187145 254.272587 
L 141.894518 254.665829 
L 143.601891 254.928517 
L 147.016638 255.106651 
L 150.431384 254.868838 
L 152.138757 254.562516 
L 153.846131 254.065965 
L 155.553504 253.28798 
L 157.260877 252.099387 
L 158.96825 250.334558 
L 160.675624 247.798706 
L 162.382997 244.281808 
L 164.09037 239.579315 
L 165.797743 233.518755 
L 167.505116 225.990117 
L 169.21249 216.976652 
L 170.919863 206.581784 
L 174.334609 182.758968 
L 177.749356 158.097888 
L 179.456729 147.031119 
L 181.164102 137.721772 
L 182.871476 130.799167 
L 184.578849 126.774451 
L 186.286222 125.989754 
L 187.993595 128.583493 
L 189.700968 134.476417 
L 191.408342 143.380159 
L 193.115715 154.826956 
L 194.823088 168.216394 
L 198.237835 198.106671 
L 201.652581 227.806914 
L 203.359954 241.279989 
L 205.067328 253.391741 
L 206.774701 263.98177 
L 208.482074 273.013618 
L 210.189447 280.551365 
L 211.89682 286.731005 
L 213.604194 291.730968 
L 215.311567 295.745433 
L 217.01894 298.96293 
L 218.726313 301.55152 
L 220.433687 303.650615 
L 222.14106 305.368685 
L 223.848433 306.785426 
L 225.555806 307.956819 
L 227.26318 308.921485 
L 228.970553 309.707024 
L 230.677926 310.335394 
L 232.385299 310.826766 
L 235.800046 311.481694 
L 239.214792 311.843928 
L 247.751658 312.361625 
L 256.288524 312.801344 
L 259.703271 312.837196 
L 263.118017 312.617158 
L 264.825391 312.333917 
L 266.532764 311.877441 
L 268.240137 311.19715 
L 269.94751 310.242319 
L 271.654884 308.969602 
L 273.362257 307.352421 
L 275.06963 305.391039 
L 276.777003 303.121547 
L 283.606496 293.101985 
L 285.313869 291.162485 
L 287.021243 289.788522 
L 288.728616 289.100925 
L 290.435989 289.162289 
L 292.143362 289.967713 
L 293.850735 291.44539 
L 295.558109 293.466936 
L 297.265482 295.865428 
L 302.387602 303.540279 
L 304.094975 305.76457 
L 305.802348 307.668848 
L 307.509721 309.224808 
L 309.217095 310.440094 
L 310.924468 311.348815 
L 312.631841 312.001103 
L 314.339214 312.453458 
L 317.753961 312.972233 
L 324.583454 313.480167 
L 338.242439 314.548059 
L 353.608799 315.786281 
L 362.145665 316.197508 
L 389.463636 317.217065 
L 389.463636 317.217065 
" style="fill:none;stroke:#1f77b4;stroke-linecap:square;stroke-width:1.2;"/>
   </g>
   <g id="patch_49">
    <path d="M 32.708 317.572 
L 32.708 34.368 
" style="fill:none;stroke:#000000;stroke-linecap:square;stroke-linejoin:miter;"/>
   </g>
   <g id="patch_50">
    <path d="M 406.452 317.572 
L 406.452 34.368 
" style="fill:none;stroke:#000000;stroke-linecap:square;stroke-linejoin:miter;"/>
   </g>
   <g id="patch_51">
    <path d="M 32.708 317.572 
L 406.452 317.572 
" style="fill:none;stroke:#000000;stroke-linecap:square;stroke-linejoin:miter;"/>
   </g>
   <g id="patch_52">
    <path d="M 32.708 34.368 
L 406.452 34.368 
" style="fill:none;stroke:#000000;stroke-linecap:square;stroke-linejoin:miter;"/>
   </g>
   <g id="legend_1">
    <g id="patch_53">
     <path d="M 315.576875 54.5695 
L 400.292 54.5695 
Q 402.052 54.5695 402.052 52.8095 
L 402.052 40.528 
Q 402.052 38.768 400.292 38.768 
L 315.576875 38.768 
Q 313.816875 38.768 313.816875 40.528 
L 313.816875 52.8095 
Q 313.816875 54.5695 315.576875 54.5695 
z
" style="fill:#ffffff;opacity:0.8;stroke:#cccccc;stroke-linejoin:miter;stroke-width:0.8;"/>
    </g>
    <g id="patch_54">
     <path d="M 317.336875 48.974625 
L 334.936875 48.974625 
L 334.936875 42.814625 
L 317.336875 42.814625 
z
" style="fill:#1f77b4;fill-opacity:0.5;stroke:#000000;stroke-linejoin:miter;stroke-width:0.8;"/>
    </g>
    <g id="text_25">
     <!-- Water_LperH -->
     <defs>
      <path d="M 50.984375 -16.609375 
L 50.984375 -23.578125 
L -0.984375 -23.578125 
L -0.984375 -16.609375 
z
" id="DejaVuSans-95"/>
      <path d="M 18.109375 8.203125 
L 18.109375 -20.796875 
L 9.078125 -20.796875 
L 9.078125 54.6875 
L 18.109375 54.6875 
L 18.109375 46.390625 
Q 20.953125 51.265625 25.265625 53.625 
Q 29.59375 56 35.59375 56 
Q 45.5625 56 51.78125 48.09375 
Q 58.015625 40.1875 58.015625 27.296875 
Q 58.015625 14.40625 51.78125 6.484375 
Q 45.5625 -1.421875 35.59375 -1.421875 
Q 29.59375 -1.421875 25.265625 0.953125 
Q 20.953125 3.328125 18.109375 8.203125 
z
M 48.6875 27.296875 
Q 48.6875 37.203125 44.609375 42.84375 
Q 40.53125 48.484375 33.40625 48.484375 
Q 26.265625 48.484375 22.1875 42.84375 
Q 18.109375 37.203125 18.109375 27.296875 
Q 18.109375 17.390625 22.1875 11.75 
Q 26.265625 6.109375 33.40625 6.109375 
Q 40.53125 6.109375 44.609375 11.75 
Q 48.6875 17.390625 48.6875 27.296875 
z
" id="DejaVuSans-112"/>
     </defs>
     <g transform="translate(341.976875 48.974625)scale(0.088 -0.088)">
      <use xlink:href="#DejaVuSans-87"/>
      <use x="92.501953" xlink:href="#DejaVuSans-97"/>
      <use x="153.78125" xlink:href="#DejaVuSans-116"/>
      <use x="192.990234" xlink:href="#DejaVuSans-101"/>
      <use x="254.513672" xlink:href="#DejaVuSans-114"/>
      <use x="295.626953" xlink:href="#DejaVuSans-95"/>
      <use x="345.626953" xlink:href="#DejaVuSans-76"/>
      <use x="401.339844" xlink:href="#DejaVuSans-112"/>
      <use x="464.816406" xlink:href="#DejaVuSans-101"/>
      <use x="526.339844" xlink:href="#DejaVuSans-114"/>
      <use x="567.453125" xlink:href="#DejaVuSans-72"/>
     </g>
    </g>
   </g>
  </g>
 </g>
 <defs>
  <clipPath id="p21f083bcfc">
   <rect height="283.204" width="373.744" x="32.708" y="34.368"/>
  </clipPath>
 </defs>
</svg>
