<?xml version="1.0" encoding="utf-8" standalone="no"?>
<!DOCTYPE svg PUBLIC "-//W3C//DTD SVG 1.1//EN"
  "http://www.w3.org/Graphics/SVG/1.1/DTD/svg11.dtd">
<!-- Created with matplotlib (https://matplotlib.org/) -->
<svg height="345.6pt" version="1.1" viewBox="0 0 460.8 345.6" width="460.8pt" xmlns="http://www.w3.org/2000/svg" xmlns:xlink="http://www.w3.org/1999/xlink">
 <defs>
  <style type="text/css">
*{stroke-linecap:butt;stroke-linejoin:round;}
  </style>
 </defs>
 <g id="figure_1">
  <g id="patch_1">
   <path d="M 0 345.6 
L 460.8 345.6 
L 460.8 0 
L 0 0 
z
" style="fill:#ffffff;"/>
  </g>
  <g id="axes_1">
   <g id="patch_2">
    <path d="M 32.708 317.572 
L 411.942 317.572 
L 411.942 34.368 
L 32.708 34.368 
z
" style="fill:#ffffff;"/>
   </g>
   <g id="matplotlib.axis_1">
    <g id="xtick_1">
     <g id="line2d_1">
      <defs>
       <path d="M 0 0 
L 0 4.8 
" id="me333f55492" style="stroke:#000000;"/>
      </defs>
      <g>
       <use style="stroke:#000000;" x="35.580985" xlink:href="#me333f55492" y="317.572"/>
      </g>
     </g>
     <g id="text_1">
      <!-- 200 -->
      <defs>
       <path d="M 19.1875 8.296875 
L 53.609375 8.296875 
L 53.609375 0 
L 7.328125 0 
L 7.328125 8.296875 
Q 12.9375 14.109375 22.625 23.890625 
Q 32.328125 33.6875 34.8125 36.53125 
Q 39.546875 41.84375 41.421875 45.53125 
Q 43.3125 49.21875 43.3125 52.78125 
Q 43.3125 58.59375 39.234375 62.25 
Q 35.15625 65.921875 28.609375 65.921875 
Q 23.96875 65.921875 18.8125 64.3125 
Q 13.671875 62.703125 7.8125 59.421875 
L 7.8125 69.390625 
Q 13.765625 71.78125 18.9375 73 
Q 24.125 74.21875 28.421875 74.21875 
Q 39.75 74.21875 46.484375 68.546875 
Q 53.21875 62.890625 53.21875 53.421875 
Q 53.21875 48.921875 51.53125 44.890625 
Q 49.859375 40.875 45.40625 35.40625 
Q 44.1875 33.984375 37.640625 27.21875 
Q 31.109375 20.453125 19.1875 8.296875 
z
" id="DejaVuSans-50"/>
       <path d="M 31.78125 66.40625 
Q 24.171875 66.40625 20.328125 58.90625 
Q 16.5 51.421875 16.5 36.375 
Q 16.5 21.390625 20.328125 13.890625 
Q 24.171875 6.390625 31.78125 6.390625 
Q 39.453125 6.390625 43.28125 13.890625 
Q 47.125 21.390625 47.125 36.375 
Q 47.125 51.421875 43.28125 58.90625 
Q 39.453125 66.40625 31.78125 66.40625 
z
M 31.78125 74.21875 
Q 44.046875 74.21875 50.515625 64.515625 
Q 56.984375 54.828125 56.984375 36.375 
Q 56.984375 17.96875 50.515625 8.265625 
Q 44.046875 -1.421875 31.78125 -1.421875 
Q 19.53125 -1.421875 13.0625 8.265625 
Q 6.59375 17.96875 6.59375 36.375 
Q 6.59375 54.828125 13.0625 64.515625 
Q 19.53125 74.21875 31.78125 74.21875 
z
" id="DejaVuSans-48"/>
      </defs>
      <g transform="translate(27.182485 332.558625)scale(0.088 -0.088)">
       <use xlink:href="#DejaVuSans-50"/>
       <use x="63.623047" xlink:href="#DejaVuSans-48"/>
       <use x="127.246094" xlink:href="#DejaVuSans-48"/>
      </g>
     </g>
    </g>
    <g id="xtick_2">
     <g id="line2d_2">
      <g>
       <use style="stroke:#000000;" x="107.405606" xlink:href="#me333f55492" y="317.572"/>
      </g>
     </g>
     <g id="text_2">
      <!-- 400 -->
      <defs>
       <path d="M 37.796875 64.3125 
L 12.890625 25.390625 
L 37.796875 25.390625 
z
M 35.203125 72.90625 
L 47.609375 72.90625 
L 47.609375 25.390625 
L 58.015625 25.390625 
L 58.015625 17.1875 
L 47.609375 17.1875 
L 47.609375 0 
L 37.796875 0 
L 37.796875 17.1875 
L 4.890625 17.1875 
L 4.890625 26.703125 
z
" id="DejaVuSans-52"/>
      </defs>
      <g transform="translate(99.007106 332.558625)scale(0.088 -0.088)">
       <use xlink:href="#DejaVuSans-52"/>
       <use x="63.623047" xlink:href="#DejaVuSans-48"/>
       <use x="127.246094" xlink:href="#DejaVuSans-48"/>
      </g>
     </g>
    </g>
    <g id="xtick_3">
     <g id="line2d_3">
      <g>
       <use style="stroke:#000000;" x="179.230227" xlink:href="#me333f55492" y="317.572"/>
      </g>
     </g>
     <g id="text_3">
      <!-- 600 -->
      <defs>
       <path d="M 33.015625 40.375 
Q 26.375 40.375 22.484375 35.828125 
Q 18.609375 31.296875 18.609375 23.390625 
Q 18.609375 15.53125 22.484375 10.953125 
Q 26.375 6.390625 33.015625 6.390625 
Q 39.65625 6.390625 43.53125 10.953125 
Q 47.40625 15.53125 47.40625 23.390625 
Q 47.40625 31.296875 43.53125 35.828125 
Q 39.65625 40.375 33.015625 40.375 
z
M 52.59375 71.296875 
L 52.59375 62.3125 
Q 48.875 64.0625 45.09375 64.984375 
Q 41.3125 65.921875 37.59375 65.921875 
Q 27.828125 65.921875 22.671875 59.328125 
Q 17.53125 52.734375 16.796875 39.40625 
Q 19.671875 43.65625 24.015625 45.921875 
Q 28.375 48.1875 33.59375 48.1875 
Q 44.578125 48.1875 50.953125 41.515625 
Q 57.328125 34.859375 57.328125 23.390625 
Q 57.328125 12.15625 50.6875 5.359375 
Q 44.046875 -1.421875 33.015625 -1.421875 
Q 20.359375 -1.421875 13.671875 8.265625 
Q 6.984375 17.96875 6.984375 36.375 
Q 6.984375 53.65625 15.1875 63.9375 
Q 23.390625 74.21875 37.203125 74.21875 
Q 40.921875 74.21875 44.703125 73.484375 
Q 48.484375 72.75 52.59375 71.296875 
z
" id="DejaVuSans-54"/>
      </defs>
      <g transform="translate(170.831727 332.558625)scale(0.088 -0.088)">
       <use xlink:href="#DejaVuSans-54"/>
       <use x="63.623047" xlink:href="#DejaVuSans-48"/>
       <use x="127.246094" xlink:href="#DejaVuSans-48"/>
      </g>
     </g>
    </g>
    <g id="xtick_4">
     <g id="line2d_4">
      <g>
       <use style="stroke:#000000;" x="251.054848" xlink:href="#me333f55492" y="317.572"/>
      </g>
     </g>
     <g id="text_4">
      <!-- 800 -->
      <defs>
       <path d="M 31.78125 34.625 
Q 24.75 34.625 20.71875 30.859375 
Q 16.703125 27.09375 16.703125 20.515625 
Q 16.703125 13.921875 20.71875 10.15625 
Q 24.75 6.390625 31.78125 6.390625 
Q 38.8125 6.390625 42.859375 10.171875 
Q 46.921875 13.96875 46.921875 20.515625 
Q 46.921875 27.09375 42.890625 30.859375 
Q 38.875 34.625 31.78125 34.625 
z
M 21.921875 38.8125 
Q 15.578125 40.375 12.03125 44.71875 
Q 8.5 49.078125 8.5 55.328125 
Q 8.5 64.0625 14.71875 69.140625 
Q 20.953125 74.21875 31.78125 74.21875 
Q 42.671875 74.21875 48.875 69.140625 
Q 55.078125 64.0625 55.078125 55.328125 
Q 55.078125 49.078125 51.53125 44.71875 
Q 48 40.375 41.703125 38.8125 
Q 48.828125 37.15625 52.796875 32.3125 
Q 56.78125 27.484375 56.78125 20.515625 
Q 56.78125 9.90625 50.3125 4.234375 
Q 43.84375 -1.421875 31.78125 -1.421875 
Q 19.734375 -1.421875 13.25 4.234375 
Q 6.78125 9.90625 6.78125 20.515625 
Q 6.78125 27.484375 10.78125 32.3125 
Q 14.796875 37.15625 21.921875 38.8125 
z
M 18.3125 54.390625 
Q 18.3125 48.734375 21.84375 45.5625 
Q 25.390625 42.390625 31.78125 42.390625 
Q 38.140625 42.390625 41.71875 45.5625 
Q 45.3125 48.734375 45.3125 54.390625 
Q 45.3125 60.0625 41.71875 63.234375 
Q 38.140625 66.40625 31.78125 66.40625 
Q 25.390625 66.40625 21.84375 63.234375 
Q 18.3125 60.0625 18.3125 54.390625 
z
" id="DejaVuSans-56"/>
      </defs>
      <g transform="translate(242.656348 332.558625)scale(0.088 -0.088)">
       <use xlink:href="#DejaVuSans-56"/>
       <use x="63.623047" xlink:href="#DejaVuSans-48"/>
       <use x="127.246094" xlink:href="#DejaVuSans-48"/>
      </g>
     </g>
    </g>
    <g id="xtick_5">
     <g id="line2d_5">
      <g>
       <use style="stroke:#000000;" x="322.87947" xlink:href="#me333f55492" y="317.572"/>
      </g>
     </g>
     <g id="text_5">
      <!-- 1000 -->
      <defs>
       <path d="M 12.40625 8.296875 
L 28.515625 8.296875 
L 28.515625 63.921875 
L 10.984375 60.40625 
L 10.984375 69.390625 
L 28.421875 72.90625 
L 38.28125 72.90625 
L 38.28125 8.296875 
L 54.390625 8.296875 
L 54.390625 0 
L 12.40625 0 
z
" id="DejaVuSans-49"/>
      </defs>
      <g transform="translate(311.68147 332.558625)scale(0.088 -0.088)">
       <use xlink:href="#DejaVuSans-49"/>
       <use x="63.623047" xlink:href="#DejaVuSans-48"/>
       <use x="127.246094" xlink:href="#DejaVuSans-48"/>
       <use x="190.869141" xlink:href="#DejaVuSans-48"/>
      </g>
     </g>
    </g>
    <g id="xtick_6">
     <g id="line2d_6">
      <g>
       <use style="stroke:#000000;" x="394.704091" xlink:href="#me333f55492" y="317.572"/>
      </g>
     </g>
     <g id="text_6">
      <!-- 1200 -->
      <g transform="translate(383.506091 332.558625)scale(0.088 -0.088)">
       <use xlink:href="#DejaVuSans-49"/>
       <use x="63.623047" xlink:href="#DejaVuSans-50"/>
       <use x="127.246094" xlink:href="#DejaVuSans-48"/>
       <use x="190.869141" xlink:href="#DejaVuSans-48"/>
      </g>
     </g>
    </g>
   </g>
   <g id="matplotlib.axis_2">
    <g id="ytick_1">
     <g id="line2d_7">
      <defs>
       <path d="M 0 0 
L -4.8 0 
" id="m22dcf3de2a" style="stroke:#000000;"/>
      </defs>
      <g>
       <use style="stroke:#000000;" x="32.708" xlink:href="#m22dcf3de2a" y="317.572"/>
      </g>
     </g>
     <g id="text_7">
      <!-- 0.0 -->
      <defs>
       <path d="M 10.6875 12.40625 
L 21 12.40625 
L 21 0 
L 10.6875 0 
z
" id="DejaVuSans-46"/>
      </defs>
      <g transform="translate(10.41325 320.915312)scale(0.088 -0.088)">
       <use xlink:href="#DejaVuSans-48"/>
       <use x="63.623047" xlink:href="#DejaVuSans-46"/>
       <use x="95.410156" xlink:href="#DejaVuSans-48"/>
      </g>
     </g>
    </g>
    <g id="ytick_2">
     <g id="line2d_8">
      <g>
       <use style="stroke:#000000;" x="32.708" xlink:href="#m22dcf3de2a" y="260.9312"/>
      </g>
     </g>
     <g id="text_8">
      <!-- 0.2 -->
      <g transform="translate(10.41325 264.274512)scale(0.088 -0.088)">
       <use xlink:href="#DejaVuSans-48"/>
       <use x="63.623047" xlink:href="#DejaVuSans-46"/>
       <use x="95.410156" xlink:href="#DejaVuSans-50"/>
      </g>
     </g>
    </g>
    <g id="ytick_3">
     <g id="line2d_9">
      <g>
       <use style="stroke:#000000;" x="32.708" xlink:href="#m22dcf3de2a" y="204.2904"/>
      </g>
     </g>
     <g id="text_9">
      <!-- 0.4 -->
      <g transform="translate(10.41325 207.633712)scale(0.088 -0.088)">
       <use xlink:href="#DejaVuSans-48"/>
       <use x="63.623047" xlink:href="#DejaVuSans-46"/>
       <use x="95.410156" xlink:href="#DejaVuSans-52"/>
      </g>
     </g>
    </g>
    <g id="ytick_4">
     <g id="line2d_10">
      <g>
       <use style="stroke:#000000;" x="32.708" xlink:href="#m22dcf3de2a" y="147.6496"/>
      </g>
     </g>
     <g id="text_10">
      <!-- 0.6 -->
      <g transform="translate(10.41325 150.992912)scale(0.088 -0.088)">
       <use xlink:href="#DejaVuSans-48"/>
       <use x="63.623047" xlink:href="#DejaVuSans-46"/>
       <use x="95.410156" xlink:href="#DejaVuSans-54"/>
      </g>
     </g>
    </g>
    <g id="ytick_5">
     <g id="line2d_11">
      <g>
       <use style="stroke:#000000;" x="32.708" xlink:href="#m22dcf3de2a" y="91.0088"/>
      </g>
     </g>
     <g id="text_11">
      <!-- 0.8 -->
      <g transform="translate(10.41325 94.352112)scale(0.088 -0.088)">
       <use xlink:href="#DejaVuSans-48"/>
       <use x="63.623047" xlink:href="#DejaVuSans-46"/>
       <use x="95.410156" xlink:href="#DejaVuSans-56"/>
      </g>
     </g>
    </g>
    <g id="ytick_6">
     <g id="line2d_12">
      <g>
       <use style="stroke:#000000;" x="32.708" xlink:href="#m22dcf3de2a" y="34.368"/>
      </g>
     </g>
     <g id="text_12">
      <!-- 1.0 -->
      <g transform="translate(10.41325 37.711312)scale(0.088 -0.088)">
       <use xlink:href="#DejaVuSans-49"/>
       <use x="63.623047" xlink:href="#DejaVuSans-46"/>
       <use x="95.410156" xlink:href="#DejaVuSans-48"/>
      </g>
     </g>
    </g>
   </g>
   <g id="patch_3">
    <path d="M 32.708 317.572 
L 32.708 34.368 
" style="fill:none;stroke:#000000;stroke-linecap:square;stroke-linejoin:miter;"/>
   </g>
   <g id="patch_4">
    <path d="M 411.942 317.572 
L 411.942 34.368 
" style="fill:none;stroke:#000000;stroke-linecap:square;stroke-linejoin:miter;"/>
   </g>
   <g id="patch_5">
    <path d="M 32.708 317.572 
L 411.942 317.572 
" style="fill:none;stroke:#000000;stroke-linecap:square;stroke-linejoin:miter;"/>
   </g>
   <g id="patch_6">
    <path d="M 32.708 34.368 
L 411.942 34.368 
" style="fill:none;stroke:#000000;stroke-linecap:square;stroke-linejoin:miter;"/>
   </g>
   <g id="text_13">
    <!-- OpenDHW (1 cat), ∆t = 60, Yearly Demand = 73000.6 L  -->
    <defs>
     <path d="M 39.40625 66.21875 
Q 28.65625 66.21875 22.328125 58.203125 
Q 16.015625 50.203125 16.015625 36.375 
Q 16.015625 22.609375 22.328125 14.59375 
Q 28.65625 6.59375 39.40625 6.59375 
Q 50.140625 6.59375 56.421875 14.59375 
Q 62.703125 22.609375 62.703125 36.375 
Q 62.703125 50.203125 56.421875 58.203125 
Q 50.140625 66.21875 39.40625 66.21875 
z
M 39.40625 74.21875 
Q 54.734375 74.21875 63.90625 63.9375 
Q 73.09375 53.65625 73.09375 36.375 
Q 73.09375 19.140625 63.90625 8.859375 
Q 54.734375 -1.421875 39.40625 -1.421875 
Q 24.03125 -1.421875 14.8125 8.828125 
Q 5.609375 19.09375 5.609375 36.375 
Q 5.609375 53.65625 14.8125 63.9375 
Q 24.03125 74.21875 39.40625 74.21875 
z
" id="DejaVuSans-79"/>
     <path d="M 18.109375 8.203125 
L 18.109375 -20.796875 
L 9.078125 -20.796875 
L 9.078125 54.6875 
L 18.109375 54.6875 
L 18.109375 46.390625 
Q 20.953125 51.265625 25.265625 53.625 
Q 29.59375 56 35.59375 56 
Q 45.5625 56 51.78125 48.09375 
Q 58.015625 40.1875 58.015625 27.296875 
Q 58.015625 14.40625 51.78125 6.484375 
Q 45.5625 -1.421875 35.59375 -1.421875 
Q 29.59375 -1.421875 25.265625 0.953125 
Q 20.953125 3.328125 18.109375 8.203125 
z
M 48.6875 27.296875 
Q 48.6875 37.203125 44.609375 42.84375 
Q 40.53125 48.484375 33.40625 48.484375 
Q 26.265625 48.484375 22.1875 42.84375 
Q 18.109375 37.203125 18.109375 27.296875 
Q 18.109375 17.390625 22.1875 11.75 
Q 26.265625 6.109375 33.40625 6.109375 
Q 40.53125 6.109375 44.609375 11.75 
Q 48.6875 17.390625 48.6875 27.296875 
z
" id="DejaVuSans-112"/>
     <path d="M 56.203125 29.59375 
L 56.203125 25.203125 
L 14.890625 25.203125 
Q 15.484375 15.921875 20.484375 11.0625 
Q 25.484375 6.203125 34.421875 6.203125 
Q 39.59375 6.203125 44.453125 7.46875 
Q 49.3125 8.734375 54.109375 11.28125 
L 54.109375 2.78125 
Q 49.265625 0.734375 44.1875 -0.34375 
Q 39.109375 -1.421875 33.890625 -1.421875 
Q 20.796875 -1.421875 13.15625 6.1875 
Q 5.515625 13.8125 5.515625 26.8125 
Q 5.515625 40.234375 12.765625 48.109375 
Q 20.015625 56 32.328125 56 
Q 43.359375 56 49.78125 48.890625 
Q 56.203125 41.796875 56.203125 29.59375 
z
M 47.21875 32.234375 
Q 47.125 39.59375 43.09375 43.984375 
Q 39.0625 48.390625 32.421875 48.390625 
Q 24.90625 48.390625 20.390625 44.140625 
Q 15.875 39.890625 15.1875 32.171875 
z
" id="DejaVuSans-101"/>
     <path d="M 54.890625 33.015625 
L 54.890625 0 
L 45.90625 0 
L 45.90625 32.71875 
Q 45.90625 40.484375 42.875 44.328125 
Q 39.84375 48.1875 33.796875 48.1875 
Q 26.515625 48.1875 22.3125 43.546875 
Q 18.109375 38.921875 18.109375 30.90625 
L 18.109375 0 
L 9.078125 0 
L 9.078125 54.6875 
L 18.109375 54.6875 
L 18.109375 46.1875 
Q 21.34375 51.125 25.703125 53.5625 
Q 30.078125 56 35.796875 56 
Q 45.21875 56 50.046875 50.171875 
Q 54.890625 44.34375 54.890625 33.015625 
z
" id="DejaVuSans-110"/>
     <path d="M 19.671875 64.796875 
L 19.671875 8.109375 
L 31.59375 8.109375 
Q 46.6875 8.109375 53.6875 14.9375 
Q 60.6875 21.78125 60.6875 36.53125 
Q 60.6875 51.171875 53.6875 57.984375 
Q 46.6875 64.796875 31.59375 64.796875 
z
M 9.8125 72.90625 
L 30.078125 72.90625 
Q 51.265625 72.90625 61.171875 64.09375 
Q 71.09375 55.28125 71.09375 36.53125 
Q 71.09375 17.671875 61.125 8.828125 
Q 51.171875 0 30.078125 0 
L 9.8125 0 
z
" id="DejaVuSans-68"/>
     <path d="M 9.8125 72.90625 
L 19.671875 72.90625 
L 19.671875 43.015625 
L 55.515625 43.015625 
L 55.515625 72.90625 
L 65.375 72.90625 
L 65.375 0 
L 55.515625 0 
L 55.515625 34.71875 
L 19.671875 34.71875 
L 19.671875 0 
L 9.8125 0 
z
" id="DejaVuSans-72"/>
     <path d="M 3.328125 72.90625 
L 13.28125 72.90625 
L 28.609375 11.28125 
L 43.890625 72.90625 
L 54.984375 72.90625 
L 70.3125 11.28125 
L 85.59375 72.90625 
L 95.609375 72.90625 
L 77.296875 0 
L 64.890625 0 
L 49.515625 63.28125 
L 33.984375 0 
L 21.578125 0 
z
" id="DejaVuSans-87"/>
     <path id="DejaVuSans-32"/>
     <path d="M 31 75.875 
Q 24.46875 64.65625 21.28125 53.65625 
Q 18.109375 42.671875 18.109375 31.390625 
Q 18.109375 20.125 21.3125 9.0625 
Q 24.515625 -2 31 -13.1875 
L 23.1875 -13.1875 
Q 15.875 -1.703125 12.234375 9.375 
Q 8.59375 20.453125 8.59375 31.390625 
Q 8.59375 42.28125 12.203125 53.3125 
Q 15.828125 64.359375 23.1875 75.875 
z
" id="DejaVuSans-40"/>
     <path d="M 48.78125 52.59375 
L 48.78125 44.1875 
Q 44.96875 46.296875 41.140625 47.34375 
Q 37.3125 48.390625 33.40625 48.390625 
Q 24.65625 48.390625 19.8125 42.84375 
Q 14.984375 37.3125 14.984375 27.296875 
Q 14.984375 17.28125 19.8125 11.734375 
Q 24.65625 6.203125 33.40625 6.203125 
Q 37.3125 6.203125 41.140625 7.25 
Q 44.96875 8.296875 48.78125 10.40625 
L 48.78125 2.09375 
Q 45.015625 0.34375 40.984375 -0.53125 
Q 36.96875 -1.421875 32.421875 -1.421875 
Q 20.0625 -1.421875 12.78125 6.34375 
Q 5.515625 14.109375 5.515625 27.296875 
Q 5.515625 40.671875 12.859375 48.328125 
Q 20.21875 56 33.015625 56 
Q 37.15625 56 41.109375 55.140625 
Q 45.0625 54.296875 48.78125 52.59375 
z
" id="DejaVuSans-99"/>
     <path d="M 34.28125 27.484375 
Q 23.390625 27.484375 19.1875 25 
Q 14.984375 22.515625 14.984375 16.5 
Q 14.984375 11.71875 18.140625 8.90625 
Q 21.296875 6.109375 26.703125 6.109375 
Q 34.1875 6.109375 38.703125 11.40625 
Q 43.21875 16.703125 43.21875 25.484375 
L 43.21875 27.484375 
z
M 52.203125 31.203125 
L 52.203125 0 
L 43.21875 0 
L 43.21875 8.296875 
Q 40.140625 3.328125 35.546875 0.953125 
Q 30.953125 -1.421875 24.3125 -1.421875 
Q 15.921875 -1.421875 10.953125 3.296875 
Q 6 8.015625 6 15.921875 
Q 6 25.140625 12.171875 29.828125 
Q 18.359375 34.515625 30.609375 34.515625 
L 43.21875 34.515625 
L 43.21875 35.40625 
Q 43.21875 41.609375 39.140625 45 
Q 35.0625 48.390625 27.6875 48.390625 
Q 23 48.390625 18.546875 47.265625 
Q 14.109375 46.140625 10.015625 43.890625 
L 10.015625 52.203125 
Q 14.9375 54.109375 19.578125 55.046875 
Q 24.21875 56 28.609375 56 
Q 40.484375 56 46.34375 49.84375 
Q 52.203125 43.703125 52.203125 31.203125 
z
" id="DejaVuSans-97"/>
     <path d="M 18.3125 70.21875 
L 18.3125 54.6875 
L 36.8125 54.6875 
L 36.8125 47.703125 
L 18.3125 47.703125 
L 18.3125 18.015625 
Q 18.3125 11.328125 20.140625 9.421875 
Q 21.96875 7.515625 27.59375 7.515625 
L 36.8125 7.515625 
L 36.8125 0 
L 27.59375 0 
Q 17.1875 0 13.234375 3.875 
Q 9.28125 7.765625 9.28125 18.015625 
L 9.28125 47.703125 
L 2.6875 47.703125 
L 2.6875 54.6875 
L 9.28125 54.6875 
L 9.28125 70.21875 
z
" id="DejaVuSans-116"/>
     <path d="M 8.015625 75.875 
L 15.828125 75.875 
Q 23.140625 64.359375 26.78125 53.3125 
Q 30.421875 42.28125 30.421875 31.390625 
Q 30.421875 20.453125 26.78125 9.375 
Q 23.140625 -1.703125 15.828125 -13.1875 
L 8.015625 -13.1875 
Q 14.5 -2 17.703125 9.0625 
Q 20.90625 20.125 20.90625 31.390625 
Q 20.90625 42.671875 17.703125 53.65625 
Q 14.5 64.65625 8.015625 75.875 
z
" id="DejaVuSans-41"/>
     <path d="M 11.71875 12.40625 
L 22.015625 12.40625 
L 22.015625 4 
L 14.015625 -11.625 
L 7.71875 -11.625 
L 11.71875 4 
z
" id="DejaVuSans-44"/>
     <path d="M 33.40625 61.625 
L 12.984375 8.6875 
L 53.8125 8.6875 
z
M 27.984375 71.921875 
L 38.921875 71.921875 
L 67.1875 0 
L -0.296875 0 
z
" id="DejaVuSans-8710"/>
     <path d="M 10.59375 45.40625 
L 73.1875 45.40625 
L 73.1875 37.203125 
L 10.59375 37.203125 
z
M 10.59375 25.484375 
L 73.1875 25.484375 
L 73.1875 17.1875 
L 10.59375 17.1875 
z
" id="DejaVuSans-61"/>
     <path d="M -0.203125 72.90625 
L 10.40625 72.90625 
L 30.609375 42.921875 
L 50.6875 72.90625 
L 61.28125 72.90625 
L 35.5 34.71875 
L 35.5 0 
L 25.59375 0 
L 25.59375 34.71875 
z
" id="DejaVuSans-89"/>
     <path d="M 41.109375 46.296875 
Q 39.59375 47.171875 37.8125 47.578125 
Q 36.03125 48 33.890625 48 
Q 26.265625 48 22.1875 43.046875 
Q 18.109375 38.09375 18.109375 28.8125 
L 18.109375 0 
L 9.078125 0 
L 9.078125 54.6875 
L 18.109375 54.6875 
L 18.109375 46.1875 
Q 20.953125 51.171875 25.484375 53.578125 
Q 30.03125 56 36.53125 56 
Q 37.453125 56 38.578125 55.875 
Q 39.703125 55.765625 41.0625 55.515625 
z
" id="DejaVuSans-114"/>
     <path d="M 9.421875 75.984375 
L 18.40625 75.984375 
L 18.40625 0 
L 9.421875 0 
z
" id="DejaVuSans-108"/>
     <path d="M 32.171875 -5.078125 
Q 28.375 -14.84375 24.75 -17.8125 
Q 21.140625 -20.796875 15.09375 -20.796875 
L 7.90625 -20.796875 
L 7.90625 -13.28125 
L 13.1875 -13.28125 
Q 16.890625 -13.28125 18.9375 -11.515625 
Q 21 -9.765625 23.484375 -3.21875 
L 25.09375 0.875 
L 2.984375 54.6875 
L 12.5 54.6875 
L 29.59375 11.921875 
L 46.6875 54.6875 
L 56.203125 54.6875 
z
" id="DejaVuSans-121"/>
     <path d="M 52 44.1875 
Q 55.375 50.25 60.0625 53.125 
Q 64.75 56 71.09375 56 
Q 79.640625 56 84.28125 50.015625 
Q 88.921875 44.046875 88.921875 33.015625 
L 88.921875 0 
L 79.890625 0 
L 79.890625 32.71875 
Q 79.890625 40.578125 77.09375 44.375 
Q 74.3125 48.1875 68.609375 48.1875 
Q 61.625 48.1875 57.5625 43.546875 
Q 53.515625 38.921875 53.515625 30.90625 
L 53.515625 0 
L 44.484375 0 
L 44.484375 32.71875 
Q 44.484375 40.625 41.703125 44.40625 
Q 38.921875 48.1875 33.109375 48.1875 
Q 26.21875 48.1875 22.15625 43.53125 
Q 18.109375 38.875 18.109375 30.90625 
L 18.109375 0 
L 9.078125 0 
L 9.078125 54.6875 
L 18.109375 54.6875 
L 18.109375 46.1875 
Q 21.1875 51.21875 25.484375 53.609375 
Q 29.78125 56 35.6875 56 
Q 41.65625 56 45.828125 52.96875 
Q 50 49.953125 52 44.1875 
z
" id="DejaVuSans-109"/>
     <path d="M 45.40625 46.390625 
L 45.40625 75.984375 
L 54.390625 75.984375 
L 54.390625 0 
L 45.40625 0 
L 45.40625 8.203125 
Q 42.578125 3.328125 38.25 0.953125 
Q 33.9375 -1.421875 27.875 -1.421875 
Q 17.96875 -1.421875 11.734375 6.484375 
Q 5.515625 14.40625 5.515625 27.296875 
Q 5.515625 40.1875 11.734375 48.09375 
Q 17.96875 56 27.875 56 
Q 33.9375 56 38.25 53.625 
Q 42.578125 51.265625 45.40625 46.390625 
z
M 14.796875 27.296875 
Q 14.796875 17.390625 18.875 11.75 
Q 22.953125 6.109375 30.078125 6.109375 
Q 37.203125 6.109375 41.296875 11.75 
Q 45.40625 17.390625 45.40625 27.296875 
Q 45.40625 37.203125 41.296875 42.84375 
Q 37.203125 48.484375 30.078125 48.484375 
Q 22.953125 48.484375 18.875 42.84375 
Q 14.796875 37.203125 14.796875 27.296875 
z
" id="DejaVuSans-100"/>
     <path d="M 8.203125 72.90625 
L 55.078125 72.90625 
L 55.078125 68.703125 
L 28.609375 0 
L 18.3125 0 
L 43.21875 64.59375 
L 8.203125 64.59375 
z
" id="DejaVuSans-55"/>
     <path d="M 40.578125 39.3125 
Q 47.65625 37.796875 51.625 33 
Q 55.609375 28.21875 55.609375 21.1875 
Q 55.609375 10.40625 48.1875 4.484375 
Q 40.765625 -1.421875 27.09375 -1.421875 
Q 22.515625 -1.421875 17.65625 -0.515625 
Q 12.796875 0.390625 7.625 2.203125 
L 7.625 11.71875 
Q 11.71875 9.328125 16.59375 8.109375 
Q 21.484375 6.890625 26.8125 6.890625 
Q 36.078125 6.890625 40.9375 10.546875 
Q 45.796875 14.203125 45.796875 21.1875 
Q 45.796875 27.640625 41.28125 31.265625 
Q 36.765625 34.90625 28.71875 34.90625 
L 20.21875 34.90625 
L 20.21875 43.015625 
L 29.109375 43.015625 
Q 36.375 43.015625 40.234375 45.921875 
Q 44.09375 48.828125 44.09375 54.296875 
Q 44.09375 59.90625 40.109375 62.90625 
Q 36.140625 65.921875 28.71875 65.921875 
Q 24.65625 65.921875 20.015625 65.03125 
Q 15.375 64.15625 9.8125 62.3125 
L 9.8125 71.09375 
Q 15.4375 72.65625 20.34375 73.4375 
Q 25.25 74.21875 29.59375 74.21875 
Q 40.828125 74.21875 47.359375 69.109375 
Q 53.90625 64.015625 53.90625 55.328125 
Q 53.90625 49.265625 50.4375 45.09375 
Q 46.96875 40.921875 40.578125 39.3125 
z
" id="DejaVuSans-51"/>
     <path d="M 9.8125 72.90625 
L 19.671875 72.90625 
L 19.671875 8.296875 
L 55.171875 8.296875 
L 55.171875 0 
L 9.8125 0 
z
" id="DejaVuSans-76"/>
    </defs>
    <g transform="translate(86.89525 17.6181)scale(0.096 -0.096)">
     <use xlink:href="#DejaVuSans-79"/>
     <use x="78.710938" xlink:href="#DejaVuSans-112"/>
     <use x="142.1875" xlink:href="#DejaVuSans-101"/>
     <use x="203.710938" xlink:href="#DejaVuSans-110"/>
     <use x="267.089844" xlink:href="#DejaVuSans-68"/>
     <use x="344.091797" xlink:href="#DejaVuSans-72"/>
     <use x="419.287109" xlink:href="#DejaVuSans-87"/>
     <use x="518.164062" xlink:href="#DejaVuSans-32"/>
     <use x="549.951172" xlink:href="#DejaVuSans-40"/>
     <use x="588.964844" xlink:href="#DejaVuSans-49"/>
     <use x="652.587891" xlink:href="#DejaVuSans-32"/>
     <use x="684.375" xlink:href="#DejaVuSans-99"/>
     <use x="739.355469" xlink:href="#DejaVuSans-97"/>
     <use x="800.634766" xlink:href="#DejaVuSans-116"/>
     <use x="839.84375" xlink:href="#DejaVuSans-41"/>
     <use x="878.857422" xlink:href="#DejaVuSans-44"/>
     <use x="910.644531" xlink:href="#DejaVuSans-32"/>
     <use x="942.431641" xlink:href="#DejaVuSans-8710"/>
     <use x="1009.326172" xlink:href="#DejaVuSans-116"/>
     <use x="1048.535156" xlink:href="#DejaVuSans-32"/>
     <use x="1080.322266" xlink:href="#DejaVuSans-61"/>
     <use x="1164.111328" xlink:href="#DejaVuSans-32"/>
     <use x="1195.898438" xlink:href="#DejaVuSans-54"/>
     <use x="1259.521484" xlink:href="#DejaVuSans-48"/>
     <use x="1323.144531" xlink:href="#DejaVuSans-44"/>
     <use x="1354.931641" xlink:href="#DejaVuSans-32"/>
     <use x="1386.71875" xlink:href="#DejaVuSans-89"/>
     <use x="1434.552734" xlink:href="#DejaVuSans-101"/>
     <use x="1496.076172" xlink:href="#DejaVuSans-97"/>
     <use x="1557.355469" xlink:href="#DejaVuSans-114"/>
     <use x="1598.46875" xlink:href="#DejaVuSans-108"/>
     <use x="1626.251953" xlink:href="#DejaVuSans-121"/>
     <use x="1685.431641" xlink:href="#DejaVuSans-32"/>
     <use x="1717.21875" xlink:href="#DejaVuSans-68"/>
     <use x="1794.220703" xlink:href="#DejaVuSans-101"/>
     <use x="1855.744141" xlink:href="#DejaVuSans-109"/>
     <use x="1953.15625" xlink:href="#DejaVuSans-97"/>
     <use x="2014.435547" xlink:href="#DejaVuSans-110"/>
     <use x="2077.814453" xlink:href="#DejaVuSans-100"/>
     <use x="2141.291016" xlink:href="#DejaVuSans-32"/>
     <use x="2173.078125" xlink:href="#DejaVuSans-61"/>
     <use x="2256.867188" xlink:href="#DejaVuSans-32"/>
     <use x="2288.654297" xlink:href="#DejaVuSans-55"/>
     <use x="2352.277344" xlink:href="#DejaVuSans-51"/>
     <use x="2415.900391" xlink:href="#DejaVuSans-48"/>
     <use x="2479.523438" xlink:href="#DejaVuSans-48"/>
     <use x="2543.146484" xlink:href="#DejaVuSans-48"/>
     <use x="2606.769531" xlink:href="#DejaVuSans-46"/>
     <use x="2638.556641" xlink:href="#DejaVuSans-54"/>
     <use x="2702.179688" xlink:href="#DejaVuSans-32"/>
     <use x="2733.966797" xlink:href="#DejaVuSans-76"/>
     <use x="2789.679688" xlink:href="#DejaVuSans-32"/>
    </g>
    <!-- No. Drawoffs = 8912, Peak = 1200.0 L/h, Mean = 491.5 L/h, SdtDev = 125.6 L/h -->
    <defs>
     <path d="M 9.8125 72.90625 
L 23.09375 72.90625 
L 55.421875 11.921875 
L 55.421875 72.90625 
L 64.984375 72.90625 
L 64.984375 0 
L 51.703125 0 
L 19.390625 60.984375 
L 19.390625 0 
L 9.8125 0 
z
" id="DejaVuSans-78"/>
     <path d="M 30.609375 48.390625 
Q 23.390625 48.390625 19.1875 42.75 
Q 14.984375 37.109375 14.984375 27.296875 
Q 14.984375 17.484375 19.15625 11.84375 
Q 23.34375 6.203125 30.609375 6.203125 
Q 37.796875 6.203125 41.984375 11.859375 
Q 46.1875 17.53125 46.1875 27.296875 
Q 46.1875 37.015625 41.984375 42.703125 
Q 37.796875 48.390625 30.609375 48.390625 
z
M 30.609375 56 
Q 42.328125 56 49.015625 48.375 
Q 55.71875 40.765625 55.71875 27.296875 
Q 55.71875 13.875 49.015625 6.21875 
Q 42.328125 -1.421875 30.609375 -1.421875 
Q 18.84375 -1.421875 12.171875 6.21875 
Q 5.515625 13.875 5.515625 27.296875 
Q 5.515625 40.765625 12.171875 48.375 
Q 18.84375 56 30.609375 56 
z
" id="DejaVuSans-111"/>
     <path d="M 4.203125 54.6875 
L 13.1875 54.6875 
L 24.421875 12.015625 
L 35.59375 54.6875 
L 46.1875 54.6875 
L 57.421875 12.015625 
L 68.609375 54.6875 
L 77.59375 54.6875 
L 63.28125 0 
L 52.6875 0 
L 40.921875 44.828125 
L 29.109375 0 
L 18.5 0 
z
" id="DejaVuSans-119"/>
     <path d="M 37.109375 75.984375 
L 37.109375 68.5 
L 28.515625 68.5 
Q 23.6875 68.5 21.796875 66.546875 
Q 19.921875 64.59375 19.921875 59.515625 
L 19.921875 54.6875 
L 34.71875 54.6875 
L 34.71875 47.703125 
L 19.921875 47.703125 
L 19.921875 0 
L 10.890625 0 
L 10.890625 47.703125 
L 2.296875 47.703125 
L 2.296875 54.6875 
L 10.890625 54.6875 
L 10.890625 58.5 
Q 10.890625 67.625 15.140625 71.796875 
Q 19.390625 75.984375 28.609375 75.984375 
z
" id="DejaVuSans-102"/>
     <path d="M 44.28125 53.078125 
L 44.28125 44.578125 
Q 40.484375 46.53125 36.375 47.5 
Q 32.28125 48.484375 27.875 48.484375 
Q 21.1875 48.484375 17.84375 46.4375 
Q 14.5 44.390625 14.5 40.28125 
Q 14.5 37.15625 16.890625 35.375 
Q 19.28125 33.59375 26.515625 31.984375 
L 29.59375 31.296875 
Q 39.15625 29.25 43.1875 25.515625 
Q 47.21875 21.78125 47.21875 15.09375 
Q 47.21875 7.46875 41.1875 3.015625 
Q 35.15625 -1.421875 24.609375 -1.421875 
Q 20.21875 -1.421875 15.453125 -0.5625 
Q 10.6875 0.296875 5.421875 2 
L 5.421875 11.28125 
Q 10.40625 8.6875 15.234375 7.390625 
Q 20.0625 6.109375 24.8125 6.109375 
Q 31.15625 6.109375 34.5625 8.28125 
Q 37.984375 10.453125 37.984375 14.40625 
Q 37.984375 18.0625 35.515625 20.015625 
Q 33.0625 21.96875 24.703125 23.78125 
L 21.578125 24.515625 
Q 13.234375 26.265625 9.515625 29.90625 
Q 5.8125 33.546875 5.8125 39.890625 
Q 5.8125 47.609375 11.28125 51.796875 
Q 16.75 56 26.8125 56 
Q 31.78125 56 36.171875 55.265625 
Q 40.578125 54.546875 44.28125 53.078125 
z
" id="DejaVuSans-115"/>
     <path d="M 10.984375 1.515625 
L 10.984375 10.5 
Q 14.703125 8.734375 18.5 7.8125 
Q 22.3125 6.890625 25.984375 6.890625 
Q 35.75 6.890625 40.890625 13.453125 
Q 46.046875 20.015625 46.78125 33.40625 
Q 43.953125 29.203125 39.59375 26.953125 
Q 35.25 24.703125 29.984375 24.703125 
Q 19.046875 24.703125 12.671875 31.3125 
Q 6.296875 37.9375 6.296875 49.421875 
Q 6.296875 60.640625 12.9375 67.421875 
Q 19.578125 74.21875 30.609375 74.21875 
Q 43.265625 74.21875 49.921875 64.515625 
Q 56.59375 54.828125 56.59375 36.375 
Q 56.59375 19.140625 48.40625 8.859375 
Q 40.234375 -1.421875 26.421875 -1.421875 
Q 22.703125 -1.421875 18.890625 -0.6875 
Q 15.09375 0.046875 10.984375 1.515625 
z
M 30.609375 32.421875 
Q 37.25 32.421875 41.125 36.953125 
Q 45.015625 41.5 45.015625 49.421875 
Q 45.015625 57.28125 41.125 61.84375 
Q 37.25 66.40625 30.609375 66.40625 
Q 23.96875 66.40625 20.09375 61.84375 
Q 16.21875 57.28125 16.21875 49.421875 
Q 16.21875 41.5 20.09375 36.953125 
Q 23.96875 32.421875 30.609375 32.421875 
z
" id="DejaVuSans-57"/>
     <path d="M 19.671875 64.796875 
L 19.671875 37.40625 
L 32.078125 37.40625 
Q 38.96875 37.40625 42.71875 40.96875 
Q 46.484375 44.53125 46.484375 51.125 
Q 46.484375 57.671875 42.71875 61.234375 
Q 38.96875 64.796875 32.078125 64.796875 
z
M 9.8125 72.90625 
L 32.078125 72.90625 
Q 44.34375 72.90625 50.609375 67.359375 
Q 56.890625 61.8125 56.890625 51.125 
Q 56.890625 40.328125 50.609375 34.8125 
Q 44.34375 29.296875 32.078125 29.296875 
L 19.671875 29.296875 
L 19.671875 0 
L 9.8125 0 
z
" id="DejaVuSans-80"/>
     <path d="M 9.078125 75.984375 
L 18.109375 75.984375 
L 18.109375 31.109375 
L 44.921875 54.6875 
L 56.390625 54.6875 
L 27.390625 29.109375 
L 57.625 0 
L 45.90625 0 
L 18.109375 26.703125 
L 18.109375 0 
L 9.078125 0 
z
" id="DejaVuSans-107"/>
     <path d="M 25.390625 72.90625 
L 33.6875 72.90625 
L 8.296875 -9.28125 
L 0 -9.28125 
z
" id="DejaVuSans-47"/>
     <path d="M 54.890625 33.015625 
L 54.890625 0 
L 45.90625 0 
L 45.90625 32.71875 
Q 45.90625 40.484375 42.875 44.328125 
Q 39.84375 48.1875 33.796875 48.1875 
Q 26.515625 48.1875 22.3125 43.546875 
Q 18.109375 38.921875 18.109375 30.90625 
L 18.109375 0 
L 9.078125 0 
L 9.078125 75.984375 
L 18.109375 75.984375 
L 18.109375 46.1875 
Q 21.34375 51.125 25.703125 53.5625 
Q 30.078125 56 35.796875 56 
Q 45.21875 56 50.046875 50.171875 
Q 54.890625 44.34375 54.890625 33.015625 
z
" id="DejaVuSans-104"/>
     <path d="M 9.8125 72.90625 
L 24.515625 72.90625 
L 43.109375 23.296875 
L 61.8125 72.90625 
L 76.515625 72.90625 
L 76.515625 0 
L 66.890625 0 
L 66.890625 64.015625 
L 48.09375 14.015625 
L 38.1875 14.015625 
L 19.390625 64.015625 
L 19.390625 0 
L 9.8125 0 
z
" id="DejaVuSans-77"/>
     <path d="M 10.796875 72.90625 
L 49.515625 72.90625 
L 49.515625 64.59375 
L 19.828125 64.59375 
L 19.828125 46.734375 
Q 21.96875 47.46875 24.109375 47.828125 
Q 26.265625 48.1875 28.421875 48.1875 
Q 40.625 48.1875 47.75 41.5 
Q 54.890625 34.8125 54.890625 23.390625 
Q 54.890625 11.625 47.5625 5.09375 
Q 40.234375 -1.421875 26.90625 -1.421875 
Q 22.3125 -1.421875 17.546875 -0.640625 
Q 12.796875 0.140625 7.71875 1.703125 
L 7.71875 11.625 
Q 12.109375 9.234375 16.796875 8.0625 
Q 21.484375 6.890625 26.703125 6.890625 
Q 35.15625 6.890625 40.078125 11.328125 
Q 45.015625 15.765625 45.015625 23.390625 
Q 45.015625 31 40.078125 35.4375 
Q 35.15625 39.890625 26.703125 39.890625 
Q 22.75 39.890625 18.8125 39.015625 
Q 14.890625 38.140625 10.796875 36.28125 
z
" id="DejaVuSans-53"/>
     <path d="M 53.515625 70.515625 
L 53.515625 60.890625 
Q 47.90625 63.578125 42.921875 64.890625 
Q 37.9375 66.21875 33.296875 66.21875 
Q 25.25 66.21875 20.875 63.09375 
Q 16.5 59.96875 16.5 54.203125 
Q 16.5 49.359375 19.40625 46.890625 
Q 22.3125 44.4375 30.421875 42.921875 
L 36.375 41.703125 
Q 47.40625 39.59375 52.65625 34.296875 
Q 57.90625 29 57.90625 20.125 
Q 57.90625 9.515625 50.796875 4.046875 
Q 43.703125 -1.421875 29.984375 -1.421875 
Q 24.8125 -1.421875 18.96875 -0.25 
Q 13.140625 0.921875 6.890625 3.21875 
L 6.890625 13.375 
Q 12.890625 10.015625 18.65625 8.296875 
Q 24.421875 6.59375 29.984375 6.59375 
Q 38.421875 6.59375 43.015625 9.90625 
Q 47.609375 13.234375 47.609375 19.390625 
Q 47.609375 24.75 44.3125 27.78125 
Q 41.015625 30.8125 33.5 32.328125 
L 27.484375 33.5 
Q 16.453125 35.6875 11.515625 40.375 
Q 6.59375 45.0625 6.59375 53.421875 
Q 6.59375 63.09375 13.40625 68.65625 
Q 20.21875 74.21875 32.171875 74.21875 
Q 37.3125 74.21875 42.625 73.28125 
Q 47.953125 72.359375 53.515625 70.515625 
z
" id="DejaVuSans-83"/>
     <path d="M 2.984375 54.6875 
L 12.5 54.6875 
L 29.59375 8.796875 
L 46.6875 54.6875 
L 56.203125 54.6875 
L 35.6875 0 
L 23.484375 0 
z
" id="DejaVuSans-118"/>
    </defs>
    <g transform="translate(29.01925 28.368)scale(0.096 -0.096)">
     <use xlink:href="#DejaVuSans-78"/>
     <use x="74.804688" xlink:href="#DejaVuSans-111"/>
     <use x="134.236328" xlink:href="#DejaVuSans-46"/>
     <use x="166.023438" xlink:href="#DejaVuSans-32"/>
     <use x="197.810547" xlink:href="#DejaVuSans-68"/>
     <use x="274.8125" xlink:href="#DejaVuSans-114"/>
     <use x="315.925781" xlink:href="#DejaVuSans-97"/>
     <use x="377.205078" xlink:href="#DejaVuSans-119"/>
     <use x="458.992188" xlink:href="#DejaVuSans-111"/>
     <use x="520.173828" xlink:href="#DejaVuSans-102"/>
     <use x="555.378906" xlink:href="#DejaVuSans-102"/>
     <use x="590.583984" xlink:href="#DejaVuSans-115"/>
     <use x="642.683594" xlink:href="#DejaVuSans-32"/>
     <use x="674.470703" xlink:href="#DejaVuSans-61"/>
     <use x="758.259766" xlink:href="#DejaVuSans-32"/>
     <use x="790.046875" xlink:href="#DejaVuSans-56"/>
     <use x="853.669922" xlink:href="#DejaVuSans-57"/>
     <use x="917.292969" xlink:href="#DejaVuSans-49"/>
     <use x="980.916016" xlink:href="#DejaVuSans-50"/>
     <use x="1044.539062" xlink:href="#DejaVuSans-44"/>
     <use x="1076.326172" xlink:href="#DejaVuSans-32"/>
     <use x="1108.113281" xlink:href="#DejaVuSans-80"/>
     <use x="1164.791016" xlink:href="#DejaVuSans-101"/>
     <use x="1226.314453" xlink:href="#DejaVuSans-97"/>
     <use x="1287.59375" xlink:href="#DejaVuSans-107"/>
     <use x="1345.503906" xlink:href="#DejaVuSans-32"/>
     <use x="1377.291016" xlink:href="#DejaVuSans-61"/>
     <use x="1461.080078" xlink:href="#DejaVuSans-32"/>
     <use x="1492.867188" xlink:href="#DejaVuSans-49"/>
     <use x="1556.490234" xlink:href="#DejaVuSans-50"/>
     <use x="1620.113281" xlink:href="#DejaVuSans-48"/>
     <use x="1683.736328" xlink:href="#DejaVuSans-48"/>
     <use x="1747.359375" xlink:href="#DejaVuSans-46"/>
     <use x="1779.146484" xlink:href="#DejaVuSans-48"/>
     <use x="1842.769531" xlink:href="#DejaVuSans-32"/>
     <use x="1874.556641" xlink:href="#DejaVuSans-76"/>
     <use x="1930.269531" xlink:href="#DejaVuSans-47"/>
     <use x="1963.960938" xlink:href="#DejaVuSans-104"/>
     <use x="2027.339844" xlink:href="#DejaVuSans-44"/>
     <use x="2059.126953" xlink:href="#DejaVuSans-32"/>
     <use x="2090.914062" xlink:href="#DejaVuSans-77"/>
     <use x="2177.193359" xlink:href="#DejaVuSans-101"/>
     <use x="2238.716797" xlink:href="#DejaVuSans-97"/>
     <use x="2299.996094" xlink:href="#DejaVuSans-110"/>
     <use x="2363.375" xlink:href="#DejaVuSans-32"/>
     <use x="2395.162109" xlink:href="#DejaVuSans-61"/>
     <use x="2478.951172" xlink:href="#DejaVuSans-32"/>
     <use x="2510.738281" xlink:href="#DejaVuSans-52"/>
     <use x="2574.361328" xlink:href="#DejaVuSans-57"/>
     <use x="2637.984375" xlink:href="#DejaVuSans-49"/>
     <use x="2701.607422" xlink:href="#DejaVuSans-46"/>
     <use x="2733.394531" xlink:href="#DejaVuSans-53"/>
     <use x="2797.017578" xlink:href="#DejaVuSans-32"/>
     <use x="2828.804688" xlink:href="#DejaVuSans-76"/>
     <use x="2884.517578" xlink:href="#DejaVuSans-47"/>
     <use x="2918.208984" xlink:href="#DejaVuSans-104"/>
     <use x="2981.587891" xlink:href="#DejaVuSans-44"/>
     <use x="3013.375" xlink:href="#DejaVuSans-32"/>
     <use x="3045.162109" xlink:href="#DejaVuSans-83"/>
     <use x="3108.638672" xlink:href="#DejaVuSans-100"/>
     <use x="3172.115234" xlink:href="#DejaVuSans-116"/>
     <use x="3211.324219" xlink:href="#DejaVuSans-68"/>
     <use x="3288.326172" xlink:href="#DejaVuSans-101"/>
     <use x="3349.849609" xlink:href="#DejaVuSans-118"/>
     <use x="3409.029297" xlink:href="#DejaVuSans-32"/>
     <use x="3440.816406" xlink:href="#DejaVuSans-61"/>
     <use x="3524.605469" xlink:href="#DejaVuSans-32"/>
     <use x="3556.392578" xlink:href="#DejaVuSans-49"/>
     <use x="3620.015625" xlink:href="#DejaVuSans-50"/>
     <use x="3683.638672" xlink:href="#DejaVuSans-53"/>
     <use x="3747.261719" xlink:href="#DejaVuSans-46"/>
     <use x="3779.048828" xlink:href="#DejaVuSans-54"/>
     <use x="3842.671875" xlink:href="#DejaVuSans-32"/>
     <use x="3874.458984" xlink:href="#DejaVuSans-76"/>
     <use x="3930.171875" xlink:href="#DejaVuSans-47"/>
     <use x="3963.863281" xlink:href="#DejaVuSans-104"/>
    </g>
   </g>
  </g>
  <g id="axes_2">
   <g id="patch_7">
    <path clip-path="url(#p88a106a1da)" d="M 49.945909 317.572 
L 55.332756 317.572 
L 55.332756 288.973006 
L 49.945909 288.973006 
z
" style="fill:#1f77b4;fill-opacity:0.5;stroke:#000000;stroke-linejoin:miter;stroke-width:0.507273;"/>
   </g>
   <g id="patch_8">
    <path clip-path="url(#p88a106a1da)" d="M 55.332756 317.572 
L 60.719602 317.572 
L 60.719602 285.521404 
L 55.332756 285.521404 
z
" style="fill:#1f77b4;fill-opacity:0.5;stroke:#000000;stroke-linejoin:miter;stroke-width:0.507273;"/>
   </g>
   <g id="patch_9">
    <path clip-path="url(#p88a106a1da)" d="M 60.719602 317.572 
L 66.106449 317.572 
L 66.106449 261.360185 
L 60.719602 261.360185 
z
" style="fill:#1f77b4;fill-opacity:0.5;stroke:#000000;stroke-linejoin:miter;stroke-width:0.507273;"/>
   </g>
   <g id="patch_10">
    <path clip-path="url(#p88a106a1da)" d="M 66.106449 317.572 
L 71.493295 317.572 
L 71.493295 271.221907 
L 66.106449 271.221907 
z
" style="fill:#1f77b4;fill-opacity:0.5;stroke:#000000;stroke-linejoin:miter;stroke-width:0.507273;"/>
   </g>
   <g id="patch_11">
    <path clip-path="url(#p88a106a1da)" d="M 71.493295 317.572 
L 76.880142 317.572 
L 76.880142 219.940953 
L 71.493295 219.940953 
z
" style="fill:#1f77b4;fill-opacity:0.5;stroke:#000000;stroke-linejoin:miter;stroke-width:0.507273;"/>
   </g>
   <g id="patch_12">
    <path clip-path="url(#p88a106a1da)" d="M 76.880142 317.572 
L 82.266989 317.572 
L 82.266989 231.281933 
L 76.880142 231.281933 
z
" style="fill:#1f77b4;fill-opacity:0.5;stroke:#000000;stroke-linejoin:miter;stroke-width:0.507273;"/>
   </g>
   <g id="patch_13">
    <path clip-path="url(#p88a106a1da)" d="M 82.266989 317.572 
L 87.653835 317.572 
L 87.653835 198.738251 
L 82.266989 198.738251 
z
" style="fill:#1f77b4;fill-opacity:0.5;stroke:#000000;stroke-linejoin:miter;stroke-width:0.507273;"/>
   </g>
   <g id="patch_14">
    <path clip-path="url(#p88a106a1da)" d="M 87.653835 317.572 
L 93.040682 317.572 
L 93.040682 225.3649 
L 87.653835 225.3649 
z
" style="fill:#1f77b4;fill-opacity:0.5;stroke:#000000;stroke-linejoin:miter;stroke-width:0.507273;"/>
   </g>
   <g id="patch_15">
    <path clip-path="url(#p88a106a1da)" d="M 93.040682 317.572 
L 98.427528 317.572 
L 98.427528 149.429641 
L 93.040682 149.429641 
z
" style="fill:#1f77b4;fill-opacity:0.5;stroke:#000000;stroke-linejoin:miter;stroke-width:0.507273;"/>
   </g>
   <g id="patch_16">
    <path clip-path="url(#p88a106a1da)" d="M 98.427528 317.572 
L 103.814375 317.572 
L 103.814375 192.328131 
L 98.427528 192.328131 
z
" style="fill:#1f77b4;fill-opacity:0.5;stroke:#000000;stroke-linejoin:miter;stroke-width:0.507273;"/>
   </g>
   <g id="patch_17">
    <path clip-path="url(#p88a106a1da)" d="M 103.814375 317.572 
L 109.201222 317.572 
L 109.201222 103.572634 
L 103.814375 103.572634 
z
" style="fill:#1f77b4;fill-opacity:0.5;stroke:#000000;stroke-linejoin:miter;stroke-width:0.507273;"/>
   </g>
   <g id="patch_18">
    <path clip-path="url(#p88a106a1da)" d="M 109.201222 317.572 
L 114.588068 317.572 
L 114.588068 154.853588 
L 109.201222 154.853588 
z
" style="fill:#1f77b4;fill-opacity:0.5;stroke:#000000;stroke-linejoin:miter;stroke-width:0.507273;"/>
   </g>
   <g id="patch_19">
    <path clip-path="url(#p88a106a1da)" d="M 114.588068 317.572 
L 119.974915 317.572 
L 119.974915 66.591176 
L 114.588068 66.591176 
z
" style="fill:#1f77b4;fill-opacity:0.5;stroke:#000000;stroke-linejoin:miter;stroke-width:0.507273;"/>
   </g>
   <g id="patch_20">
    <path clip-path="url(#p88a106a1da)" d="M 119.974915 317.572 
L 125.361761 317.572 
L 125.361761 158.305191 
L 119.974915 158.305191 
z
" style="fill:#1f77b4;fill-opacity:0.5;stroke:#000000;stroke-linejoin:miter;stroke-width:0.507273;"/>
   </g>
   <g id="patch_21">
    <path clip-path="url(#p88a106a1da)" d="M 125.361761 317.572 
L 130.748608 317.572 
L 130.748608 47.853905 
L 125.361761 47.853905 
z
" style="fill:#1f77b4;fill-opacity:0.5;stroke:#000000;stroke-linejoin:miter;stroke-width:0.507273;"/>
   </g>
   <g id="patch_22">
    <path clip-path="url(#p88a106a1da)" d="M 130.748608 317.572 
L 136.135455 317.572 
L 136.135455 133.650886 
L 130.748608 133.650886 
z
" style="fill:#1f77b4;fill-opacity:0.5;stroke:#000000;stroke-linejoin:miter;stroke-width:0.507273;"/>
   </g>
   <g id="patch_23">
    <path clip-path="url(#p88a106a1da)" d="M 136.135455 317.572 
L 141.522301 317.572 
L 141.522301 65.605004 
L 136.135455 65.605004 
z
" style="fill:#1f77b4;fill-opacity:0.5;stroke:#000000;stroke-linejoin:miter;stroke-width:0.507273;"/>
   </g>
   <g id="patch_24">
    <path clip-path="url(#p88a106a1da)" d="M 141.522301 317.572 
L 146.909148 317.572 
L 146.909148 126.74768 
L 141.522301 126.74768 
z
" style="fill:#1f77b4;fill-opacity:0.5;stroke:#000000;stroke-linejoin:miter;stroke-width:0.507273;"/>
   </g>
   <g id="patch_25">
    <path clip-path="url(#p88a106a1da)" d="M 146.909148 317.572 
L 152.295994 317.572 
L 152.295994 53.277852 
L 146.909148 53.277852 
z
" style="fill:#1f77b4;fill-opacity:0.5;stroke:#000000;stroke-linejoin:miter;stroke-width:0.507273;"/>
   </g>
   <g id="patch_26">
    <path clip-path="url(#p88a106a1da)" d="M 152.295994 317.572 
L 157.682841 317.572 
L 157.682841 150.908899 
L 152.295994 150.908899 
z
" style="fill:#1f77b4;fill-opacity:0.5;stroke:#000000;stroke-linejoin:miter;stroke-width:0.507273;"/>
   </g>
   <g id="patch_27">
    <path clip-path="url(#p88a106a1da)" d="M 157.682841 317.572 
L 163.069688 317.572 
L 163.069688 85.821534 
L 157.682841 85.821534 
z
" style="fill:#1f77b4;fill-opacity:0.5;stroke:#000000;stroke-linejoin:miter;stroke-width:0.507273;"/>
   </g>
   <g id="patch_28">
    <path clip-path="url(#p88a106a1da)" d="M 163.069688 317.572 
L 168.456534 317.572 
L 168.456534 165.701482 
L 163.069688 165.701482 
z
" style="fill:#1f77b4;fill-opacity:0.5;stroke:#000000;stroke-linejoin:miter;stroke-width:0.507273;"/>
   </g>
   <g id="patch_29">
    <path clip-path="url(#p88a106a1da)" d="M 168.456534 317.572 
L 173.843381 317.572 
L 173.843381 132.171627 
L 168.456534 132.171627 
z
" style="fill:#1f77b4;fill-opacity:0.5;stroke:#000000;stroke-linejoin:miter;stroke-width:0.507273;"/>
   </g>
   <g id="patch_30">
    <path clip-path="url(#p88a106a1da)" d="M 173.843381 317.572 
L 179.230227 317.572 
L 179.230227 200.710595 
L 173.843381 200.710595 
z
" style="fill:#1f77b4;fill-opacity:0.5;stroke:#000000;stroke-linejoin:miter;stroke-width:0.507273;"/>
   </g>
   <g id="patch_31">
    <path clip-path="url(#p88a106a1da)" d="M 179.230227 317.572 
L 184.617074 317.572 
L 184.617074 154.360502 
L 179.230227 154.360502 
z
" style="fill:#1f77b4;fill-opacity:0.5;stroke:#000000;stroke-linejoin:miter;stroke-width:0.507273;"/>
   </g>
   <g id="patch_32">
    <path clip-path="url(#p88a106a1da)" d="M 184.617074 317.572 
L 190.00392 317.572 
L 190.00392 228.816502 
L 184.617074 228.816502 
z
" style="fill:#1f77b4;fill-opacity:0.5;stroke:#000000;stroke-linejoin:miter;stroke-width:0.507273;"/>
   </g>
   <g id="patch_33">
    <path clip-path="url(#p88a106a1da)" d="M 190.00392 317.572 
L 195.390767 317.572 
L 195.390767 193.314303 
L 190.00392 193.314303 
z
" style="fill:#1f77b4;fill-opacity:0.5;stroke:#000000;stroke-linejoin:miter;stroke-width:0.507273;"/>
   </g>
   <g id="patch_34">
    <path clip-path="url(#p88a106a1da)" d="M 195.390767 317.572 
L 200.777614 317.572 
L 200.777614 262.839443 
L 195.390767 262.839443 
z
" style="fill:#1f77b4;fill-opacity:0.5;stroke:#000000;stroke-linejoin:miter;stroke-width:0.507273;"/>
   </g>
   <g id="patch_35">
    <path clip-path="url(#p88a106a1da)" d="M 200.777614 317.572 
L 206.16446 317.572 
L 206.16446 235.719708 
L 200.777614 235.719708 
z
" style="fill:#1f77b4;fill-opacity:0.5;stroke:#000000;stroke-linejoin:miter;stroke-width:0.507273;"/>
   </g>
   <g id="patch_36">
    <path clip-path="url(#p88a106a1da)" d="M 206.16446 317.572 
L 211.551307 317.572 
L 211.551307 269.742649 
L 206.16446 269.742649 
z
" style="fill:#1f77b4;fill-opacity:0.5;stroke:#000000;stroke-linejoin:miter;stroke-width:0.507273;"/>
   </g>
   <g id="patch_37">
    <path clip-path="url(#p88a106a1da)" d="M 211.551307 317.572 
L 216.938153 317.572 
L 216.938153 266.784132 
L 211.551307 266.784132 
z
" style="fill:#1f77b4;fill-opacity:0.5;stroke:#000000;stroke-linejoin:miter;stroke-width:0.507273;"/>
   </g>
   <g id="patch_38">
    <path clip-path="url(#p88a106a1da)" d="M 216.938153 317.572 
L 222.325 317.572 
L 222.325 283.549059 
L 216.938153 283.549059 
z
" style="fill:#1f77b4;fill-opacity:0.5;stroke:#000000;stroke-linejoin:miter;stroke-width:0.507273;"/>
   </g>
   <g id="patch_39">
    <path clip-path="url(#p88a106a1da)" d="M 222.325 317.572 
L 227.711847 317.572 
L 227.711847 307.710278 
L 222.325 307.710278 
z
" style="fill:#1f77b4;fill-opacity:0.5;stroke:#000000;stroke-linejoin:miter;stroke-width:0.507273;"/>
   </g>
   <g id="patch_40">
    <path clip-path="url(#p88a106a1da)" d="M 227.711847 317.572 
L 233.098693 317.572 
L 233.098693 315.599656 
L 227.711847 315.599656 
z
" style="fill:#1f77b4;fill-opacity:0.5;stroke:#000000;stroke-linejoin:miter;stroke-width:0.507273;"/>
   </g>
   <g id="patch_41">
    <path clip-path="url(#p88a106a1da)" d="M 233.098693 317.572 
L 238.48554 317.572 
L 238.48554 317.078914 
L 233.098693 317.078914 
z
" style="fill:#1f77b4;fill-opacity:0.5;stroke:#000000;stroke-linejoin:miter;stroke-width:0.507273;"/>
   </g>
   <g id="patch_42">
    <path clip-path="url(#p88a106a1da)" d="M 238.48554 317.572 
L 243.872386 317.572 
L 243.872386 315.599656 
L 238.48554 315.599656 
z
" style="fill:#1f77b4;fill-opacity:0.5;stroke:#000000;stroke-linejoin:miter;stroke-width:0.507273;"/>
   </g>
   <g id="patch_43">
    <path clip-path="url(#p88a106a1da)" d="M 243.872386 317.572 
L 249.259233 317.572 
L 249.259233 315.599656 
L 243.872386 315.599656 
z
" style="fill:#1f77b4;fill-opacity:0.5;stroke:#000000;stroke-linejoin:miter;stroke-width:0.507273;"/>
   </g>
   <g id="patch_44">
    <path clip-path="url(#p88a106a1da)" d="M 249.259233 317.572 
L 254.64608 317.572 
L 254.64608 316.585828 
L 249.259233 316.585828 
z
" style="fill:#1f77b4;fill-opacity:0.5;stroke:#000000;stroke-linejoin:miter;stroke-width:0.507273;"/>
   </g>
   <g id="patch_45">
    <path clip-path="url(#p88a106a1da)" d="M 254.64608 317.572 
L 260.032926 317.572 
L 260.032926 314.120397 
L 254.64608 314.120397 
z
" style="fill:#1f77b4;fill-opacity:0.5;stroke:#000000;stroke-linejoin:miter;stroke-width:0.507273;"/>
   </g>
   <g id="patch_46">
    <path clip-path="url(#p88a106a1da)" d="M 260.032926 317.572 
L 265.419773 317.572 
L 265.419773 314.613483 
L 260.032926 314.613483 
z
" style="fill:#1f77b4;fill-opacity:0.5;stroke:#000000;stroke-linejoin:miter;stroke-width:0.507273;"/>
   </g>
   <g id="patch_47">
    <path clip-path="url(#p88a106a1da)" d="M 265.419773 317.572 
L 270.806619 317.572 
L 270.806619 314.613483 
L 265.419773 314.613483 
z
" style="fill:#1f77b4;fill-opacity:0.5;stroke:#000000;stroke-linejoin:miter;stroke-width:0.507273;"/>
   </g>
   <g id="patch_48">
    <path clip-path="url(#p88a106a1da)" d="M 270.806619 317.572 
L 276.193466 317.572 
L 276.193466 315.599656 
L 270.806619 315.599656 
z
" style="fill:#1f77b4;fill-opacity:0.5;stroke:#000000;stroke-linejoin:miter;stroke-width:0.507273;"/>
   </g>
   <g id="patch_49">
    <path clip-path="url(#p88a106a1da)" d="M 276.193466 317.572 
L 281.580313 317.572 
L 281.580313 315.10657 
L 276.193466 315.10657 
z
" style="fill:#1f77b4;fill-opacity:0.5;stroke:#000000;stroke-linejoin:miter;stroke-width:0.507273;"/>
   </g>
   <g id="patch_50">
    <path clip-path="url(#p88a106a1da)" d="M 281.580313 317.572 
L 286.967159 317.572 
L 286.967159 313.627311 
L 281.580313 313.627311 
z
" style="fill:#1f77b4;fill-opacity:0.5;stroke:#000000;stroke-linejoin:miter;stroke-width:0.507273;"/>
   </g>
   <g id="patch_51">
    <path clip-path="url(#p88a106a1da)" d="M 286.967159 317.572 
L 292.354006 317.572 
L 292.354006 312.641139 
L 286.967159 312.641139 
z
" style="fill:#1f77b4;fill-opacity:0.5;stroke:#000000;stroke-linejoin:miter;stroke-width:0.507273;"/>
   </g>
   <g id="patch_52">
    <path clip-path="url(#p88a106a1da)" d="M 292.354006 317.572 
L 297.740852 317.572 
L 297.740852 315.599656 
L 292.354006 315.599656 
z
" style="fill:#1f77b4;fill-opacity:0.5;stroke:#000000;stroke-linejoin:miter;stroke-width:0.507273;"/>
   </g>
   <g id="patch_53">
    <path clip-path="url(#p88a106a1da)" d="M 297.740852 317.572 
L 303.127699 317.572 
L 303.127699 313.627311 
L 297.740852 313.627311 
z
" style="fill:#1f77b4;fill-opacity:0.5;stroke:#000000;stroke-linejoin:miter;stroke-width:0.507273;"/>
   </g>
   <g id="patch_54">
    <path clip-path="url(#p88a106a1da)" d="M 303.127699 317.572 
L 308.514545 317.572 
L 308.514545 314.613483 
L 303.127699 314.613483 
z
" style="fill:#1f77b4;fill-opacity:0.5;stroke:#000000;stroke-linejoin:miter;stroke-width:0.507273;"/>
   </g>
   <g id="patch_55">
    <path clip-path="url(#p88a106a1da)" d="M 308.514545 317.572 
L 313.901392 317.572 
L 313.901392 312.641139 
L 308.514545 312.641139 
z
" style="fill:#1f77b4;fill-opacity:0.5;stroke:#000000;stroke-linejoin:miter;stroke-width:0.507273;"/>
   </g>
   <g id="patch_56">
    <path clip-path="url(#p88a106a1da)" d="M 313.901392 317.572 
L 319.288239 317.572 
L 319.288239 316.585828 
L 313.901392 316.585828 
z
" style="fill:#1f77b4;fill-opacity:0.5;stroke:#000000;stroke-linejoin:miter;stroke-width:0.507273;"/>
   </g>
   <g id="patch_57">
    <path clip-path="url(#p88a106a1da)" d="M 319.288239 317.572 
L 324.675085 317.572 
L 324.675085 309.682622 
L 319.288239 309.682622 
z
" style="fill:#1f77b4;fill-opacity:0.5;stroke:#000000;stroke-linejoin:miter;stroke-width:0.507273;"/>
   </g>
   <g id="patch_58">
    <path clip-path="url(#p88a106a1da)" d="M 324.675085 317.572 
L 330.061932 317.572 
L 330.061932 314.120397 
L 324.675085 314.120397 
z
" style="fill:#1f77b4;fill-opacity:0.5;stroke:#000000;stroke-linejoin:miter;stroke-width:0.507273;"/>
   </g>
   <g id="patch_59">
    <path clip-path="url(#p88a106a1da)" d="M 330.061932 317.572 
L 335.448778 317.572 
L 335.448778 314.120397 
L 330.061932 314.120397 
z
" style="fill:#1f77b4;fill-opacity:0.5;stroke:#000000;stroke-linejoin:miter;stroke-width:0.507273;"/>
   </g>
   <g id="patch_60">
    <path clip-path="url(#p88a106a1da)" d="M 335.448778 317.572 
L 340.835625 317.572 
L 340.835625 315.10657 
L 335.448778 315.10657 
z
" style="fill:#1f77b4;fill-opacity:0.5;stroke:#000000;stroke-linejoin:miter;stroke-width:0.507273;"/>
   </g>
   <g id="patch_61">
    <path clip-path="url(#p88a106a1da)" d="M 340.835625 317.572 
L 346.222472 317.572 
L 346.222472 315.599656 
L 340.835625 315.599656 
z
" style="fill:#1f77b4;fill-opacity:0.5;stroke:#000000;stroke-linejoin:miter;stroke-width:0.507273;"/>
   </g>
   <g id="patch_62">
    <path clip-path="url(#p88a106a1da)" d="M 346.222472 317.572 
L 351.609318 317.572 
L 351.609318 313.134225 
L 346.222472 313.134225 
z
" style="fill:#1f77b4;fill-opacity:0.5;stroke:#000000;stroke-linejoin:miter;stroke-width:0.507273;"/>
   </g>
   <g id="patch_63">
    <path clip-path="url(#p88a106a1da)" d="M 351.609318 317.572 
L 356.996165 317.572 
L 356.996165 312.641139 
L 351.609318 312.641139 
z
" style="fill:#1f77b4;fill-opacity:0.5;stroke:#000000;stroke-linejoin:miter;stroke-width:0.507273;"/>
   </g>
   <g id="patch_64">
    <path clip-path="url(#p88a106a1da)" d="M 356.996165 317.572 
L 362.383011 317.572 
L 362.383011 316.092742 
L 356.996165 316.092742 
z
" style="fill:#1f77b4;fill-opacity:0.5;stroke:#000000;stroke-linejoin:miter;stroke-width:0.507273;"/>
   </g>
   <g id="patch_65">
    <path clip-path="url(#p88a106a1da)" d="M 362.383011 317.572 
L 367.769858 317.572 
L 367.769858 315.10657 
L 362.383011 315.10657 
z
" style="fill:#1f77b4;fill-opacity:0.5;stroke:#000000;stroke-linejoin:miter;stroke-width:0.507273;"/>
   </g>
   <g id="patch_66">
    <path clip-path="url(#p88a106a1da)" d="M 367.769858 317.572 
L 373.156705 317.572 
L 373.156705 315.599656 
L 367.769858 315.599656 
z
" style="fill:#1f77b4;fill-opacity:0.5;stroke:#000000;stroke-linejoin:miter;stroke-width:0.507273;"/>
   </g>
   <g id="patch_67">
    <path clip-path="url(#p88a106a1da)" d="M 373.156705 317.572 
L 378.543551 317.572 
L 378.543551 315.599656 
L 373.156705 315.599656 
z
" style="fill:#1f77b4;fill-opacity:0.5;stroke:#000000;stroke-linejoin:miter;stroke-width:0.507273;"/>
   </g>
   <g id="patch_68">
    <path clip-path="url(#p88a106a1da)" d="M 378.543551 317.572 
L 383.930398 317.572 
L 383.930398 316.585828 
L 378.543551 316.585828 
z
" style="fill:#1f77b4;fill-opacity:0.5;stroke:#000000;stroke-linejoin:miter;stroke-width:0.507273;"/>
   </g>
   <g id="patch_69">
    <path clip-path="url(#p88a106a1da)" d="M 383.930398 317.572 
L 389.317244 317.572 
L 389.317244 315.599656 
L 383.930398 315.599656 
z
" style="fill:#1f77b4;fill-opacity:0.5;stroke:#000000;stroke-linejoin:miter;stroke-width:0.507273;"/>
   </g>
   <g id="patch_70">
    <path clip-path="url(#p88a106a1da)" d="M 389.317244 317.572 
L 394.704091 317.572 
L 394.704091 314.613483 
L 389.317244 314.613483 
z
" style="fill:#1f77b4;fill-opacity:0.5;stroke:#000000;stroke-linejoin:miter;stroke-width:0.507273;"/>
   </g>
   <g id="matplotlib.axis_3">
    <g id="ytick_7">
     <g id="line2d_13">
      <defs>
       <path d="M 0 0 
L 4.8 0 
" id="m9196a1862c" style="stroke:#000000;"/>
      </defs>
      <g>
       <use style="stroke:#000000;" x="411.942" xlink:href="#m9196a1862c" y="317.572"/>
      </g>
     </g>
     <g id="text_14">
      <!-- 0 -->
      <g transform="translate(420.242 320.915312)scale(0.088 -0.088)">
       <use xlink:href="#DejaVuSans-48"/>
      </g>
     </g>
    </g>
    <g id="ytick_8">
     <g id="line2d_14">
      <g>
       <use style="stroke:#000000;" x="411.942" xlink:href="#m9196a1862c" y="268.26339"/>
      </g>
     </g>
     <g id="text_15">
      <!-- 100 -->
      <g transform="translate(420.242 271.606703)scale(0.088 -0.088)">
       <use xlink:href="#DejaVuSans-49"/>
       <use x="63.623047" xlink:href="#DejaVuSans-48"/>
       <use x="127.246094" xlink:href="#DejaVuSans-48"/>
      </g>
     </g>
    </g>
    <g id="ytick_9">
     <g id="line2d_15">
      <g>
       <use style="stroke:#000000;" x="411.942" xlink:href="#m9196a1862c" y="218.954781"/>
      </g>
     </g>
     <g id="text_16">
      <!-- 200 -->
      <g transform="translate(420.242 222.298093)scale(0.088 -0.088)">
       <use xlink:href="#DejaVuSans-50"/>
       <use x="63.623047" xlink:href="#DejaVuSans-48"/>
       <use x="127.246094" xlink:href="#DejaVuSans-48"/>
      </g>
     </g>
    </g>
    <g id="ytick_10">
     <g id="line2d_16">
      <g>
       <use style="stroke:#000000;" x="411.942" xlink:href="#m9196a1862c" y="169.646171"/>
      </g>
     </g>
     <g id="text_17">
      <!-- 300 -->
      <g transform="translate(420.242 172.989483)scale(0.088 -0.088)">
       <use xlink:href="#DejaVuSans-51"/>
       <use x="63.623047" xlink:href="#DejaVuSans-48"/>
       <use x="127.246094" xlink:href="#DejaVuSans-48"/>
      </g>
     </g>
    </g>
    <g id="ytick_11">
     <g id="line2d_17">
      <g>
       <use style="stroke:#000000;" x="411.942" xlink:href="#m9196a1862c" y="120.337561"/>
      </g>
     </g>
     <g id="text_18">
      <!-- 400 -->
      <g transform="translate(420.242 123.680874)scale(0.088 -0.088)">
       <use xlink:href="#DejaVuSans-52"/>
       <use x="63.623047" xlink:href="#DejaVuSans-48"/>
       <use x="127.246094" xlink:href="#DejaVuSans-48"/>
      </g>
     </g>
    </g>
    <g id="ytick_12">
     <g id="line2d_18">
      <g>
       <use style="stroke:#000000;" x="411.942" xlink:href="#m9196a1862c" y="71.028951"/>
      </g>
     </g>
     <g id="text_19">
      <!-- 500 -->
      <g transform="translate(420.242 74.372264)scale(0.088 -0.088)">
       <use xlink:href="#DejaVuSans-53"/>
       <use x="63.623047" xlink:href="#DejaVuSans-48"/>
       <use x="127.246094" xlink:href="#DejaVuSans-48"/>
      </g>
     </g>
    </g>
    <g id="text_20">
     <!-- Count -->
     <defs>
      <path d="M 64.40625 67.28125 
L 64.40625 56.890625 
Q 59.421875 61.53125 53.78125 63.8125 
Q 48.140625 66.109375 41.796875 66.109375 
Q 29.296875 66.109375 22.65625 58.46875 
Q 16.015625 50.828125 16.015625 36.375 
Q 16.015625 21.96875 22.65625 14.328125 
Q 29.296875 6.6875 41.796875 6.6875 
Q 48.140625 6.6875 53.78125 8.984375 
Q 59.421875 11.28125 64.40625 15.921875 
L 64.40625 5.609375 
Q 59.234375 2.09375 53.4375 0.328125 
Q 47.65625 -1.421875 41.21875 -1.421875 
Q 24.65625 -1.421875 15.125 8.703125 
Q 5.609375 18.84375 5.609375 36.375 
Q 5.609375 53.953125 15.125 64.078125 
Q 24.65625 74.21875 41.21875 74.21875 
Q 47.75 74.21875 53.53125 72.484375 
Q 59.328125 70.75 64.40625 67.28125 
z
" id="DejaVuSans-67"/>
      <path d="M 8.5 21.578125 
L 8.5 54.6875 
L 17.484375 54.6875 
L 17.484375 21.921875 
Q 17.484375 14.15625 20.5 10.265625 
Q 23.53125 6.390625 29.59375 6.390625 
Q 36.859375 6.390625 41.078125 11.03125 
Q 45.3125 15.671875 45.3125 23.6875 
L 45.3125 54.6875 
L 54.296875 54.6875 
L 54.296875 0 
L 45.3125 0 
L 45.3125 8.40625 
Q 42.046875 3.421875 37.71875 1 
Q 33.40625 -1.421875 27.6875 -1.421875 
Q 18.265625 -1.421875 13.375 4.4375 
Q 8.5 10.296875 8.5 21.578125 
z
M 31.109375 56 
z
" id="DejaVuSans-117"/>
     </defs>
     <g transform="translate(448.3335 190.2245)rotate(-90)scale(0.096 -0.096)">
      <use xlink:href="#DejaVuSans-67"/>
      <use x="69.824219" xlink:href="#DejaVuSans-111"/>
      <use x="131.005859" xlink:href="#DejaVuSans-117"/>
      <use x="194.384766" xlink:href="#DejaVuSans-110"/>
      <use x="257.763672" xlink:href="#DejaVuSans-116"/>
     </g>
    </g>
   </g>
   <g id="line2d_19">
    <path clip-path="url(#p88a106a1da)" d="M 49.945909 300.044906 
L 53.410815 291.688966 
L 60.340628 274.532843 
L 63.805534 266.016668 
L 67.270441 256.939193 
L 70.735347 247.132855 
L 75.932707 232.223366 
L 79.397613 223.060444 
L 86.327426 205.537771 
L 89.792332 195.701415 
L 93.257238 184.697924 
L 96.722145 172.725605 
L 105.384411 141.896069 
L 107.116864 136.323789 
L 108.849317 131.183603 
L 110.58177 126.541737 
L 112.314223 122.425624 
L 114.046677 118.817414 
L 115.77913 115.656075 
L 117.511583 112.850009 
L 120.976489 107.919409 
L 124.441396 103.54797 
L 126.173849 101.60873 
L 127.906302 99.91906 
L 129.638755 98.540926 
L 131.371208 97.503417 
L 133.103661 96.790775 
L 134.836115 96.349112 
L 136.568568 96.10945 
L 138.301021 96.018041 
L 140.033474 96.061897 
L 141.765927 96.279621 
L 143.498381 96.753875 
L 145.230834 97.589307 
L 146.963287 98.885031 
L 148.69574 100.711637 
L 150.428193 103.099337 
L 152.160646 106.038348 
L 153.8931 109.487861 
L 155.625553 113.387784 
L 157.358006 117.668333 
L 160.822912 127.071262 
L 172.950085 161.543863 
L 176.414991 171.25146 
L 179.879897 181.532649 
L 186.80971 203.370355 
L 192.007069 219.554211 
L 195.471976 229.883375 
L 198.936882 239.454923 
L 202.401788 248.009532 
L 205.866695 255.745413 
L 211.064054 267.062194 
L 214.528961 275.161557 
L 217.993867 283.895204 
L 223.191227 297.16813 
L 224.92368 301.163891 
L 226.656133 304.729344 
L 228.388586 307.774208 
L 230.121039 310.255284 
L 231.853492 312.178592 
L 233.585946 313.591822 
L 235.318399 314.570548 
L 237.050852 315.20266 
L 238.783305 315.574745 
L 240.515758 315.762606 
L 243.980665 315.809996 
L 249.178024 315.523727 
L 259.572743 314.842887 
L 264.770103 314.804696 
L 271.699915 314.843257 
L 276.897275 314.617287 
L 285.559541 314.107909 
L 290.7569 314.121297 
L 299.419166 314.280146 
L 306.348979 314.053029 
L 323.673511 313.243413 
L 327.138417 313.454842 
L 337.533136 314.585399 
L 340.998042 314.606473 
L 346.195402 314.276846 
L 349.660308 314.092554 
L 353.125215 314.128724 
L 356.590121 314.3858 
L 366.98484 315.368764 
L 373.914653 315.768506 
L 379.112012 315.886066 
L 389.506731 315.997872 
L 394.704091 316.400141 
L 394.704091 316.400141 
" style="fill:none;stroke:#1f77b4;stroke-linecap:square;stroke-width:1.2;"/>
   </g>
   <g id="patch_71">
    <path d="M 32.708 317.572 
L 32.708 34.368 
" style="fill:none;stroke:#000000;stroke-linecap:square;stroke-linejoin:miter;"/>
   </g>
   <g id="patch_72">
    <path d="M 411.942 317.572 
L 411.942 34.368 
" style="fill:none;stroke:#000000;stroke-linecap:square;stroke-linejoin:miter;"/>
   </g>
   <g id="patch_73">
    <path d="M 32.708 317.572 
L 411.942 317.572 
" style="fill:none;stroke:#000000;stroke-linecap:square;stroke-linejoin:miter;"/>
   </g>
   <g id="patch_74">
    <path d="M 32.708 34.368 
L 411.942 34.368 
" style="fill:none;stroke:#000000;stroke-linecap:square;stroke-linejoin:miter;"/>
   </g>
  </g>
 </g>
 <defs>
  <clipPath id="p88a106a1da">
   <rect height="283.204" width="379.234" x="32.708" y="34.368"/>
  </clipPath>
 </defs>
</svg>
