<?xml version="1.0" encoding="utf-8" standalone="no"?>
<!DOCTYPE svg PUBLIC "-//W3C//DTD SVG 1.1//EN"
  "http://www.w3.org/Graphics/SVG/1.1/DTD/svg11.dtd">
<!-- Created with matplotlib (https://matplotlib.org/) -->
<svg height="345.6pt" version="1.1" viewBox="0 0 460.8 345.6" width="460.8pt" xmlns="http://www.w3.org/2000/svg" xmlns:xlink="http://www.w3.org/1999/xlink">
 <defs>
  <style type="text/css">
*{stroke-linecap:butt;stroke-linejoin:round;}
  </style>
 </defs>
 <g id="figure_1">
  <g id="patch_1">
   <path d="M 0 345.6 
L 460.8 345.6 
L 460.8 0 
L 0 0 
z
" style="fill:#ffffff;"/>
  </g>
  <g id="axes_1">
   <g id="patch_2">
    <path d="M 32.708 317.572 
L 450.432 317.572 
L 450.432 10.368 
L 32.708 10.368 
z
" style="fill:#ffffff;"/>
   </g>
   <g id="matplotlib.axis_1">
    <g id="xtick_1">
     <g id="line2d_1">
      <defs>
       <path d="M 0 0 
L 0 4.8 
" id="me38c316521" style="stroke:#000000;"/>
      </defs>
      <g>
       <use style="stroke:#000000;" x="51.695455" xlink:href="#me38c316521" y="317.572"/>
      </g>
     </g>
     <g id="text_1">
      <!-- 0 -->
      <defs>
       <path d="M 31.78125 66.40625 
Q 24.171875 66.40625 20.328125 58.90625 
Q 16.5 51.421875 16.5 36.375 
Q 16.5 21.390625 20.328125 13.890625 
Q 24.171875 6.390625 31.78125 6.390625 
Q 39.453125 6.390625 43.28125 13.890625 
Q 47.125 21.390625 47.125 36.375 
Q 47.125 51.421875 43.28125 58.90625 
Q 39.453125 66.40625 31.78125 66.40625 
z
M 31.78125 74.21875 
Q 44.046875 74.21875 50.515625 64.515625 
Q 56.984375 54.828125 56.984375 36.375 
Q 56.984375 17.96875 50.515625 8.265625 
Q 44.046875 -1.421875 31.78125 -1.421875 
Q 19.53125 -1.421875 13.0625 8.265625 
Q 6.59375 17.96875 6.59375 36.375 
Q 6.59375 54.828125 13.0625 64.515625 
Q 19.53125 74.21875 31.78125 74.21875 
z
" id="DejaVuSans-48"/>
      </defs>
      <g transform="translate(48.895955 332.558625)scale(0.088 -0.088)">
       <use xlink:href="#DejaVuSans-48"/>
      </g>
     </g>
    </g>
    <g id="xtick_2">
     <g id="line2d_2">
      <g>
       <use style="stroke:#000000;" x="123.94618" xlink:href="#me38c316521" y="317.572"/>
      </g>
     </g>
     <g id="text_2">
      <!-- 100000 -->
      <defs>
       <path d="M 12.40625 8.296875 
L 28.515625 8.296875 
L 28.515625 63.921875 
L 10.984375 60.40625 
L 10.984375 69.390625 
L 28.421875 72.90625 
L 38.28125 72.90625 
L 38.28125 8.296875 
L 54.390625 8.296875 
L 54.390625 0 
L 12.40625 0 
z
" id="DejaVuSans-49"/>
      </defs>
      <g transform="translate(107.14918 332.558625)scale(0.088 -0.088)">
       <use xlink:href="#DejaVuSans-49"/>
       <use x="63.623047" xlink:href="#DejaVuSans-48"/>
       <use x="127.246094" xlink:href="#DejaVuSans-48"/>
       <use x="190.869141" xlink:href="#DejaVuSans-48"/>
       <use x="254.492188" xlink:href="#DejaVuSans-48"/>
       <use x="318.115234" xlink:href="#DejaVuSans-48"/>
      </g>
     </g>
    </g>
    <g id="xtick_3">
     <g id="line2d_3">
      <g>
       <use style="stroke:#000000;" x="196.196906" xlink:href="#me38c316521" y="317.572"/>
      </g>
     </g>
     <g id="text_3">
      <!-- 200000 -->
      <defs>
       <path d="M 19.1875 8.296875 
L 53.609375 8.296875 
L 53.609375 0 
L 7.328125 0 
L 7.328125 8.296875 
Q 12.9375 14.109375 22.625 23.890625 
Q 32.328125 33.6875 34.8125 36.53125 
Q 39.546875 41.84375 41.421875 45.53125 
Q 43.3125 49.21875 43.3125 52.78125 
Q 43.3125 58.59375 39.234375 62.25 
Q 35.15625 65.921875 28.609375 65.921875 
Q 23.96875 65.921875 18.8125 64.3125 
Q 13.671875 62.703125 7.8125 59.421875 
L 7.8125 69.390625 
Q 13.765625 71.78125 18.9375 73 
Q 24.125 74.21875 28.421875 74.21875 
Q 39.75 74.21875 46.484375 68.546875 
Q 53.21875 62.890625 53.21875 53.421875 
Q 53.21875 48.921875 51.53125 44.890625 
Q 49.859375 40.875 45.40625 35.40625 
Q 44.1875 33.984375 37.640625 27.21875 
Q 31.109375 20.453125 19.1875 8.296875 
z
" id="DejaVuSans-50"/>
      </defs>
      <g transform="translate(179.399906 332.558625)scale(0.088 -0.088)">
       <use xlink:href="#DejaVuSans-50"/>
       <use x="63.623047" xlink:href="#DejaVuSans-48"/>
       <use x="127.246094" xlink:href="#DejaVuSans-48"/>
       <use x="190.869141" xlink:href="#DejaVuSans-48"/>
       <use x="254.492188" xlink:href="#DejaVuSans-48"/>
       <use x="318.115234" xlink:href="#DejaVuSans-48"/>
      </g>
     </g>
    </g>
    <g id="xtick_4">
     <g id="line2d_4">
      <g>
       <use style="stroke:#000000;" x="268.447631" xlink:href="#me38c316521" y="317.572"/>
      </g>
     </g>
     <g id="text_4">
      <!-- 300000 -->
      <defs>
       <path d="M 40.578125 39.3125 
Q 47.65625 37.796875 51.625 33 
Q 55.609375 28.21875 55.609375 21.1875 
Q 55.609375 10.40625 48.1875 4.484375 
Q 40.765625 -1.421875 27.09375 -1.421875 
Q 22.515625 -1.421875 17.65625 -0.515625 
Q 12.796875 0.390625 7.625 2.203125 
L 7.625 11.71875 
Q 11.71875 9.328125 16.59375 8.109375 
Q 21.484375 6.890625 26.8125 6.890625 
Q 36.078125 6.890625 40.9375 10.546875 
Q 45.796875 14.203125 45.796875 21.1875 
Q 45.796875 27.640625 41.28125 31.265625 
Q 36.765625 34.90625 28.71875 34.90625 
L 20.21875 34.90625 
L 20.21875 43.015625 
L 29.109375 43.015625 
Q 36.375 43.015625 40.234375 45.921875 
Q 44.09375 48.828125 44.09375 54.296875 
Q 44.09375 59.90625 40.109375 62.90625 
Q 36.140625 65.921875 28.71875 65.921875 
Q 24.65625 65.921875 20.015625 65.03125 
Q 15.375 64.15625 9.8125 62.3125 
L 9.8125 71.09375 
Q 15.4375 72.65625 20.34375 73.4375 
Q 25.25 74.21875 29.59375 74.21875 
Q 40.828125 74.21875 47.359375 69.109375 
Q 53.90625 64.015625 53.90625 55.328125 
Q 53.90625 49.265625 50.4375 45.09375 
Q 46.96875 40.921875 40.578125 39.3125 
z
" id="DejaVuSans-51"/>
      </defs>
      <g transform="translate(251.650631 332.558625)scale(0.088 -0.088)">
       <use xlink:href="#DejaVuSans-51"/>
       <use x="63.623047" xlink:href="#DejaVuSans-48"/>
       <use x="127.246094" xlink:href="#DejaVuSans-48"/>
       <use x="190.869141" xlink:href="#DejaVuSans-48"/>
       <use x="254.492188" xlink:href="#DejaVuSans-48"/>
       <use x="318.115234" xlink:href="#DejaVuSans-48"/>
      </g>
     </g>
    </g>
    <g id="xtick_5">
     <g id="line2d_5">
      <g>
       <use style="stroke:#000000;" x="340.698357" xlink:href="#me38c316521" y="317.572"/>
      </g>
     </g>
     <g id="text_5">
      <!-- 400000 -->
      <defs>
       <path d="M 37.796875 64.3125 
L 12.890625 25.390625 
L 37.796875 25.390625 
z
M 35.203125 72.90625 
L 47.609375 72.90625 
L 47.609375 25.390625 
L 58.015625 25.390625 
L 58.015625 17.1875 
L 47.609375 17.1875 
L 47.609375 0 
L 37.796875 0 
L 37.796875 17.1875 
L 4.890625 17.1875 
L 4.890625 26.703125 
z
" id="DejaVuSans-52"/>
      </defs>
      <g transform="translate(323.901357 332.558625)scale(0.088 -0.088)">
       <use xlink:href="#DejaVuSans-52"/>
       <use x="63.623047" xlink:href="#DejaVuSans-48"/>
       <use x="127.246094" xlink:href="#DejaVuSans-48"/>
       <use x="190.869141" xlink:href="#DejaVuSans-48"/>
       <use x="254.492188" xlink:href="#DejaVuSans-48"/>
       <use x="318.115234" xlink:href="#DejaVuSans-48"/>
      </g>
     </g>
    </g>
    <g id="xtick_6">
     <g id="line2d_6">
      <g>
       <use style="stroke:#000000;" x="412.949082" xlink:href="#me38c316521" y="317.572"/>
      </g>
     </g>
     <g id="text_6">
      <!-- 500000 -->
      <defs>
       <path d="M 10.796875 72.90625 
L 49.515625 72.90625 
L 49.515625 64.59375 
L 19.828125 64.59375 
L 19.828125 46.734375 
Q 21.96875 47.46875 24.109375 47.828125 
Q 26.265625 48.1875 28.421875 48.1875 
Q 40.625 48.1875 47.75 41.5 
Q 54.890625 34.8125 54.890625 23.390625 
Q 54.890625 11.625 47.5625 5.09375 
Q 40.234375 -1.421875 26.90625 -1.421875 
Q 22.3125 -1.421875 17.546875 -0.640625 
Q 12.796875 0.140625 7.71875 1.703125 
L 7.71875 11.625 
Q 12.109375 9.234375 16.796875 8.0625 
Q 21.484375 6.890625 26.703125 6.890625 
Q 35.15625 6.890625 40.078125 11.328125 
Q 45.015625 15.765625 45.015625 23.390625 
Q 45.015625 31 40.078125 35.4375 
Q 35.15625 39.890625 26.703125 39.890625 
Q 22.75 39.890625 18.8125 39.015625 
Q 14.890625 38.140625 10.796875 36.28125 
z
" id="DejaVuSans-53"/>
      </defs>
      <g transform="translate(396.152082 332.558625)scale(0.088 -0.088)">
       <use xlink:href="#DejaVuSans-53"/>
       <use x="63.623047" xlink:href="#DejaVuSans-48"/>
       <use x="127.246094" xlink:href="#DejaVuSans-48"/>
       <use x="190.869141" xlink:href="#DejaVuSans-48"/>
       <use x="254.492188" xlink:href="#DejaVuSans-48"/>
       <use x="318.115234" xlink:href="#DejaVuSans-48"/>
      </g>
     </g>
    </g>
   </g>
   <g id="matplotlib.axis_2">
    <g id="ytick_1">
     <g id="line2d_7">
      <defs>
       <path d="M 0 0 
L -4.8 0 
" id="m97e4cb417e" style="stroke:#000000;"/>
      </defs>
      <g>
       <use style="stroke:#000000;" x="32.708" xlink:href="#m97e4cb417e" y="303.608243"/>
      </g>
     </g>
     <g id="text_7">
      <!-- 0.0 -->
      <defs>
       <path d="M 10.6875 12.40625 
L 21 12.40625 
L 21 0 
L 10.6875 0 
z
" id="DejaVuSans-46"/>
      </defs>
      <g transform="translate(10.41325 306.951555)scale(0.088 -0.088)">
       <use xlink:href="#DejaVuSans-48"/>
       <use x="63.623047" xlink:href="#DejaVuSans-46"/>
       <use x="95.410156" xlink:href="#DejaVuSans-48"/>
      </g>
     </g>
    </g>
    <g id="ytick_2">
     <g id="line2d_8">
      <g>
       <use style="stroke:#000000;" x="32.708" xlink:href="#m97e4cb417e" y="247.752958"/>
      </g>
     </g>
     <g id="text_8">
      <!-- 0.2 -->
      <g transform="translate(10.41325 251.09627)scale(0.088 -0.088)">
       <use xlink:href="#DejaVuSans-48"/>
       <use x="63.623047" xlink:href="#DejaVuSans-46"/>
       <use x="95.410156" xlink:href="#DejaVuSans-50"/>
      </g>
     </g>
    </g>
    <g id="ytick_3">
     <g id="line2d_9">
      <g>
       <use style="stroke:#000000;" x="32.708" xlink:href="#m97e4cb417e" y="191.897673"/>
      </g>
     </g>
     <g id="text_9">
      <!-- 0.4 -->
      <g transform="translate(10.41325 195.240985)scale(0.088 -0.088)">
       <use xlink:href="#DejaVuSans-48"/>
       <use x="63.623047" xlink:href="#DejaVuSans-46"/>
       <use x="95.410156" xlink:href="#DejaVuSans-52"/>
      </g>
     </g>
    </g>
    <g id="ytick_4">
     <g id="line2d_10">
      <g>
       <use style="stroke:#000000;" x="32.708" xlink:href="#m97e4cb417e" y="136.042388"/>
      </g>
     </g>
     <g id="text_10">
      <!-- 0.6 -->
      <defs>
       <path d="M 33.015625 40.375 
Q 26.375 40.375 22.484375 35.828125 
Q 18.609375 31.296875 18.609375 23.390625 
Q 18.609375 15.53125 22.484375 10.953125 
Q 26.375 6.390625 33.015625 6.390625 
Q 39.65625 6.390625 43.53125 10.953125 
Q 47.40625 15.53125 47.40625 23.390625 
Q 47.40625 31.296875 43.53125 35.828125 
Q 39.65625 40.375 33.015625 40.375 
z
M 52.59375 71.296875 
L 52.59375 62.3125 
Q 48.875 64.0625 45.09375 64.984375 
Q 41.3125 65.921875 37.59375 65.921875 
Q 27.828125 65.921875 22.671875 59.328125 
Q 17.53125 52.734375 16.796875 39.40625 
Q 19.671875 43.65625 24.015625 45.921875 
Q 28.375 48.1875 33.59375 48.1875 
Q 44.578125 48.1875 50.953125 41.515625 
Q 57.328125 34.859375 57.328125 23.390625 
Q 57.328125 12.15625 50.6875 5.359375 
Q 44.046875 -1.421875 33.015625 -1.421875 
Q 20.359375 -1.421875 13.671875 8.265625 
Q 6.984375 17.96875 6.984375 36.375 
Q 6.984375 53.65625 15.1875 63.9375 
Q 23.390625 74.21875 37.203125 74.21875 
Q 40.921875 74.21875 44.703125 73.484375 
Q 48.484375 72.75 52.59375 71.296875 
z
" id="DejaVuSans-54"/>
      </defs>
      <g transform="translate(10.41325 139.385701)scale(0.088 -0.088)">
       <use xlink:href="#DejaVuSans-48"/>
       <use x="63.623047" xlink:href="#DejaVuSans-46"/>
       <use x="95.410156" xlink:href="#DejaVuSans-54"/>
      </g>
     </g>
    </g>
    <g id="ytick_5">
     <g id="line2d_11">
      <g>
       <use style="stroke:#000000;" x="32.708" xlink:href="#m97e4cb417e" y="80.187103"/>
      </g>
     </g>
     <g id="text_11">
      <!-- 0.8 -->
      <defs>
       <path d="M 31.78125 34.625 
Q 24.75 34.625 20.71875 30.859375 
Q 16.703125 27.09375 16.703125 20.515625 
Q 16.703125 13.921875 20.71875 10.15625 
Q 24.75 6.390625 31.78125 6.390625 
Q 38.8125 6.390625 42.859375 10.171875 
Q 46.921875 13.96875 46.921875 20.515625 
Q 46.921875 27.09375 42.890625 30.859375 
Q 38.875 34.625 31.78125 34.625 
z
M 21.921875 38.8125 
Q 15.578125 40.375 12.03125 44.71875 
Q 8.5 49.078125 8.5 55.328125 
Q 8.5 64.0625 14.71875 69.140625 
Q 20.953125 74.21875 31.78125 74.21875 
Q 42.671875 74.21875 48.875 69.140625 
Q 55.078125 64.0625 55.078125 55.328125 
Q 55.078125 49.078125 51.53125 44.71875 
Q 48 40.375 41.703125 38.8125 
Q 48.828125 37.15625 52.796875 32.3125 
Q 56.78125 27.484375 56.78125 20.515625 
Q 56.78125 9.90625 50.3125 4.234375 
Q 43.84375 -1.421875 31.78125 -1.421875 
Q 19.734375 -1.421875 13.25 4.234375 
Q 6.78125 9.90625 6.78125 20.515625 
Q 6.78125 27.484375 10.78125 32.3125 
Q 14.796875 37.15625 21.921875 38.8125 
z
M 18.3125 54.390625 
Q 18.3125 48.734375 21.84375 45.5625 
Q 25.390625 42.390625 31.78125 42.390625 
Q 38.140625 42.390625 41.71875 45.5625 
Q 45.3125 48.734375 45.3125 54.390625 
Q 45.3125 60.0625 41.71875 63.234375 
Q 38.140625 66.40625 31.78125 66.40625 
Q 25.390625 66.40625 21.84375 63.234375 
Q 18.3125 60.0625 18.3125 54.390625 
z
" id="DejaVuSans-56"/>
      </defs>
      <g transform="translate(10.41325 83.530416)scale(0.088 -0.088)">
       <use xlink:href="#DejaVuSans-48"/>
       <use x="63.623047" xlink:href="#DejaVuSans-46"/>
       <use x="95.410156" xlink:href="#DejaVuSans-56"/>
      </g>
     </g>
    </g>
    <g id="ytick_6">
     <g id="line2d_12">
      <g>
       <use style="stroke:#000000;" x="32.708" xlink:href="#m97e4cb417e" y="24.331818"/>
      </g>
     </g>
     <g id="text_12">
      <!-- 1.0 -->
      <g transform="translate(10.41325 27.675131)scale(0.088 -0.088)">
       <use xlink:href="#DejaVuSans-49"/>
       <use x="63.623047" xlink:href="#DejaVuSans-46"/>
       <use x="95.410156" xlink:href="#DejaVuSans-48"/>
      </g>
     </g>
    </g>
   </g>
   <g id="line2d_13">
    <path clip-path="url(#pa76bb7973b)" d="M 51.695455 303.608182 
L 52.003243 303.471549 
L 52.149189 303.335832 
L 52.548736 303.009598 
L 52.784273 302.829695 
L 53.043653 302.697002 
L 53.1896 302.561132 
L 53.589146 302.23453 
L 53.824683 302.054424 
L 54.084064 301.921584 
L 54.23001 301.785564 
L 54.629557 301.458601 
L 54.865094 301.278297 
L 55.124474 301.145312 
L 55.27042 301.009145 
L 55.669967 300.681827 
L 55.904782 300.501388 
L 56.164884 300.368202 
L 56.310831 300.231889 
L 56.710377 299.904224 
L 56.948082 299.718992 
L 57.229138 299.55959 
L 57.421325 299.245413 
L 57.838934 298.864114 
L 58.060021 298.769924 
L 58.269548 298.622521 
L 58.461735 298.308025 
L 58.879344 297.926337 
L 59.091039 297.843302 
L 59.286116 297.715241 
L 59.432062 297.578512 
L 59.831609 297.249844 
L 60.066424 297.068661 
L 60.325804 296.938014 
L 60.472473 296.798074 
L 60.871297 296.470318 
L 61.106834 296.287728 
L 61.366214 296.156956 
L 61.512883 296.016883 
L 61.911707 295.688815 
L 62.147245 295.506051 
L 62.406625 295.375158 
L 62.553294 295.234956 
L 62.952118 294.906583 
L 63.187655 294.72365 
L 63.447035 294.592639 
L 63.593704 294.452309 
L 63.992528 294.123639 
L 64.230955 293.935908 
L 64.512011 293.775443 
L 64.704198 293.459171 
L 65.121084 293.07621 
L 65.342894 292.980512 
L 65.552421 292.83215 
L 65.744608 292.515606 
L 66.160772 292.133201 
L 66.373912 292.047859 
L 66.568266 291.922079 
L 66.714935 291.781388 
L 67.113759 291.451872 
L 67.349297 291.268303 
L 67.608677 291.136848 
L 67.755346 290.996043 
L 68.15417 290.666261 
L 68.389707 290.482543 
L 68.649087 290.350984 
L 68.795756 290.210069 
L 69.19458 289.880027 
L 69.430118 289.696165 
L 69.689498 289.564507 
L 69.836167 289.423484 
L 70.234991 289.093192 
L 70.470528 288.90919 
L 70.729908 288.777434 
L 70.876577 288.636308 
L 71.275401 288.305772 
L 71.513829 288.116977 
L 71.794161 287.958578 
L 71.987071 287.637613 
L 72.402512 287.25432 
L 72.625045 287.156446 
L 72.834572 287.01012 
L 73.027481 286.688934 
L 73.442923 286.305378 
L 73.656063 286.218756 
L 73.85114 286.092264 
L 73.997809 285.950847 
L 74.39591 285.620873 
L 74.63217 285.435113 
L 74.89155 285.303002 
L 75.038219 285.161495 
L 75.43632 284.831311 
L 75.67258 284.645432 
L 75.93196 284.513241 
L 76.078629 284.371647 
L 76.476731 284.041262 
L 76.712991 283.855269 
L 76.972371 283.723 
L 77.11904 283.581324 
L 77.517141 283.250745 
L 77.753401 283.064644 
L 78.012781 282.932301 
L 78.15945 282.790545 
L 78.557552 282.459781 
L 78.795979 282.269022 
L 79.077035 282.10982 
L 79.269944 281.78748 
L 79.685386 281.402545 
L 79.907918 281.304256 
L 80.117445 281.157329 
L 80.310354 280.834825 
L 80.725074 280.450586 
L 80.938936 280.362718 
L 81.134013 280.235729 
L 81.280682 280.093757 
L 81.678783 279.762488 
L 81.915043 279.575999 
L 82.174423 279.443393 
L 82.321092 279.301356 
L 82.719194 278.969936 
L 82.955453 278.783362 
L 83.214834 278.650699 
L 83.361503 278.508601 
L 83.759604 278.177038 
L 83.995141 277.990446 
L 84.255244 277.857668 
L 84.401913 277.715512 
L 84.800014 277.383815 
L 85.035552 277.197148 
L 85.295654 277.064319 
L 85.442323 276.922109 
L 85.840425 276.590287 
L 86.078852 276.39892 
L 86.359908 276.239238 
L 86.552817 275.915926 
L 86.967536 275.530724 
L 87.190068 275.431374 
L 87.400318 275.283905 
L 87.593228 274.960488 
L 88.007947 274.575161 
L 88.221809 274.487046 
L 88.416886 274.359722 
L 88.563555 274.217374 
L 88.961656 273.885228 
L 89.197194 273.698309 
L 89.457296 273.565314 
L 89.603965 273.422927 
L 90.002067 273.090691 
L 90.237604 272.903721 
L 90.497707 272.770694 
L 90.644376 272.628272 
L 91.041755 272.297207 
L 91.278015 272.108939 
L 91.538117 271.975883 
L 91.684786 271.83343 
L 92.082165 271.502293 
L 92.318425 271.313983 
L 92.578528 271.180902 
L 92.725197 271.038422 
L 93.122576 270.707221 
L 93.361725 270.514238 
L 93.642781 270.354282 
L 93.83569 270.030415 
L 94.250409 269.644552 
L 94.472942 269.545035 
L 94.683191 269.397341 
L 94.876101 269.07343 
L 95.29082 268.687513 
L 95.503959 268.599328 
L 95.699759 268.47177 
L 95.846428 268.329231 
L 96.243807 267.997893 
L 96.480067 267.809471 
L 96.740169 267.676323 
L 96.886838 267.533771 
L 97.284217 267.202406 
L 97.520477 267.013967 
L 97.78058 266.880812 
L 97.927249 266.738252 
L 98.324628 266.406868 
L 98.560888 266.218419 
L 98.82099 266.085259 
L 98.967659 265.942695 
L 99.365038 265.611301 
L 99.601298 265.422846 
L 99.861401 265.289686 
L 100.00807 265.147122 
L 100.405449 264.815726 
L 100.644599 264.622631 
L 100.925654 264.462611 
L 101.118563 264.138614 
L 101.53256 263.753494 
L 101.755815 263.653044 
L 101.966064 263.505318 
L 102.158974 263.181338 
L 102.57297 262.796237 
L 102.786833 262.707138 
L 102.982632 262.579577 
L 103.129301 262.437035 
L 103.52668 262.105689 
L 103.76294 261.917263 
L 104.023043 261.784137 
L 104.169711 261.641609 
L 104.56709 261.310298 
L 104.80335 261.121891 
L 105.063453 260.988783 
L 105.210122 260.846274 
L 105.607501 260.515006 
L 105.843761 260.326625 
L 106.103863 260.193537 
L 106.250532 260.051051 
L 106.647911 259.719835 
L 106.884171 259.531484 
L 107.144274 259.398421 
L 107.290943 259.25596 
L 107.688322 258.924807 
L 107.927472 258.731855 
L 108.208527 258.571981 
L 108.401436 258.248282 
L 108.816156 257.862619 
L 109.038688 257.763161 
L 109.248937 257.615599 
L 109.441847 257.291977 
L 109.856566 256.906405 
L 110.070428 256.81824 
L 110.265505 256.690907 
L 110.412174 256.548548 
L 110.810276 256.216379 
L 111.045813 256.029449 
L 111.305916 255.89652 
L 111.452585 255.754203 
L 111.850686 255.422131 
L 112.086223 255.235256 
L 112.346326 255.102369 
L 112.492995 254.960098 
L 112.891097 254.628131 
L 113.126634 254.441315 
L 113.386737 254.308474 
L 113.533406 254.166252 
L 113.931507 253.8344 
L 114.167044 253.647648 
L 114.427147 253.514857 
L 114.573816 253.372687 
L 114.971917 253.040958 
L 115.210345 252.849651 
L 115.4914 252.690134 
L 115.68431 252.367154 
L 116.099029 251.982349 
L 116.321561 251.883116 
L 116.531811 251.73591 
L 116.72472 251.413068 
L 117.139439 251.028425 
L 117.353301 250.940474 
L 117.548378 250.813471 
L 117.695047 250.671482 
L 118.093149 250.340174 
L 118.329409 250.153668 
L 118.588789 250.02117 
L 118.735458 249.879249 
L 119.133559 249.548099 
L 119.369819 249.361681 
L 119.629199 249.22925 
L 119.775868 249.0874 
L 120.17397 248.756416 
L 120.41023 248.570092 
L 120.66961 248.437731 
L 120.816279 248.295955 
L 121.21438 247.965146 
L 121.45064 247.77892 
L 121.71002 247.646633 
L 121.856689 247.504936 
L 122.254791 247.17431 
L 122.493218 246.983641 
L 122.774273 246.824682 
L 122.967183 246.502835 
L 123.382624 246.118489 
L 123.605157 246.020374 
L 123.814684 245.873834 
L 124.007593 245.552182 
L 124.423035 245.168068 
L 124.636175 245.081333 
L 124.831251 244.95482 
L 124.97792 244.81338 
L 125.376022 244.483353 
L 125.612282 244.297568 
L 125.871662 244.165607 
L 126.018331 244.024259 
L 126.416432 243.694448 
L 126.652692 243.508785 
L 126.912072 243.376913 
L 127.058741 243.235662 
L 127.456843 242.906075 
L 127.693103 242.720538 
L 127.952483 242.588759 
L 128.099152 242.447608 
L 128.497253 242.118254 
L 128.733513 241.932847 
L 128.992893 241.801165 
L 129.139562 241.660116 
L 129.538386 241.329762 
L 129.776814 241.141083 
L 130.057146 240.983003 
L 130.250056 240.662684 
L 130.66622 240.279277 
L 130.88803 240.182517 
L 131.098279 240.033757 
L 131.290466 239.71663 
L 131.706631 239.333521 
L 131.919048 239.2481 
L 132.114125 239.122232 
L 132.260794 238.981512 
L 132.659618 238.651929 
L 132.895155 238.468329 
L 133.154535 238.337062 
L 133.301204 238.196459 
L 133.700028 237.867148 
L 133.935565 237.683699 
L 134.194945 237.552544 
L 134.341614 237.412061 
L 134.740438 237.08303 
L 134.975976 236.899738 
L 135.235356 236.768697 
L 135.382025 236.628337 
L 135.780849 236.299594 
L 136.016386 236.116462 
L 136.275766 235.985539 
L 136.422435 235.845304 
L 136.821259 235.516857 
L 137.059687 235.329269 
L 137.340742 235.169201 
L 137.532929 234.853711 
L 137.949816 234.471698 
L 138.171625 234.376275 
L 138.381153 234.228546 
L 138.573339 233.913354 
L 138.990226 233.531702 
L 139.202643 233.447623 
L 139.39772 233.31953 
L 139.543667 233.182767 
L 139.943213 232.854019 
L 140.178028 232.6728 
L 140.438131 232.539305 
L 140.584077 232.402677 
L 140.983624 232.074255 
L 141.218439 231.893215 
L 141.478541 231.759855 
L 141.624488 231.623366 
L 142.024034 231.295275 
L 142.258849 231.114419 
L 142.518952 230.981197 
L 142.664898 230.844849 
L 143.064445 230.517098 
L 143.299259 230.336428 
L 143.559362 230.203347 
L 143.705309 230.067143 
L 144.104855 229.739738 
L 144.34256 229.554671 
L 144.623615 229.395734 
L 144.815802 229.082471 
L 145.234134 228.701406 
L 145.454499 228.608409 
L 145.664026 228.461746 
L 145.856213 228.148828 
L 146.274544 227.768182 
L 146.486239 227.686397 
L 146.680593 227.559309 
L 146.82654 227.423554 
L 147.226086 227.097227 
L 147.461624 226.917283 
L 147.721004 226.784852 
L 147.86695 226.649252 
L 148.267219 226.322078 
L 148.502034 226.143559 
L 148.761414 226.011282 
L 148.907361 225.875839 
L 149.30763 225.549046 
L 149.542445 225.370734 
L 149.801825 225.238614 
L 149.947771 225.103331 
L 150.34804 224.776924 
L 150.582855 224.598823 
L 150.842235 224.466862 
L 150.988182 224.331741 
L 151.388451 224.005727 
L 151.626156 223.823228 
L 151.906488 223.6657 
L 152.098675 223.354975 
L 152.517729 222.97613 
L 152.738094 222.884636 
L 152.946899 222.739303 
L 153.139086 222.428964 
L 153.558862 222.049723 
L 153.769112 221.970347 
L 153.963467 221.844325 
L 154.109413 221.709707 
L 154.509682 221.384906 
L 154.744497 221.207681 
L 155.003877 221.076379 
L 155.149823 220.941933 
L 155.550815 220.616339 
L 155.784907 220.440549 
L 156.044287 220.309418 
L 156.190234 220.175147 
L 156.591225 219.849976 
L 156.825318 219.674415 
L 157.084698 219.543456 
L 157.230644 219.409362 
L 157.631636 219.084618 
L 157.865728 218.909289 
L 158.125108 218.778505 
L 158.271055 218.64459 
L 158.672046 218.32028 
L 158.909029 218.140614 
L 159.190084 217.981655 
L 159.381548 217.676598 
L 159.802048 217.299461 
L 160.02169 217.210398 
L 160.230494 217.063666 
L 160.421959 216.759028 
L 160.843181 216.381549 
L 161.052708 216.30456 
L 161.24634 216.17977 
L 161.392286 216.046404 
L 161.793278 215.723425 
L 162.02737 215.549048 
L 162.28675 215.418983 
L 162.432697 215.285805 
L 162.834411 214.962081 
L 163.068503 214.789086 
L 163.327883 214.656276 
L 163.473107 214.526277 
L 163.874821 214.203012 
L 164.108913 214.030264 
L 164.368293 213.897644 
L 164.513517 213.767831 
L 164.915231 213.445031 
L 165.149324 213.27253 
L 165.408704 213.140103 
L 165.553928 213.010478 
L 165.955642 212.688146 
L 166.192624 212.511311 
L 166.472957 212.354043 
L 166.664422 212.052003 
L 167.087088 211.676042 
L 167.305285 211.590297 
L 167.513368 211.445151 
L 167.704832 211.143559 
L 168.127499 210.768154 
L 168.336303 210.693578 
L 168.529935 210.56714 
L 168.675159 210.43809 
L 169.077596 210.116001 
L 169.310966 209.945702 
L 169.570346 209.814061 
L 169.71557 209.685206 
L 170.118006 209.363603 
L 170.351376 209.193561 
L 170.610756 209.062121 
L 170.75598 208.933462 
L 171.158417 208.612349 
L 171.391787 208.442566 
L 171.651167 208.311328 
L 171.796391 208.182867 
L 172.198827 207.862247 
L 172.432197 207.692725 
L 172.691577 207.56169 
L 172.836801 207.433428 
L 173.239238 207.113305 
L 173.475497 206.93951 
L 173.756553 206.781112 
L 173.947295 206.485074 
L 174.371406 206.111416 
L 174.588881 206.028149 
L 174.796963 205.88188 
L 174.987705 205.586309 
L 175.411817 205.213238 
L 175.619899 205.141084 
L 175.812808 205.016069 
L 175.958032 204.888411 
L 176.361191 204.568622 
L 176.594561 204.401277 
L 176.853219 204.271126 
L 176.998443 204.143673 
L 177.401602 203.824394 
L 177.634972 203.657316 
L 177.893629 203.527375 
L 178.039576 203.399775 
L 178.442012 203.081361 
L 178.675382 202.914551 
L 178.93404 202.784821 
L 179.079986 202.657427 
L 179.483145 202.338359 
L 179.715793 202.172988 
L 179.97445 202.043469 
L 180.120397 201.916283 
L 180.523556 201.597734 
L 180.759093 201.428089 
L 181.039426 201.27158 
L 181.230168 200.978856 
L 181.656447 200.606881 
L 181.872477 200.52693 
L 182.079836 200.382425 
L 182.270578 200.090183 
L 182.696858 199.71882 
L 182.903495 199.649915 
L 183.096404 199.523472 
L 183.241628 199.399816 
L 183.644787 199.082838 
L 183.877434 198.918551 
L 184.136815 198.786986 
L 184.282038 198.663535 
L 184.68592 198.345925 
L 184.917845 198.18307 
L 185.177225 198.051725 
L 185.322449 197.928481 
L 185.72633 197.611402 
L 185.958255 197.448819 
L 186.217635 197.317694 
L 186.362859 197.194657 
L 186.766741 196.878109 
L 186.998666 196.715799 
L 187.258046 196.584896 
L 187.40327 196.462065 
L 187.807151 196.146052 
L 188.041966 195.979524 
L 188.322299 195.824836 
L 188.513763 195.535107 
L 188.940765 195.16622 
L 189.156072 195.088732 
L 189.363432 194.9433 
L 189.554174 194.656793 
L 189.981898 194.287711 
L 190.18709 194.222019 
L 190.379277 194.097117 
L 190.524501 193.974911 
L 190.929105 193.659355 
L 191.16103 193.499232 
L 191.419688 193.369273 
L 191.564912 193.247276 
L 191.969516 192.932259 
L 192.20144 192.772409 
L 192.460098 192.642673 
L 192.605322 192.520884 
L 193.009926 192.206407 
L 193.241851 192.046831 
L 193.500509 191.917317 
L 193.645732 191.795737 
L 194.051059 191.480657 
L 194.282261 191.322497 
L 194.540919 191.193205 
L 194.686143 191.071835 
L 195.09147 190.757296 
L 195.325562 190.594914 
L 195.605895 190.439479 
L 195.796637 190.155904 
L 196.225806 189.788972 
L 196.440391 189.71462 
L 196.646305 189.571152 
L 196.837047 189.288065 
L 197.266939 188.920953 
L 197.470686 188.858426 
L 197.662873 188.73224 
L 197.807374 188.61433 
L 198.212701 188.301416 
L 198.443903 188.144342 
L 198.703283 188.013111 
L 198.847785 187.895405 
L 199.253834 187.581899 
L 199.485036 187.426172 
L 199.743694 187.295224 
L 199.888195 187.177722 
L 200.294244 186.864758 
L 200.525447 186.7093 
L 200.784104 186.578578 
L 200.928606 186.461279 
L 201.334655 186.148856 
L 201.565857 185.993667 
L 201.824515 185.863171 
L 201.969016 185.746074 
L 202.375065 185.434191 
L 202.609158 185.274774 
L 202.888768 185.121322 
L 203.07951 184.841158 
L 203.510847 184.476228 
L 203.723986 184.405069 
L 203.929901 184.260774 
L 204.11992 183.983758 
L 204.551257 183.619458 
L 204.755004 183.559175 
L 204.945746 183.434619 
L 205.090247 183.318128 
L 205.497019 183.006737 
L 205.727499 182.853737 
L 205.986156 182.72414 
L 206.130658 182.607849 
L 206.537429 182.296995 
L 206.767909 182.144259 
L 207.026567 182.014884 
L 207.171068 181.898794 
L 207.57784 181.588474 
L 207.80832 181.436 
L 208.066977 181.306848 
L 208.211479 181.190957 
L 208.618973 180.880055 
L 208.84873 180.728958 
L 209.107388 180.600027 
L 209.251889 180.484334 
L 209.659383 180.173965 
L 209.892753 180.018573 
L 210.172363 179.864431 
L 210.362383 179.590257 
L 210.795887 179.227313 
L 211.007582 179.159277 
L 211.212774 179.016816 
L 211.402793 178.74311 
L 211.836298 178.380784 
L 212.0386 178.323544 
L 212.229342 178.19776 
L 212.373121 178.085424 
L 212.780615 177.776639 
L 213.011094 177.626514 
L 213.269752 177.495751 
L 213.413531 177.383605 
L 213.821748 177.074237 
L 214.051505 176.925471 
L 214.310163 176.794928 
L 214.453941 176.682971 
L 214.862158 176.374124 
L 215.091915 176.225609 
L 215.350573 176.095285 
L 215.494352 175.983516 
L 215.902568 175.675188 
L 216.132326 175.526922 
L 216.390983 175.396816 
L 216.534762 175.285233 
L 216.942979 174.97742 
L 217.175626 174.824957 
L 217.455959 174.670017 
L 217.645256 174.401666 
L 218.080928 174.040625 
L 218.2919 173.975521 
L 218.49637 173.832342 
L 218.685666 173.564435 
L 219.121338 173.203991 
L 219.322195 173.149715 
L 219.512215 173.025449 
L 219.655994 172.91442 
L 220.064933 172.607037 
L 220.293968 172.460846 
L 220.552625 172.331596 
L 220.696404 172.220748 
L 221.105343 171.913868 
L 221.335101 171.767861 
L 221.593036 171.638876 
L 221.736815 171.528208 
L 222.145754 171.221827 
L 222.375511 171.076057 
L 222.633446 170.947279 
L 222.777225 170.83679 
L 223.186887 170.529815 
L 223.415921 170.385369 
L 223.673857 170.256798 
L 223.817635 170.146486 
L 224.227297 169.840002 
L 224.459222 169.691339 
L 224.738832 169.538259 
L 224.928129 169.272944 
L 225.365969 168.913659 
L 225.575496 168.851509 
L 225.779243 168.710047 
L 225.96854 168.44515 
L 226.406379 168.086432 
L 226.605791 168.035035 
L 226.79581 167.909505 
L 226.938867 167.802419 
L 227.349251 167.496302 
L 227.577563 167.353851 
L 227.836221 167.223386 
L 227.979277 167.116466 
L 228.389661 166.810824 
L 228.617974 166.668594 
L 228.876631 166.53833 
L 229.019688 166.431574 
L 229.430072 166.126402 
L 229.658384 165.98439 
L 229.917042 165.854325 
L 230.060098 165.747731 
L 230.470482 165.443025 
L 230.698795 165.301229 
L 230.957452 165.17136 
L 231.100509 165.064927 
L 231.510893 164.76068 
L 231.742818 164.61459 
L 232.021705 164.463257 
L 232.211002 164.200782 
L 232.650287 163.843809 
L 232.859091 163.783751 
L 233.062838 163.641351 
L 233.251413 163.381809 
L 233.69142 163.024597 
L 233.889387 162.975989 
L 234.078684 162.851832 
L 234.222462 162.745549 
L 234.632847 162.441898 
L 234.861159 162.301959 
L 235.119094 162.172904 
L 235.262873 162.066774 
L 235.673257 161.763561 
L 235.901569 161.623824 
L 236.159504 161.494953 
L 236.303283 161.388975 
L 236.713667 161.086194 
L 236.94198 160.946656 
L 237.199915 160.817966 
L 237.343694 160.712137 
L 237.7548 160.408716 
L 237.98239 160.27044 
L 238.240325 160.141929 
L 238.384104 160.036247 
L 238.795211 159.733248 
L 239.025691 159.590753 
L 239.305301 159.438398 
L 239.494598 159.180675 
L 239.935327 158.825344 
L 240.142687 158.768052 
L 240.345711 158.627154 
L 240.535008 158.369779 
L 240.975738 158.014927 
L 241.172982 157.968259 
L 241.361557 157.845355 
L 241.505336 157.7401 
L 241.916442 157.438326 
L 242.144032 157.3008 
L 242.401967 157.172976 
L 242.545746 157.067859 
L 242.956853 156.76648 
L 243.184442 156.629133 
L 243.4431 156.498831 
L 243.586156 156.396492 
L 243.997986 156.094444 
L 244.225575 155.958279 
L 244.483511 155.828194 
L 244.626567 155.725985 
L 245.038396 155.424319 
L 245.265986 155.288327 
L 245.523921 155.158404 
L 245.666977 155.056322 
L 246.078807 154.755031 
L 246.309286 154.614784 
L 246.588174 154.463902 
L 246.777471 154.208492 
L 247.219645 153.854843 
L 247.426283 153.799464 
L 247.628585 153.659914 
L 247.817881 153.404811 
L 248.260778 153.050833 
L 248.456578 153.00678 
L 248.645152 152.882368 
L 248.788209 152.780653 
L 249.200038 152.480445 
L 249.427628 152.345109 
L 249.685563 152.215802 
L 249.828619 152.114204 
L 250.241171 151.813293 
L 250.468038 151.679162 
L 250.725973 151.550001 
L 250.86903 151.448518 
L 251.281581 151.147946 
L 251.508449 151.013966 
L 251.766384 150.884948 
L 251.90944 150.783576 
L 252.321992 150.483336 
L 252.548859 150.349504 
L 252.806794 150.220625 
L 252.949851 150.119363 
L 253.362402 149.819446 
L 253.592159 149.68137 
L 253.87177 149.529192 
L 254.060344 149.278273 
L 254.503964 148.92591 
L 254.709878 148.872353 
L 254.91218 148.731502 
L 255.100755 148.48084 
L 255.545097 148.128093 
L 255.740174 148.085818 
L 255.928025 147.962393 
L 256.071082 147.861442 
L 256.484356 147.561406 
L 256.710501 147.429173 
L 256.968436 147.300815 
L 257.111492 147.199963 
L 257.524766 146.900219 
L 257.750911 146.768115 
L 258.008846 146.639879 
L 258.151903 146.539122 
L 258.565177 146.239662 
L 258.792044 146.107631 
L 259.049257 145.979565 
L 259.192313 145.878901 
L 259.605587 145.579717 
L 259.832455 145.447807 
L 260.089667 145.319855 
L 260.232724 145.219281 
L 260.645998 144.920364 
L 260.875755 144.784159 
L 261.154643 144.633091 
L 261.343217 144.38383 
L 261.788282 144.032311 
L 261.993474 143.980485 
L 262.195053 143.840642 
L 262.383628 143.591589 
L 262.828692 143.240365 
L 263.023769 143.199049 
L 263.210899 143.076445 
L 263.353955 142.976123 
L 263.767229 142.677954 
L 263.994096 142.546492 
L 264.251309 142.418961 
L 264.394365 142.318717 
L 264.80764 142.020781 
L 265.034507 141.889421 
L 265.291719 141.761985 
L 265.434776 141.661816 
L 265.848773 141.363069 
L 266.074917 141.232842 
L 266.33213 141.105498 
L 266.475186 141.005401 
L 266.889183 140.706869 
L 267.115328 140.576735 
L 267.373263 140.446896 
L 267.515597 140.349452 
L 267.929593 140.051125 
L 268.158628 139.916693 
L 268.437516 139.766415 
L 268.62609 139.518457 
L 269.071877 139.168039 
L 269.277069 139.117116 
L 269.477926 138.978078 
L 269.666501 138.730277 
L 270.11301 138.379342 
L 270.307365 138.339656 
L 270.494494 138.215115 
L 270.636828 138.117855 
L 271.050825 137.820092 
L 271.27697 137.690293 
L 271.534905 137.560773 
L 271.677239 137.463568 
L 272.091235 137.165974 
L 272.31738 137.036249 
L 272.575315 136.906798 
L 272.717649 136.809645 
L 273.131646 136.512211 
L 273.35779 136.382556 
L 273.615726 136.25317 
L 273.758059 136.156067 
L 274.172056 135.858783 
L 274.398201 135.729194 
L 274.656136 135.599869 
L 274.79847 135.502812 
L 275.212467 135.20567 
L 275.442224 135.071666 
L 275.720389 134.922055 
L 275.908964 134.675028 
L 276.355473 134.325189 
L 276.559943 134.275188 
L 276.7608 134.136642 
L 276.949374 133.889716 
L 277.396606 133.539286 
L 277.590238 133.500474 
L 277.777367 133.376346 
L 277.919701 133.279409 
L 278.33442 132.981605 
L 278.559843 132.853264 
L 278.817778 132.724144 
L 278.960112 132.62724 
L 279.374831 132.329539 
L 279.600253 132.201243 
L 279.858188 132.072163 
L 280.000522 131.97529 
L 280.415241 131.677683 
L 280.640664 131.549427 
L 280.898599 131.420384 
L 281.040933 131.323538 
L 281.455652 131.026015 
L 281.681074 130.897795 
L 281.939009 130.768784 
L 282.081343 130.671962 
L 282.496062 130.374514 
L 282.725097 130.241861 
L 283.003985 130.090141 
L 283.191837 129.846095 
L 283.639069 129.496292 
L 283.842816 129.447131 
L 284.044395 129.306421 
L 284.232247 129.06242 
L 284.679479 128.712682 
L 284.873111 128.673945 
L 285.06024 128.550034 
L 285.202574 128.453265 
L 285.617294 128.155982 
L 285.842716 128.027865 
L 286.100651 127.898941 
L 286.242985 127.802184 
L 286.657704 127.504936 
L 286.883126 127.376834 
L 287.141061 127.247921 
L 287.283395 127.151173 
L 287.698114 126.853951 
L 287.923537 126.725859 
L 288.181472 126.596953 
L 288.323806 126.50021 
L 288.738525 126.203004 
L 288.963947 126.074919 
L 289.221882 125.946016 
L 289.364216 125.849275 
L 289.778935 125.552074 
L 290.00797 125.419529 
L 290.286858 125.267901 
L 290.47471 125.024003 
L 290.921942 124.674412 
L 291.125689 124.625275 
L 291.327268 124.484618 
L 291.51512 124.240709 
L 291.962352 123.891102 
L 292.155984 123.852376 
L 292.343114 123.728483 
L 292.485448 123.631729 
L 292.900167 123.334488 
L 293.125589 123.206388 
L 293.383524 123.077454 
L 293.525858 122.980688 
L 293.940577 122.683415 
L 294.165999 122.5553 
L 294.423935 122.426347 
L 294.566268 122.329568 
L 294.980988 122.032252 
L 295.20641 121.904119 
L 295.464345 121.775142 
L 295.606679 121.678346 
L 296.021398 121.380977 
L 296.24682 121.252822 
L 296.504755 121.123818 
L 296.647089 121.027002 
L 297.061808 120.729571 
L 297.290843 120.596921 
L 297.569731 120.44514 
L 297.757583 120.200997 
L 298.204815 119.851053 
L 298.408562 119.801863 
L 298.610142 119.661031 
L 298.797993 119.416821 
L 299.245225 119.066781 
L 299.438857 119.028006 
L 299.625987 118.903932 
L 299.768321 118.807036 
L 300.18304 118.50936 
L 300.408462 118.381071 
L 300.666397 118.251918 
L 300.808731 118.154989 
L 301.22345 117.857212 
L 301.448873 117.728879 
L 301.706808 117.599678 
L 301.849142 117.502713 
L 302.263138 117.205854 
L 302.489283 117.076445 
L 302.747218 116.947192 
L 302.889552 116.850188 
L 303.303549 116.553209 
L 303.529693 116.423748 
L 303.787629 116.294438 
L 303.929962 116.197392 
L 304.343959 115.900283 
L 304.573716 115.766287 
L 304.851882 115.616557 
L 305.040456 115.369333 
L 305.486966 115.019216 
L 305.691435 114.969157 
L 305.892292 114.830374 
L 306.080867 114.583027 
L 306.527376 114.232735 
L 306.72173 114.193112 
L 306.90886 114.068659 
L 307.051194 113.971468 
L 307.46519 113.673915 
L 307.691335 113.544204 
L 307.94927 113.414628 
L 308.091604 113.317382 
L 308.505601 113.019662 
L 308.731746 112.889878 
L 308.989681 112.760225 
L 309.132015 112.662921 
L 309.546011 112.365025 
L 309.772156 112.235164 
L 310.030091 112.105431 
L 310.172425 112.008067 
L 310.586422 111.709985 
L 310.812567 111.580043 
L 311.070502 111.450225 
L 311.212836 111.352798 
L 311.626832 111.054521 
L 311.855867 110.9201 
L 312.134755 110.769646 
L 312.323329 110.521397 
L 312.769116 110.170566 
L 312.974308 110.119557 
L 313.175165 109.980168 
L 313.36374 109.731742 
L 313.809527 109.380662 
L 314.003881 109.340176 
L 314.191011 109.21769 
L 314.334067 109.117466 
L 314.748064 108.818551 
L 314.974208 108.688245 
L 315.231421 108.56064 
L 315.374477 108.460337 
L 315.787752 108.162228 
L 316.014619 108.030785 
L 316.271831 107.903078 
L 316.414888 107.802695 
L 316.828162 107.504347 
L 317.055029 107.372799 
L 317.312242 107.244985 
L 317.455298 107.144519 
L 317.868572 106.845923 
L 318.09544 106.714266 
L 318.352652 106.586343 
L 318.495709 106.48579 
L 318.908983 106.186939 
L 319.13874 106.050749 
L 319.417628 105.899449 
L 319.606202 105.649806 
L 320.051267 105.297749 
L 320.256459 105.245809 
L 320.458038 105.105506 
L 320.646613 104.855634 
L 321.090955 104.503999 
L 321.286754 104.461787 
L 321.473884 104.338564 
L 321.61694 104.237736 
L 322.030214 103.938064 
L 322.257082 103.805932 
L 322.514294 103.677533 
L 322.657351 103.576607 
L 323.070625 103.276645 
L 323.296769 103.144436 
L 323.554705 103.015857 
L 323.697761 102.914831 
L 324.110313 102.615614 
L 324.33718 102.48223 
L 324.595115 102.35352 
L 324.738171 102.25239 
L 325.150723 101.952867 
L 325.37759 101.819347 
L 325.635525 101.690502 
L 325.778582 101.589266 
L 326.191134 101.289429 
L 326.421613 101.151267 
L 326.700501 100.998911 
L 326.889076 100.747524 
L 327.332695 100.394505 
L 327.53861 100.340807 
L 327.740912 100.199393 
L 327.929486 99.94773 
L 328.373105 99.594324 
L 328.568905 99.551111 
L 328.756757 99.42693 
L 328.899813 99.325361 
L 329.312365 99.024535 
L 329.539232 98.890434 
L 329.797167 98.761015 
L 329.940224 98.659329 
L 330.352053 98.359209 
L 330.579643 98.223903 
L 330.837578 98.094333 
L 330.980634 97.992528 
L 331.392463 97.692056 
L 331.620053 97.556592 
L 331.877988 97.426867 
L 332.021045 97.32494 
L 332.432874 97.024109 
L 332.660463 96.888483 
L 332.918399 96.7586 
L 333.061455 96.656549 
L 333.473284 96.355352 
L 333.703764 96.215127 
L 333.982652 96.063919 
L 334.171949 95.807959 
L 334.614123 95.453547 
L 334.82076 95.398 
L 335.023062 95.257804 
L 335.212359 95.00152 
L 335.653811 94.647417 
L 335.851056 94.601626 
L 336.038907 94.478976 
L 336.182686 94.373893 
L 336.593793 94.072611 
L 336.822105 93.935246 
L 337.079318 93.80735 
L 337.223097 93.702129 
L 337.634203 93.400455 
L 337.861793 93.262963 
L 338.119728 93.134844 
L 338.263507 93.029484 
L 338.674614 92.727409 
L 338.902204 92.589736 
L 339.160139 92.461444 
L 339.303918 92.355942 
L 339.715024 92.053461 
L 339.942614 91.915601 
L 340.200549 91.787134 
L 340.344328 91.681488 
L 340.755435 91.378594 
L 340.985915 91.236125 
L 341.265525 91.083402 
L 341.454822 90.825057 
L 341.894829 90.46963 
L 342.102911 90.411384 
L 342.305935 90.269756 
L 342.495232 90.011049 
L 342.935239 89.655122 
L 343.133206 89.607425 
L 343.321781 89.483545 
L 343.465559 89.377453 
L 343.875944 89.074349 
L 344.104256 88.93465 
L 344.362191 88.805455 
L 344.50597 88.699211 
L 344.916354 88.39567 
L 345.144666 88.25577 
L 345.402601 88.126387 
L 345.54638 88.019988 
L 345.956764 87.716005 
L 346.185077 87.575901 
L 346.443012 87.446327 
L 346.586068 87.340093 
L 346.997175 87.035339 
L 347.225487 86.895029 
L 347.483422 86.765262 
L 347.626479 86.658869 
L 348.036863 86.354736 
L 348.268788 86.208675 
L 348.547676 86.056944 
L 348.736972 85.79378 
L 349.176257 85.435869 
L 349.385061 85.375593 
L 349.588086 85.23495 
L 349.777383 84.971385 
L 350.215945 84.6137 
L 350.415357 84.56325 
L 350.604654 84.438018 
L 350.74771 84.331139 
L 351.158094 84.025615 
L 351.386407 83.883427 
L 351.645064 83.752811 
L 351.788121 83.645766 
L 352.198505 83.339769 
L 352.426817 83.19736 
L 352.684752 83.069247 
L 352.828531 82.959327 
L 353.238193 82.653934 
L 353.467227 82.51022 
L 353.725163 82.381904 
L 353.868941 82.271811 
L 354.278603 81.965936 
L 354.507638 81.821995 
L 354.765573 81.693476 
L 354.909352 81.583207 
L 355.319014 81.276846 
L 355.550938 81.128215 
L 355.830549 80.974707 
L 356.019846 80.708649 
L 356.456962 80.349138 
L 356.667212 80.285972 
L 356.870959 80.143661 
L 357.060256 79.877173 
L 357.497373 79.517082 
L 357.697507 79.464567 
L 357.886804 79.34061 
L 358.030583 79.229807 
L 358.439522 78.923052 
L 358.66928 78.777091 
L 358.927215 78.647737 
L 359.070994 78.536753 
L 359.479933 78.229497 
L 359.70969 78.083297 
L 359.967625 77.953731 
L 360.111404 77.842564 
L 360.520343 77.534802 
L 360.749378 77.388417 
L 361.008036 77.258581 
L 361.151815 77.147231 
L 361.560754 76.83896 
L 361.789788 76.692332 
L 362.048446 76.562281 
L 362.192225 76.450745 
L 362.600442 76.14306 
L 362.833089 75.990632 
L 363.112699 75.837853 
L 363.302719 75.566104 
L 363.737668 75.204796 
L 363.94864 75.138758 
L 364.15311 74.997189 
L 364.343129 74.724984 
L 364.778078 74.363069 
L 364.978936 74.307688 
L 365.169677 74.182171 
L 365.313456 74.070072 
L 365.721673 73.760835 
L 365.95143 73.612118 
L 366.210088 73.481188 
L 366.353867 73.3689 
L 366.762083 73.059139 
L 366.991841 72.91017 
L 367.250498 72.779018 
L 367.394277 72.666539 
L 367.801771 72.35736 
L 368.032251 72.20703 
L 368.290186 72.07843 
L 368.434688 71.962984 
L 368.842182 71.653277 
L 369.072662 71.502691 
L 369.330597 71.373871 
L 369.475098 71.258227 
L 369.882592 70.947991 
L 370.115962 70.792636 
L 370.395572 70.638032 
L 370.585592 70.363036 
L 371.018374 69.999799 
L 371.230791 69.930694 
L 371.435983 69.787317 
L 371.626002 69.511848 
L 372.058784 69.147987 
L 372.261086 69.089605 
L 372.451828 68.965317 
L 372.59633 68.849076 
L 373.003101 68.538356 
L 373.233581 68.385671 
L 373.492239 68.255906 
L 373.63674 68.139465 
L 374.043512 67.828209 
L 374.273991 67.675261 
L 374.532649 67.545272 
L 374.67715 67.42863 
L 375.083922 67.116836 
L 375.314402 66.963624 
L 375.573059 66.83341 
L 375.717561 66.716566 
L 376.124332 66.404233 
L 376.354812 66.250756 
L 376.61347 66.120317 
L 376.757971 66.003271 
L 377.16402 65.691523 
L 377.398113 65.532145 
L 377.677723 65.378228 
L 377.868465 65.097214 
L 378.299079 64.731984 
L 378.512941 64.659734 
L 378.718133 64.517182 
L 378.908875 64.235682 
L 379.33949 63.869819 
L 379.543237 63.808361 
L 379.734701 63.682504 
L 379.879203 63.564849 
L 380.285252 63.251478 
L 380.516454 63.095804 
L 380.775112 62.96446 
L 380.919613 62.846601 
L 381.32494 62.533822 
L 381.556142 62.376802 
L 381.815522 62.245174 
L 381.960024 62.127111 
L 382.36535 61.813791 
L 382.596552 61.656499 
L 382.855933 61.524644 
L 383.000434 61.406377 
L 383.405761 61.092516 
L 383.636963 60.934952 
L 383.89562 60.805717 
L 384.040844 60.684398 
L 384.446171 60.369996 
L 384.680263 60.207653 
L 384.960596 60.05175 
L 385.151338 59.767319 
L 385.579785 59.400095 
L 385.79437 59.324747 
L 386.001007 59.180235 
L 386.191749 58.895315 
L 386.620195 58.527459 
L 386.825387 58.46286 
L 387.016852 58.338281 
L 387.162076 58.216336 
L 387.56668 57.901454 
L 387.798605 57.741659 
L 388.057262 57.611533 
L 388.202486 57.489379 
L 388.60709 57.173959 
L 388.839015 57.01389 
L 389.097673 56.883542 
L 389.242897 56.76118 
L 389.647501 56.445221 
L 389.879426 56.284879 
L 390.138083 56.15431 
L 390.283307 56.031739 
L 390.687911 55.715243 
L 390.919836 55.554628 
L 391.178494 55.423837 
L 391.323718 55.301059 
L 391.727599 54.985179 
L 391.963136 54.818578 
L 392.242747 54.663546 
L 392.433489 54.373369 
L 392.861213 54.00298 
L 393.07652 53.925193 
L 393.283157 53.781584 
L 393.473899 53.490919 
L 393.900901 53.120734 
L 394.107538 53.052939 
L 394.299725 52.926817 
L 394.444949 52.803418 
L 394.84883 52.485941 
L 395.080755 52.32314 
L 395.340135 52.191411 
L 395.485359 52.067806 
L 395.888518 51.750959 
L 396.121166 51.586726 
L 396.380546 51.454779 
L 396.52577 51.330969 
L 396.928929 51.013597 
L 397.161576 50.849091 
L 397.420956 50.716925 
L 397.56618 50.592911 
L 397.969339 50.275015 
L 398.201987 50.110238 
L 398.461367 49.977855 
L 398.606591 49.853637 
L 399.00975 49.535219 
L 399.245287 49.365615 
L 399.52562 49.208657 
L 399.716362 48.915094 
L 400.141919 48.542889 
L 400.358671 48.461806 
L 400.56603 48.316413 
L 400.756772 48.022373 
L 401.182329 47.649564 
L 401.389689 47.579368 
L 401.581876 47.454661 
L 401.7271 47.327259 
L 402.130259 47.008108 
L 402.363628 46.841084 
L 402.622286 46.710777 
L 402.76751 46.583171 
L 403.170669 46.263509 
L 403.404039 46.096217 
L 403.662696 45.965703 
L 403.80792 45.837894 
L 404.211079 45.517724 
L 404.444449 45.350166 
L 404.703107 45.219446 
L 404.848331 45.091434 
L 405.25149 44.770758 
L 405.484137 44.602995 
L 405.743517 44.472011 
L 405.888741 44.343799 
L 406.291178 44.0238 
L 406.527438 43.850046 
L 406.807771 43.694021 
L 406.999235 43.394369 
L 407.422624 43.020536 
L 407.640821 42.936133 
L 407.848181 42.791817 
L 408.039645 42.491703 
L 408.463035 42.117293 
L 408.671839 42.04384 
L 408.864749 41.9177 
L 409.009973 41.788894 
L 409.412409 41.467413 
L 409.645779 41.297423 
L 409.905159 41.165633 
L 410.050383 41.036632 
L 410.45282 40.714664 
L 410.68619 40.544417 
L 410.94557 40.412429 
L 411.090794 40.283234 
L 411.49323 39.960783 
L 411.7266 39.79028 
L 411.98598 39.658096 
L 412.131204 39.528709 
L 412.532918 39.206968 
L 412.76701 39.035022 
L 413.026391 38.902643 
L 413.171614 38.773066 
L 413.573328 38.450852 
L 413.810311 38.274056 
L 414.090644 38.116385 
L 414.282108 37.813572 
L 414.704052 37.437501 
L 414.922972 37.350623 
L 415.131054 37.204679 
L 415.322519 36.90143 
L 415.744463 36.524817 
L 415.95399 36.448948 
L 416.147622 36.321443 
L 416.292846 36.191305 
L 416.69456 35.867695 
L 416.928652 35.694751 
L 417.18731 35.564609 
L 417.333256 35.43129 
L 417.73497 35.107224 
L 417.969063 34.934036 
L 418.22772 34.803713 
L 418.373667 34.670208 
L 418.774658 34.346891 
L 419.008751 34.172321 
L 419.268131 34.041759 
L 419.414077 33.908071 
L 419.815069 33.584309 
L 420.049161 33.409499 
L 420.308541 33.278759 
L 420.454488 33.144889 
L 420.855479 32.820688 
L 421.092461 32.64106 
L 421.373517 32.481725 
L 421.564981 32.175949 
L 421.98548 31.797923 
L 422.205123 31.708593 
L 422.413927 31.561119 
L 422.605392 31.254938 
L 423.025891 30.876411 
L 423.236141 30.798144 
L 423.429772 30.672384 
L 423.575719 30.537982 
L 423.97671 30.212493 
L 424.210803 30.03675 
L 424.470183 29.905322 
L 424.616129 29.770747 
L 425.016398 29.446049 
L 425.251213 29.26887 
L 425.510593 29.137275 
L 425.65654 29.00253 
L 426.056809 28.67742 
L 426.291624 28.500016 
L 426.551004 28.368257 
L 426.69695 28.233344 
L 427.097219 27.907829 
L 427.332034 27.730204 
L 427.591414 27.598283 
L 427.737361 27.463204 
L 428.13763 27.137288 
L 428.375335 26.954824 
L 428.655667 26.79696 
L 428.847854 26.485573 
L 429.266909 26.105921 
L 429.487273 26.014182 
L 429.696078 25.868185 
L 429.888265 25.556429 
L 430.307319 25.176325 
L 430.518291 25.095693 
L 430.712646 24.968787 
L 430.858592 24.833225 
L 431.258861 24.506146 
L 431.444545 24.331818 
L 431.444545 24.331818 
" style="fill:none;stroke:#1f77b4;stroke-linecap:square;stroke-width:1.2;"/>
   </g>
   <g id="patch_3">
    <path d="M 32.708 317.572 
L 32.708 10.368 
" style="fill:none;stroke:#000000;stroke-linecap:square;stroke-linejoin:miter;"/>
   </g>
   <g id="patch_4">
    <path d="M 450.432 317.572 
L 450.432 10.368 
" style="fill:none;stroke:#000000;stroke-linecap:square;stroke-linejoin:miter;"/>
   </g>
   <g id="patch_5">
    <path d="M 32.708 317.572 
L 450.432 317.572 
" style="fill:none;stroke:#000000;stroke-linecap:square;stroke-linejoin:miter;"/>
   </g>
   <g id="patch_6">
    <path d="M 32.708 10.368 
L 450.432 10.368 
" style="fill:none;stroke:#000000;stroke-linecap:square;stroke-linejoin:miter;"/>
   </g>
  </g>
 </g>
 <defs>
  <clipPath id="pa76bb7973b">
   <rect height="307.204" width="417.724" x="32.708" y="10.368"/>
  </clipPath>
 </defs>
</svg>
