<?xml version="1.0" encoding="utf-8" standalone="no"?>
<!DOCTYPE svg PUBLIC "-//W3C//DTD SVG 1.1//EN"
  "http://www.w3.org/Graphics/SVG/1.1/DTD/svg11.dtd">
<!-- Created with matplotlib (https://matplotlib.org/) -->
<svg height="345.6pt" version="1.1" viewBox="0 0 460.8 345.6" width="460.8pt" xmlns="http://www.w3.org/2000/svg" xmlns:xlink="http://www.w3.org/1999/xlink">
 <defs>
  <style type="text/css">
*{stroke-linecap:butt;stroke-linejoin:round;}
  </style>
 </defs>
 <g id="figure_1">
  <g id="patch_1">
   <path d="M 0 345.6 
L 460.8 345.6 
L 460.8 0 
L 0 0 
z
" style="fill:#ffffff;"/>
  </g>
  <g id="axes_1">
   <g id="patch_2">
    <path d="M 54.438 141.996 
L 450.432 141.996 
L 450.432 45.168 
L 54.438 45.168 
z
" style="fill:#ffffff;"/>
   </g>
   <g id="patch_3">
    <path clip-path="url(#p3c3cc7b3fb)" d="M 72.437727 141.996 
L 81.009026 141.996 
L 81.009026 107.517676 
L 72.437727 107.517676 
z
" style="fill:#1f77b4;fill-opacity:0.5;stroke:#000000;stroke-linejoin:miter;stroke-width:0.8;"/>
   </g>
   <g id="patch_4">
    <path clip-path="url(#p3c3cc7b3fb)" d="M 81.009026 141.996 
L 89.580325 141.996 
L 89.580325 104.328294 
L 81.009026 104.328294 
z
" style="fill:#1f77b4;fill-opacity:0.5;stroke:#000000;stroke-linejoin:miter;stroke-width:0.8;"/>
   </g>
   <g id="patch_5">
    <path clip-path="url(#p3c3cc7b3fb)" d="M 89.580325 141.996 
L 98.151623 141.996 
L 98.151623 103.283496 
L 89.580325 103.283496 
z
" style="fill:#1f77b4;fill-opacity:0.5;stroke:#000000;stroke-linejoin:miter;stroke-width:0.8;"/>
   </g>
   <g id="patch_6">
    <path clip-path="url(#p3c3cc7b3fb)" d="M 98.151623 141.996 
L 106.722922 141.996 
L 106.722922 111.806846 
L 98.151623 111.806846 
z
" style="fill:#1f77b4;fill-opacity:0.5;stroke:#000000;stroke-linejoin:miter;stroke-width:0.8;"/>
   </g>
   <g id="patch_7">
    <path clip-path="url(#p3c3cc7b3fb)" d="M 106.722922 141.996 
L 115.294221 141.996 
L 115.294221 105.208124 
L 106.722922 105.208124 
z
" style="fill:#1f77b4;fill-opacity:0.5;stroke:#000000;stroke-linejoin:miter;stroke-width:0.8;"/>
   </g>
   <g id="patch_8">
    <path clip-path="url(#p3c3cc7b3fb)" d="M 115.294221 141.996 
L 123.865519 141.996 
L 123.865519 107.902602 
L 115.294221 107.902602 
z
" style="fill:#1f77b4;fill-opacity:0.5;stroke:#000000;stroke-linejoin:miter;stroke-width:0.8;"/>
   </g>
   <g id="patch_9">
    <path clip-path="url(#p3c3cc7b3fb)" d="M 123.865519 141.996 
L 132.436818 141.996 
L 132.436818 112.466718 
L 123.865519 112.466718 
z
" style="fill:#1f77b4;fill-opacity:0.5;stroke:#000000;stroke-linejoin:miter;stroke-width:0.8;"/>
   </g>
   <g id="patch_10">
    <path clip-path="url(#p3c3cc7b3fb)" d="M 132.436818 141.996 
L 141.008117 141.996 
L 141.008117 120.330195 
L 132.436818 120.330195 
z
" style="fill:#1f77b4;fill-opacity:0.5;stroke:#000000;stroke-linejoin:miter;stroke-width:0.8;"/>
   </g>
   <g id="patch_11">
    <path clip-path="url(#p3c3cc7b3fb)" d="M 141.008117 141.996 
L 149.579416 141.996 
L 149.579416 115.106207 
L 141.008117 115.106207 
z
" style="fill:#1f77b4;fill-opacity:0.5;stroke:#000000;stroke-linejoin:miter;stroke-width:0.8;"/>
   </g>
   <g id="patch_12">
    <path clip-path="url(#p3c3cc7b3fb)" d="M 149.579416 141.996 
L 158.150714 141.996 
L 158.150714 116.151005 
L 149.579416 116.151005 
z
" style="fill:#1f77b4;fill-opacity:0.5;stroke:#000000;stroke-linejoin:miter;stroke-width:0.8;"/>
   </g>
   <g id="patch_13">
    <path clip-path="url(#p3c3cc7b3fb)" d="M 158.150714 141.996 
L 166.722013 141.996 
L 166.722013 119.725313 
L 158.150714 119.725313 
z
" style="fill:#1f77b4;fill-opacity:0.5;stroke:#000000;stroke-linejoin:miter;stroke-width:0.8;"/>
   </g>
   <g id="patch_14">
    <path clip-path="url(#p3c3cc7b3fb)" d="M 166.722013 141.996 
L 175.293312 141.996 
L 175.293312 124.509386 
L 166.722013 124.509386 
z
" style="fill:#1f77b4;fill-opacity:0.5;stroke:#000000;stroke-linejoin:miter;stroke-width:0.8;"/>
   </g>
   <g id="patch_15">
    <path clip-path="url(#p3c3cc7b3fb)" d="M 175.293312 141.996 
L 183.86461 141.996 
L 183.86461 118.570536 
L 175.293312 118.570536 
z
" style="fill:#1f77b4;fill-opacity:0.5;stroke:#000000;stroke-linejoin:miter;stroke-width:0.8;"/>
   </g>
   <g id="patch_16">
    <path clip-path="url(#p3c3cc7b3fb)" d="M 183.86461 141.996 
L 192.435909 141.996 
L 192.435909 119.505355 
L 183.86461 119.505355 
z
" style="fill:#1f77b4;fill-opacity:0.5;stroke:#000000;stroke-linejoin:miter;stroke-width:0.8;"/>
   </g>
   <g id="patch_17">
    <path clip-path="url(#p3c3cc7b3fb)" d="M 192.435909 141.996 
L 201.007208 141.996 
L 201.007208 125.554184 
L 192.435909 125.554184 
z
" style="fill:#1f77b4;fill-opacity:0.5;stroke:#000000;stroke-linejoin:miter;stroke-width:0.8;"/>
   </g>
   <g id="patch_18">
    <path clip-path="url(#p3c3cc7b3fb)" d="M 201.007208 141.996 
L 209.578506 141.996 
L 209.578506 102.018741 
L 201.007208 102.018741 
z
" style="fill:#1f77b4;fill-opacity:0.5;stroke:#000000;stroke-linejoin:miter;stroke-width:0.8;"/>
   </g>
   <g id="patch_19">
    <path clip-path="url(#p3c3cc7b3fb)" d="M 209.578506 141.996 
L 218.149805 141.996 
L 218.149805 49.778857 
L 209.578506 49.778857 
z
" style="fill:#1f77b4;fill-opacity:0.5;stroke:#000000;stroke-linejoin:miter;stroke-width:0.8;"/>
   </g>
   <g id="patch_20">
    <path clip-path="url(#p3c3cc7b3fb)" d="M 218.149805 141.996 
L 226.721104 141.996 
L 226.721104 62.701355 
L 218.149805 62.701355 
z
" style="fill:#1f77b4;fill-opacity:0.5;stroke:#000000;stroke-linejoin:miter;stroke-width:0.8;"/>
   </g>
   <g id="patch_21">
    <path clip-path="url(#p3c3cc7b3fb)" d="M 226.721104 141.996 
L 235.292403 141.996 
L 235.292403 117.305781 
L 226.721104 117.305781 
z
" style="fill:#1f77b4;fill-opacity:0.5;stroke:#000000;stroke-linejoin:miter;stroke-width:0.8;"/>
   </g>
   <g id="patch_22">
    <path clip-path="url(#p3c3cc7b3fb)" d="M 235.292403 141.996 
L 243.863701 141.996 
L 243.863701 133.912565 
L 235.292403 133.912565 
z
" style="fill:#1f77b4;fill-opacity:0.5;stroke:#000000;stroke-linejoin:miter;stroke-width:0.8;"/>
   </g>
   <g id="patch_23">
    <path clip-path="url(#p3c3cc7b3fb)" d="M 243.863701 141.996 
L 252.435 141.996 
L 252.435 136.167129 
L 243.863701 136.167129 
z
" style="fill:#1f77b4;fill-opacity:0.5;stroke:#000000;stroke-linejoin:miter;stroke-width:0.8;"/>
   </g>
   <g id="patch_24">
    <path clip-path="url(#p3c3cc7b3fb)" d="M 252.435 141.996 
L 261.006299 141.996 
L 261.006299 139.46649 
L 252.435 139.46649 
z
" style="fill:#1f77b4;fill-opacity:0.5;stroke:#000000;stroke-linejoin:miter;stroke-width:0.8;"/>
   </g>
   <g id="patch_25">
    <path clip-path="url(#p3c3cc7b3fb)" d="M 261.006299 141.996 
L 269.577597 141.996 
L 269.577597 140.401309 
L 261.006299 140.401309 
z
" style="fill:#1f77b4;fill-opacity:0.5;stroke:#000000;stroke-linejoin:miter;stroke-width:0.8;"/>
   </g>
   <g id="patch_26">
    <path clip-path="url(#p3c3cc7b3fb)" d="M 269.577597 141.996 
L 278.148896 141.996 
L 278.148896 139.631458 
L 269.577597 139.631458 
z
" style="fill:#1f77b4;fill-opacity:0.5;stroke:#000000;stroke-linejoin:miter;stroke-width:0.8;"/>
   </g>
   <g id="patch_27">
    <path clip-path="url(#p3c3cc7b3fb)" d="M 278.148896 141.996 
L 286.720195 141.996 
L 286.720195 140.566277 
L 278.148896 140.566277 
z
" style="fill:#1f77b4;fill-opacity:0.5;stroke:#000000;stroke-linejoin:miter;stroke-width:0.8;"/>
   </g>
   <g id="patch_28">
    <path clip-path="url(#p3c3cc7b3fb)" d="M 286.720195 141.996 
L 295.291494 141.996 
L 295.291494 140.346319 
L 286.720195 140.346319 
z
" style="fill:#1f77b4;fill-opacity:0.5;stroke:#000000;stroke-linejoin:miter;stroke-width:0.8;"/>
   </g>
   <g id="patch_29">
    <path clip-path="url(#p3c3cc7b3fb)" d="M 295.291494 141.996 
L 303.862792 141.996 
L 303.862792 140.346319 
L 295.291494 140.346319 
z
" style="fill:#1f77b4;fill-opacity:0.5;stroke:#000000;stroke-linejoin:miter;stroke-width:0.8;"/>
   </g>
   <g id="patch_30">
    <path clip-path="url(#p3c3cc7b3fb)" d="M 303.862792 141.996 
L 312.434091 141.996 
L 312.434091 141.006192 
L 303.862792 141.006192 
z
" style="fill:#1f77b4;fill-opacity:0.5;stroke:#000000;stroke-linejoin:miter;stroke-width:0.8;"/>
   </g>
   <g id="patch_31">
    <path clip-path="url(#p3c3cc7b3fb)" d="M 312.434091 141.996 
L 321.00539 141.996 
L 321.00539 140.566277 
L 312.434091 140.566277 
z
" style="fill:#1f77b4;fill-opacity:0.5;stroke:#000000;stroke-linejoin:miter;stroke-width:0.8;"/>
   </g>
   <g id="patch_32">
    <path clip-path="url(#p3c3cc7b3fb)" d="M 321.00539 141.996 
L 329.576688 141.996 
L 329.576688 119.505355 
L 321.00539 119.505355 
z
" style="fill:#1f77b4;fill-opacity:0.5;stroke:#000000;stroke-linejoin:miter;stroke-width:0.8;"/>
   </g>
   <g id="patch_33">
    <path clip-path="url(#p3c3cc7b3fb)" d="M 329.576688 141.996 
L 338.147987 141.996 
L 338.147987 136.222118 
L 329.576688 136.222118 
z
" style="fill:#1f77b4;fill-opacity:0.5;stroke:#000000;stroke-linejoin:miter;stroke-width:0.8;"/>
   </g>
   <g id="patch_34">
    <path clip-path="url(#p3c3cc7b3fb)" d="M 338.147987 141.996 
L 346.719286 141.996 
L 346.719286 141.006192 
L 338.147987 141.006192 
z
" style="fill:#1f77b4;fill-opacity:0.5;stroke:#000000;stroke-linejoin:miter;stroke-width:0.8;"/>
   </g>
   <g id="patch_35">
    <path clip-path="url(#p3c3cc7b3fb)" d="M 346.719286 141.996 
L 355.290584 141.996 
L 355.290584 140.786234 
L 346.719286 140.786234 
z
" style="fill:#1f77b4;fill-opacity:0.5;stroke:#000000;stroke-linejoin:miter;stroke-width:0.8;"/>
   </g>
   <g id="patch_36">
    <path clip-path="url(#p3c3cc7b3fb)" d="M 355.290584 141.996 
L 363.861883 141.996 
L 363.861883 139.906405 
L 355.290584 139.906405 
z
" style="fill:#1f77b4;fill-opacity:0.5;stroke:#000000;stroke-linejoin:miter;stroke-width:0.8;"/>
   </g>
   <g id="patch_37">
    <path clip-path="url(#p3c3cc7b3fb)" d="M 363.861883 141.996 
L 372.433182 141.996 
L 372.433182 140.951202 
L 363.861883 140.951202 
z
" style="fill:#1f77b4;fill-opacity:0.5;stroke:#000000;stroke-linejoin:miter;stroke-width:0.8;"/>
   </g>
   <g id="patch_38">
    <path clip-path="url(#p3c3cc7b3fb)" d="M 372.433182 141.996 
L 381.004481 141.996 
L 381.004481 140.621266 
L 372.433182 140.621266 
z
" style="fill:#1f77b4;fill-opacity:0.5;stroke:#000000;stroke-linejoin:miter;stroke-width:0.8;"/>
   </g>
   <g id="patch_39">
    <path clip-path="url(#p3c3cc7b3fb)" d="M 381.004481 141.996 
L 389.575779 141.996 
L 389.575779 141.446106 
L 381.004481 141.446106 
z
" style="fill:#1f77b4;fill-opacity:0.5;stroke:#000000;stroke-linejoin:miter;stroke-width:0.8;"/>
   </g>
   <g id="patch_40">
    <path clip-path="url(#p3c3cc7b3fb)" d="M 389.575779 141.996 
L 398.147078 141.996 
L 398.147078 141.391117 
L 389.575779 141.391117 
z
" style="fill:#1f77b4;fill-opacity:0.5;stroke:#000000;stroke-linejoin:miter;stroke-width:0.8;"/>
   </g>
   <g id="patch_41">
    <path clip-path="url(#p3c3cc7b3fb)" d="M 398.147078 141.996 
L 406.718377 141.996 
L 406.718377 141.556085 
L 398.147078 141.556085 
z
" style="fill:#1f77b4;fill-opacity:0.5;stroke:#000000;stroke-linejoin:miter;stroke-width:0.8;"/>
   </g>
   <g id="patch_42">
    <path clip-path="url(#p3c3cc7b3fb)" d="M 406.718377 141.996 
L 415.289675 141.996 
L 415.289675 141.446106 
L 406.718377 141.446106 
z
" style="fill:#1f77b4;fill-opacity:0.5;stroke:#000000;stroke-linejoin:miter;stroke-width:0.8;"/>
   </g>
   <g id="patch_43">
    <path clip-path="url(#p3c3cc7b3fb)" d="M 415.289675 141.996 
L 423.860974 141.996 
L 423.860974 141.831032 
L 415.289675 141.831032 
z
" style="fill:#1f77b4;fill-opacity:0.5;stroke:#000000;stroke-linejoin:miter;stroke-width:0.8;"/>
   </g>
   <g id="patch_44">
    <path clip-path="url(#p3c3cc7b3fb)" d="M 423.860974 141.996 
L 432.432273 141.996 
L 432.432273 141.776043 
L 423.860974 141.776043 
z
" style="fill:#1f77b4;fill-opacity:0.5;stroke:#000000;stroke-linejoin:miter;stroke-width:0.8;"/>
   </g>
   <g id="matplotlib.axis_1">
    <g id="xtick_1">
     <g id="line2d_1">
      <defs>
       <path d="M 0 0 
L 0 4.8 
" id="m4a2f0d0ef3" style="stroke:#000000;"/>
      </defs>
      <g>
       <use style="stroke:#000000;" x="72.134956" xlink:href="#m4a2f0d0ef3" y="141.996"/>
      </g>
     </g>
     <g id="text_1">
      <!-- 0 -->
      <defs>
       <path d="M 31.78125 66.40625 
Q 24.171875 66.40625 20.328125 58.90625 
Q 16.5 51.421875 16.5 36.375 
Q 16.5 21.390625 20.328125 13.890625 
Q 24.171875 6.390625 31.78125 6.390625 
Q 39.453125 6.390625 43.28125 13.890625 
Q 47.125 21.390625 47.125 36.375 
Q 47.125 51.421875 43.28125 58.90625 
Q 39.453125 66.40625 31.78125 66.40625 
z
M 31.78125 74.21875 
Q 44.046875 74.21875 50.515625 64.515625 
Q 56.984375 54.828125 56.984375 36.375 
Q 56.984375 17.96875 50.515625 8.265625 
Q 44.046875 -1.421875 31.78125 -1.421875 
Q 19.53125 -1.421875 13.0625 8.265625 
Q 6.59375 17.96875 6.59375 36.375 
Q 6.59375 54.828125 13.0625 64.515625 
Q 19.53125 74.21875 31.78125 74.21875 
z
" id="DejaVuSans-48"/>
      </defs>
      <g transform="translate(69.335456 156.982625)scale(0.088 -0.088)">
       <use xlink:href="#DejaVuSans-48"/>
      </g>
     </g>
    </g>
    <g id="xtick_2">
     <g id="line2d_2">
      <g>
       <use style="stroke:#000000;" x="132.689127" xlink:href="#m4a2f0d0ef3" y="141.996"/>
      </g>
     </g>
     <g id="text_2">
      <!-- 200 -->
      <defs>
       <path d="M 19.1875 8.296875 
L 53.609375 8.296875 
L 53.609375 0 
L 7.328125 0 
L 7.328125 8.296875 
Q 12.9375 14.109375 22.625 23.890625 
Q 32.328125 33.6875 34.8125 36.53125 
Q 39.546875 41.84375 41.421875 45.53125 
Q 43.3125 49.21875 43.3125 52.78125 
Q 43.3125 58.59375 39.234375 62.25 
Q 35.15625 65.921875 28.609375 65.921875 
Q 23.96875 65.921875 18.8125 64.3125 
Q 13.671875 62.703125 7.8125 59.421875 
L 7.8125 69.390625 
Q 13.765625 71.78125 18.9375 73 
Q 24.125 74.21875 28.421875 74.21875 
Q 39.75 74.21875 46.484375 68.546875 
Q 53.21875 62.890625 53.21875 53.421875 
Q 53.21875 48.921875 51.53125 44.890625 
Q 49.859375 40.875 45.40625 35.40625 
Q 44.1875 33.984375 37.640625 27.21875 
Q 31.109375 20.453125 19.1875 8.296875 
z
" id="DejaVuSans-50"/>
      </defs>
      <g transform="translate(124.290627 156.982625)scale(0.088 -0.088)">
       <use xlink:href="#DejaVuSans-50"/>
       <use x="63.623047" xlink:href="#DejaVuSans-48"/>
       <use x="127.246094" xlink:href="#DejaVuSans-48"/>
      </g>
     </g>
    </g>
    <g id="xtick_3">
     <g id="line2d_3">
      <g>
       <use style="stroke:#000000;" x="193.243298" xlink:href="#m4a2f0d0ef3" y="141.996"/>
      </g>
     </g>
     <g id="text_3">
      <!-- 400 -->
      <defs>
       <path d="M 37.796875 64.3125 
L 12.890625 25.390625 
L 37.796875 25.390625 
z
M 35.203125 72.90625 
L 47.609375 72.90625 
L 47.609375 25.390625 
L 58.015625 25.390625 
L 58.015625 17.1875 
L 47.609375 17.1875 
L 47.609375 0 
L 37.796875 0 
L 37.796875 17.1875 
L 4.890625 17.1875 
L 4.890625 26.703125 
z
" id="DejaVuSans-52"/>
      </defs>
      <g transform="translate(184.844798 156.982625)scale(0.088 -0.088)">
       <use xlink:href="#DejaVuSans-52"/>
       <use x="63.623047" xlink:href="#DejaVuSans-48"/>
       <use x="127.246094" xlink:href="#DejaVuSans-48"/>
      </g>
     </g>
    </g>
    <g id="xtick_4">
     <g id="line2d_4">
      <g>
       <use style="stroke:#000000;" x="253.797469" xlink:href="#m4a2f0d0ef3" y="141.996"/>
      </g>
     </g>
     <g id="text_4">
      <!-- 600 -->
      <defs>
       <path d="M 33.015625 40.375 
Q 26.375 40.375 22.484375 35.828125 
Q 18.609375 31.296875 18.609375 23.390625 
Q 18.609375 15.53125 22.484375 10.953125 
Q 26.375 6.390625 33.015625 6.390625 
Q 39.65625 6.390625 43.53125 10.953125 
Q 47.40625 15.53125 47.40625 23.390625 
Q 47.40625 31.296875 43.53125 35.828125 
Q 39.65625 40.375 33.015625 40.375 
z
M 52.59375 71.296875 
L 52.59375 62.3125 
Q 48.875 64.0625 45.09375 64.984375 
Q 41.3125 65.921875 37.59375 65.921875 
Q 27.828125 65.921875 22.671875 59.328125 
Q 17.53125 52.734375 16.796875 39.40625 
Q 19.671875 43.65625 24.015625 45.921875 
Q 28.375 48.1875 33.59375 48.1875 
Q 44.578125 48.1875 50.953125 41.515625 
Q 57.328125 34.859375 57.328125 23.390625 
Q 57.328125 12.15625 50.6875 5.359375 
Q 44.046875 -1.421875 33.015625 -1.421875 
Q 20.359375 -1.421875 13.671875 8.265625 
Q 6.984375 17.96875 6.984375 36.375 
Q 6.984375 53.65625 15.1875 63.9375 
Q 23.390625 74.21875 37.203125 74.21875 
Q 40.921875 74.21875 44.703125 73.484375 
Q 48.484375 72.75 52.59375 71.296875 
z
" id="DejaVuSans-54"/>
      </defs>
      <g transform="translate(245.398969 156.982625)scale(0.088 -0.088)">
       <use xlink:href="#DejaVuSans-54"/>
       <use x="63.623047" xlink:href="#DejaVuSans-48"/>
       <use x="127.246094" xlink:href="#DejaVuSans-48"/>
      </g>
     </g>
    </g>
    <g id="xtick_5">
     <g id="line2d_5">
      <g>
       <use style="stroke:#000000;" x="314.35164" xlink:href="#m4a2f0d0ef3" y="141.996"/>
      </g>
     </g>
     <g id="text_5">
      <!-- 800 -->
      <defs>
       <path d="M 31.78125 34.625 
Q 24.75 34.625 20.71875 30.859375 
Q 16.703125 27.09375 16.703125 20.515625 
Q 16.703125 13.921875 20.71875 10.15625 
Q 24.75 6.390625 31.78125 6.390625 
Q 38.8125 6.390625 42.859375 10.171875 
Q 46.921875 13.96875 46.921875 20.515625 
Q 46.921875 27.09375 42.890625 30.859375 
Q 38.875 34.625 31.78125 34.625 
z
M 21.921875 38.8125 
Q 15.578125 40.375 12.03125 44.71875 
Q 8.5 49.078125 8.5 55.328125 
Q 8.5 64.0625 14.71875 69.140625 
Q 20.953125 74.21875 31.78125 74.21875 
Q 42.671875 74.21875 48.875 69.140625 
Q 55.078125 64.0625 55.078125 55.328125 
Q 55.078125 49.078125 51.53125 44.71875 
Q 48 40.375 41.703125 38.8125 
Q 48.828125 37.15625 52.796875 32.3125 
Q 56.78125 27.484375 56.78125 20.515625 
Q 56.78125 9.90625 50.3125 4.234375 
Q 43.84375 -1.421875 31.78125 -1.421875 
Q 19.734375 -1.421875 13.25 4.234375 
Q 6.78125 9.90625 6.78125 20.515625 
Q 6.78125 27.484375 10.78125 32.3125 
Q 14.796875 37.15625 21.921875 38.8125 
z
M 18.3125 54.390625 
Q 18.3125 48.734375 21.84375 45.5625 
Q 25.390625 42.390625 31.78125 42.390625 
Q 38.140625 42.390625 41.71875 45.5625 
Q 45.3125 48.734375 45.3125 54.390625 
Q 45.3125 60.0625 41.71875 63.234375 
Q 38.140625 66.40625 31.78125 66.40625 
Q 25.390625 66.40625 21.84375 63.234375 
Q 18.3125 60.0625 18.3125 54.390625 
z
" id="DejaVuSans-56"/>
      </defs>
      <g transform="translate(305.95314 156.982625)scale(0.088 -0.088)">
       <use xlink:href="#DejaVuSans-56"/>
       <use x="63.623047" xlink:href="#DejaVuSans-48"/>
       <use x="127.246094" xlink:href="#DejaVuSans-48"/>
      </g>
     </g>
    </g>
    <g id="xtick_6">
     <g id="line2d_6">
      <g>
       <use style="stroke:#000000;" x="374.90581" xlink:href="#m4a2f0d0ef3" y="141.996"/>
      </g>
     </g>
     <g id="text_6">
      <!-- 1000 -->
      <defs>
       <path d="M 12.40625 8.296875 
L 28.515625 8.296875 
L 28.515625 63.921875 
L 10.984375 60.40625 
L 10.984375 69.390625 
L 28.421875 72.90625 
L 38.28125 72.90625 
L 38.28125 8.296875 
L 54.390625 8.296875 
L 54.390625 0 
L 12.40625 0 
z
" id="DejaVuSans-49"/>
      </defs>
      <g transform="translate(363.70781 156.982625)scale(0.088 -0.088)">
       <use xlink:href="#DejaVuSans-49"/>
       <use x="63.623047" xlink:href="#DejaVuSans-48"/>
       <use x="127.246094" xlink:href="#DejaVuSans-48"/>
       <use x="190.869141" xlink:href="#DejaVuSans-48"/>
      </g>
     </g>
    </g>
    <g id="xtick_7">
     <g id="line2d_7">
      <g>
       <use style="stroke:#000000;" x="435.459981" xlink:href="#m4a2f0d0ef3" y="141.996"/>
      </g>
     </g>
     <g id="text_7">
      <!-- 1200 -->
      <g transform="translate(424.261981 156.982625)scale(0.088 -0.088)">
       <use xlink:href="#DejaVuSans-49"/>
       <use x="63.623047" xlink:href="#DejaVuSans-50"/>
       <use x="127.246094" xlink:href="#DejaVuSans-48"/>
       <use x="190.869141" xlink:href="#DejaVuSans-48"/>
      </g>
     </g>
    </g>
    <g id="text_8">
     <!-- Flowrate [L/h] -->
     <defs>
      <path d="M 9.8125 72.90625 
L 51.703125 72.90625 
L 51.703125 64.59375 
L 19.671875 64.59375 
L 19.671875 43.109375 
L 48.578125 43.109375 
L 48.578125 34.8125 
L 19.671875 34.8125 
L 19.671875 0 
L 9.8125 0 
z
" id="DejaVuSans-70"/>
      <path d="M 9.421875 75.984375 
L 18.40625 75.984375 
L 18.40625 0 
L 9.421875 0 
z
" id="DejaVuSans-108"/>
      <path d="M 30.609375 48.390625 
Q 23.390625 48.390625 19.1875 42.75 
Q 14.984375 37.109375 14.984375 27.296875 
Q 14.984375 17.484375 19.15625 11.84375 
Q 23.34375 6.203125 30.609375 6.203125 
Q 37.796875 6.203125 41.984375 11.859375 
Q 46.1875 17.53125 46.1875 27.296875 
Q 46.1875 37.015625 41.984375 42.703125 
Q 37.796875 48.390625 30.609375 48.390625 
z
M 30.609375 56 
Q 42.328125 56 49.015625 48.375 
Q 55.71875 40.765625 55.71875 27.296875 
Q 55.71875 13.875 49.015625 6.21875 
Q 42.328125 -1.421875 30.609375 -1.421875 
Q 18.84375 -1.421875 12.171875 6.21875 
Q 5.515625 13.875 5.515625 27.296875 
Q 5.515625 40.765625 12.171875 48.375 
Q 18.84375 56 30.609375 56 
z
" id="DejaVuSans-111"/>
      <path d="M 4.203125 54.6875 
L 13.1875 54.6875 
L 24.421875 12.015625 
L 35.59375 54.6875 
L 46.1875 54.6875 
L 57.421875 12.015625 
L 68.609375 54.6875 
L 77.59375 54.6875 
L 63.28125 0 
L 52.6875 0 
L 40.921875 44.828125 
L 29.109375 0 
L 18.5 0 
z
" id="DejaVuSans-119"/>
      <path d="M 41.109375 46.296875 
Q 39.59375 47.171875 37.8125 47.578125 
Q 36.03125 48 33.890625 48 
Q 26.265625 48 22.1875 43.046875 
Q 18.109375 38.09375 18.109375 28.8125 
L 18.109375 0 
L 9.078125 0 
L 9.078125 54.6875 
L 18.109375 54.6875 
L 18.109375 46.1875 
Q 20.953125 51.171875 25.484375 53.578125 
Q 30.03125 56 36.53125 56 
Q 37.453125 56 38.578125 55.875 
Q 39.703125 55.765625 41.0625 55.515625 
z
" id="DejaVuSans-114"/>
      <path d="M 34.28125 27.484375 
Q 23.390625 27.484375 19.1875 25 
Q 14.984375 22.515625 14.984375 16.5 
Q 14.984375 11.71875 18.140625 8.90625 
Q 21.296875 6.109375 26.703125 6.109375 
Q 34.1875 6.109375 38.703125 11.40625 
Q 43.21875 16.703125 43.21875 25.484375 
L 43.21875 27.484375 
z
M 52.203125 31.203125 
L 52.203125 0 
L 43.21875 0 
L 43.21875 8.296875 
Q 40.140625 3.328125 35.546875 0.953125 
Q 30.953125 -1.421875 24.3125 -1.421875 
Q 15.921875 -1.421875 10.953125 3.296875 
Q 6 8.015625 6 15.921875 
Q 6 25.140625 12.171875 29.828125 
Q 18.359375 34.515625 30.609375 34.515625 
L 43.21875 34.515625 
L 43.21875 35.40625 
Q 43.21875 41.609375 39.140625 45 
Q 35.0625 48.390625 27.6875 48.390625 
Q 23 48.390625 18.546875 47.265625 
Q 14.109375 46.140625 10.015625 43.890625 
L 10.015625 52.203125 
Q 14.9375 54.109375 19.578125 55.046875 
Q 24.21875 56 28.609375 56 
Q 40.484375 56 46.34375 49.84375 
Q 52.203125 43.703125 52.203125 31.203125 
z
" id="DejaVuSans-97"/>
      <path d="M 18.3125 70.21875 
L 18.3125 54.6875 
L 36.8125 54.6875 
L 36.8125 47.703125 
L 18.3125 47.703125 
L 18.3125 18.015625 
Q 18.3125 11.328125 20.140625 9.421875 
Q 21.96875 7.515625 27.59375 7.515625 
L 36.8125 7.515625 
L 36.8125 0 
L 27.59375 0 
Q 17.1875 0 13.234375 3.875 
Q 9.28125 7.765625 9.28125 18.015625 
L 9.28125 47.703125 
L 2.6875 47.703125 
L 2.6875 54.6875 
L 9.28125 54.6875 
L 9.28125 70.21875 
z
" id="DejaVuSans-116"/>
      <path d="M 56.203125 29.59375 
L 56.203125 25.203125 
L 14.890625 25.203125 
Q 15.484375 15.921875 20.484375 11.0625 
Q 25.484375 6.203125 34.421875 6.203125 
Q 39.59375 6.203125 44.453125 7.46875 
Q 49.3125 8.734375 54.109375 11.28125 
L 54.109375 2.78125 
Q 49.265625 0.734375 44.1875 -0.34375 
Q 39.109375 -1.421875 33.890625 -1.421875 
Q 20.796875 -1.421875 13.15625 6.1875 
Q 5.515625 13.8125 5.515625 26.8125 
Q 5.515625 40.234375 12.765625 48.109375 
Q 20.015625 56 32.328125 56 
Q 43.359375 56 49.78125 48.890625 
Q 56.203125 41.796875 56.203125 29.59375 
z
M 47.21875 32.234375 
Q 47.125 39.59375 43.09375 43.984375 
Q 39.0625 48.390625 32.421875 48.390625 
Q 24.90625 48.390625 20.390625 44.140625 
Q 15.875 39.890625 15.1875 32.171875 
z
" id="DejaVuSans-101"/>
      <path id="DejaVuSans-32"/>
      <path d="M 8.59375 75.984375 
L 29.296875 75.984375 
L 29.296875 69 
L 17.578125 69 
L 17.578125 -6.203125 
L 29.296875 -6.203125 
L 29.296875 -13.1875 
L 8.59375 -13.1875 
z
" id="DejaVuSans-91"/>
      <path d="M 9.8125 72.90625 
L 19.671875 72.90625 
L 19.671875 8.296875 
L 55.171875 8.296875 
L 55.171875 0 
L 9.8125 0 
z
" id="DejaVuSans-76"/>
      <path d="M 25.390625 72.90625 
L 33.6875 72.90625 
L 8.296875 -9.28125 
L 0 -9.28125 
z
" id="DejaVuSans-47"/>
      <path d="M 54.890625 33.015625 
L 54.890625 0 
L 45.90625 0 
L 45.90625 32.71875 
Q 45.90625 40.484375 42.875 44.328125 
Q 39.84375 48.1875 33.796875 48.1875 
Q 26.515625 48.1875 22.3125 43.546875 
Q 18.109375 38.921875 18.109375 30.90625 
L 18.109375 0 
L 9.078125 0 
L 9.078125 75.984375 
L 18.109375 75.984375 
L 18.109375 46.1875 
Q 21.34375 51.125 25.703125 53.5625 
Q 30.078125 56 35.796875 56 
Q 45.21875 56 50.046875 50.171875 
Q 54.890625 44.34375 54.890625 33.015625 
z
" id="DejaVuSans-104"/>
      <path d="M 30.421875 75.984375 
L 30.421875 -13.1875 
L 9.71875 -13.1875 
L 9.71875 -6.203125 
L 21.390625 -6.203125 
L 21.390625 69 
L 9.71875 69 
L 9.71875 75.984375 
z
" id="DejaVuSans-93"/>
     </defs>
     <g transform="translate(219.12375 170.10725)scale(0.096 -0.096)">
      <use xlink:href="#DejaVuSans-70"/>
      <use x="57.519531" xlink:href="#DejaVuSans-108"/>
      <use x="85.302734" xlink:href="#DejaVuSans-111"/>
      <use x="146.484375" xlink:href="#DejaVuSans-119"/>
      <use x="228.271484" xlink:href="#DejaVuSans-114"/>
      <use x="269.384766" xlink:href="#DejaVuSans-97"/>
      <use x="330.664062" xlink:href="#DejaVuSans-116"/>
      <use x="369.873047" xlink:href="#DejaVuSans-101"/>
      <use x="431.396484" xlink:href="#DejaVuSans-32"/>
      <use x="463.183594" xlink:href="#DejaVuSans-91"/>
      <use x="502.197266" xlink:href="#DejaVuSans-76"/>
      <use x="557.910156" xlink:href="#DejaVuSans-47"/>
      <use x="591.601562" xlink:href="#DejaVuSans-104"/>
      <use x="654.980469" xlink:href="#DejaVuSans-93"/>
     </g>
    </g>
   </g>
   <g id="matplotlib.axis_2">
    <g id="ytick_1">
     <g id="line2d_8">
      <defs>
       <path d="M 0 0 
L -4.8 0 
" id="m8a8a1618fa" style="stroke:#000000;"/>
      </defs>
      <g>
       <use style="stroke:#000000;" x="54.438" xlink:href="#m8a8a1618fa" y="141.996"/>
      </g>
     </g>
     <g id="text_9">
      <!-- 0 -->
      <g transform="translate(40.539 145.339313)scale(0.088 -0.088)">
       <use xlink:href="#DejaVuSans-48"/>
      </g>
     </g>
    </g>
    <g id="ytick_2">
     <g id="line2d_9">
      <g>
       <use style="stroke:#000000;" x="54.438" xlink:href="#m8a8a1618fa" y="114.501324"/>
      </g>
     </g>
     <g id="text_10">
      <!-- 500 -->
      <defs>
       <path d="M 10.796875 72.90625 
L 49.515625 72.90625 
L 49.515625 64.59375 
L 19.828125 64.59375 
L 19.828125 46.734375 
Q 21.96875 47.46875 24.109375 47.828125 
Q 26.265625 48.1875 28.421875 48.1875 
Q 40.625 48.1875 47.75 41.5 
Q 54.890625 34.8125 54.890625 23.390625 
Q 54.890625 11.625 47.5625 5.09375 
Q 40.234375 -1.421875 26.90625 -1.421875 
Q 22.3125 -1.421875 17.546875 -0.640625 
Q 12.796875 0.140625 7.71875 1.703125 
L 7.71875 11.625 
Q 12.109375 9.234375 16.796875 8.0625 
Q 21.484375 6.890625 26.703125 6.890625 
Q 35.15625 6.890625 40.078125 11.328125 
Q 45.015625 15.765625 45.015625 23.390625 
Q 45.015625 31 40.078125 35.4375 
Q 35.15625 39.890625 26.703125 39.890625 
Q 22.75 39.890625 18.8125 39.015625 
Q 14.890625 38.140625 10.796875 36.28125 
z
" id="DejaVuSans-53"/>
      </defs>
      <g transform="translate(29.341 117.844637)scale(0.088 -0.088)">
       <use xlink:href="#DejaVuSans-53"/>
       <use x="63.623047" xlink:href="#DejaVuSans-48"/>
       <use x="127.246094" xlink:href="#DejaVuSans-48"/>
      </g>
     </g>
    </g>
    <g id="ytick_3">
     <g id="line2d_10">
      <g>
       <use style="stroke:#000000;" x="54.438" xlink:href="#m8a8a1618fa" y="87.006648"/>
      </g>
     </g>
     <g id="text_11">
      <!-- 1000 -->
      <g transform="translate(23.742 90.349961)scale(0.088 -0.088)">
       <use xlink:href="#DejaVuSans-49"/>
       <use x="63.623047" xlink:href="#DejaVuSans-48"/>
       <use x="127.246094" xlink:href="#DejaVuSans-48"/>
       <use x="190.869141" xlink:href="#DejaVuSans-48"/>
      </g>
     </g>
    </g>
    <g id="ytick_4">
     <g id="line2d_11">
      <g>
       <use style="stroke:#000000;" x="54.438" xlink:href="#m8a8a1618fa" y="59.511972"/>
      </g>
     </g>
     <g id="text_12">
      <!-- 1500 -->
      <g transform="translate(23.742 62.855285)scale(0.088 -0.088)">
       <use xlink:href="#DejaVuSans-49"/>
       <use x="63.623047" xlink:href="#DejaVuSans-53"/>
       <use x="127.246094" xlink:href="#DejaVuSans-48"/>
       <use x="190.869141" xlink:href="#DejaVuSans-48"/>
      </g>
     </g>
    </g>
    <g id="text_13">
     <!-- Count in a Year -->
     <defs>
      <path d="M 64.40625 67.28125 
L 64.40625 56.890625 
Q 59.421875 61.53125 53.78125 63.8125 
Q 48.140625 66.109375 41.796875 66.109375 
Q 29.296875 66.109375 22.65625 58.46875 
Q 16.015625 50.828125 16.015625 36.375 
Q 16.015625 21.96875 22.65625 14.328125 
Q 29.296875 6.6875 41.796875 6.6875 
Q 48.140625 6.6875 53.78125 8.984375 
Q 59.421875 11.28125 64.40625 15.921875 
L 64.40625 5.609375 
Q 59.234375 2.09375 53.4375 0.328125 
Q 47.65625 -1.421875 41.21875 -1.421875 
Q 24.65625 -1.421875 15.125 8.703125 
Q 5.609375 18.84375 5.609375 36.375 
Q 5.609375 53.953125 15.125 64.078125 
Q 24.65625 74.21875 41.21875 74.21875 
Q 47.75 74.21875 53.53125 72.484375 
Q 59.328125 70.75 64.40625 67.28125 
z
" id="DejaVuSans-67"/>
      <path d="M 8.5 21.578125 
L 8.5 54.6875 
L 17.484375 54.6875 
L 17.484375 21.921875 
Q 17.484375 14.15625 20.5 10.265625 
Q 23.53125 6.390625 29.59375 6.390625 
Q 36.859375 6.390625 41.078125 11.03125 
Q 45.3125 15.671875 45.3125 23.6875 
L 45.3125 54.6875 
L 54.296875 54.6875 
L 54.296875 0 
L 45.3125 0 
L 45.3125 8.40625 
Q 42.046875 3.421875 37.71875 1 
Q 33.40625 -1.421875 27.6875 -1.421875 
Q 18.265625 -1.421875 13.375 4.4375 
Q 8.5 10.296875 8.5 21.578125 
z
M 31.109375 56 
z
" id="DejaVuSans-117"/>
      <path d="M 54.890625 33.015625 
L 54.890625 0 
L 45.90625 0 
L 45.90625 32.71875 
Q 45.90625 40.484375 42.875 44.328125 
Q 39.84375 48.1875 33.796875 48.1875 
Q 26.515625 48.1875 22.3125 43.546875 
Q 18.109375 38.921875 18.109375 30.90625 
L 18.109375 0 
L 9.078125 0 
L 9.078125 54.6875 
L 18.109375 54.6875 
L 18.109375 46.1875 
Q 21.34375 51.125 25.703125 53.5625 
Q 30.078125 56 35.796875 56 
Q 45.21875 56 50.046875 50.171875 
Q 54.890625 44.34375 54.890625 33.015625 
z
" id="DejaVuSans-110"/>
      <path d="M 9.421875 54.6875 
L 18.40625 54.6875 
L 18.40625 0 
L 9.421875 0 
z
M 9.421875 75.984375 
L 18.40625 75.984375 
L 18.40625 64.59375 
L 9.421875 64.59375 
z
" id="DejaVuSans-105"/>
      <path d="M -0.203125 72.90625 
L 10.40625 72.90625 
L 30.609375 42.921875 
L 50.6875 72.90625 
L 61.28125 72.90625 
L 35.5 34.71875 
L 35.5 0 
L 25.59375 0 
L 25.59375 34.71875 
z
" id="DejaVuSans-89"/>
     </defs>
     <g transform="translate(17.7455 129.894)rotate(-90)scale(0.096 -0.096)">
      <use xlink:href="#DejaVuSans-67"/>
      <use x="69.824219" xlink:href="#DejaVuSans-111"/>
      <use x="131.005859" xlink:href="#DejaVuSans-117"/>
      <use x="194.384766" xlink:href="#DejaVuSans-110"/>
      <use x="257.763672" xlink:href="#DejaVuSans-116"/>
      <use x="296.972656" xlink:href="#DejaVuSans-32"/>
      <use x="328.759766" xlink:href="#DejaVuSans-105"/>
      <use x="356.542969" xlink:href="#DejaVuSans-110"/>
      <use x="419.921875" xlink:href="#DejaVuSans-32"/>
      <use x="451.708984" xlink:href="#DejaVuSans-97"/>
      <use x="512.988281" xlink:href="#DejaVuSans-32"/>
      <use x="544.775391" xlink:href="#DejaVuSans-89"/>
      <use x="592.609375" xlink:href="#DejaVuSans-101"/>
      <use x="654.132812" xlink:href="#DejaVuSans-97"/>
      <use x="715.412109" xlink:href="#DejaVuSans-114"/>
     </g>
    </g>
   </g>
   <g id="line2d_12">
    <path clip-path="url(#p3c3cc7b3fb)" d="M 72.437727 123.920938 
L 76.055763 118.944478 
L 77.864781 116.655001 
L 79.673799 114.576592 
L 81.482816 112.747137 
L 83.291834 111.185999 
L 85.100852 109.895294 
L 86.90987 108.862887 
L 88.718888 108.066366 
L 90.527905 107.477253 
L 92.336923 107.064828 
L 94.145941 106.799196 
L 97.763977 106.604876 
L 101.382012 106.732104 
L 105.000048 107.089743 
L 108.618084 107.640234 
L 112.236119 108.372103 
L 115.854155 109.273513 
L 121.281208 110.870222 
L 130.326297 113.644363 
L 135.753351 115.004436 
L 141.180404 116.037673 
L 159.270582 119.063826 
L 164.697636 119.947696 
L 168.315672 120.353807 
L 171.933707 120.578071 
L 177.360761 120.616575 
L 180.978796 120.452934 
L 184.596832 120.017168 
L 186.40585 119.610786 
L 188.214868 119.007387 
L 190.023885 118.140375 
L 191.832903 116.937941 
L 193.641921 115.330149 
L 195.450939 113.258032 
L 197.259957 110.683975 
L 199.068974 107.602254 
L 200.877992 104.048229 
L 204.496028 95.903161 
L 208.114063 87.47149 
L 209.923081 83.68774 
L 211.732099 80.504856 
L 213.541117 78.138004 
L 215.350135 76.761946 
L 217.159153 76.493656 
L 218.96817 77.380461 
L 220.777188 79.395263 
L 222.586206 82.43947 
L 224.395224 86.353152 
L 226.204242 90.931027 
L 229.822277 101.150571 
L 233.440313 111.305142 
L 235.249331 115.911613 
L 237.058349 120.052644 
L 238.867366 123.673396 
L 240.676384 126.761402 
L 242.485402 129.338573 
L 244.29442 131.451404 
L 246.103438 133.160901 
L 247.912455 134.533454 
L 249.721473 135.633523 
L 251.530491 136.518566 
L 253.339509 137.236251 
L 256.957545 138.308049 
L 260.57558 139.038372 
L 264.193616 139.52179 
L 267.811651 139.817977 
L 273.238705 140.037561 
L 291.328883 140.364904 
L 296.755937 140.355034 
L 300.373972 140.205089 
L 303.992008 139.816426 
L 307.610043 139.054823 
L 309.419061 138.501906 
L 313.037097 137.055362 
L 320.273168 133.629654 
L 322.082186 132.966535 
L 323.891204 132.496775 
L 325.700222 132.261684 
L 327.509239 132.282664 
L 329.318257 132.55804 
L 331.127275 133.063261 
L 332.936293 133.754432 
L 336.554328 135.460772 
L 340.172364 137.198527 
L 343.7904 138.610093 
L 345.599418 139.142079 
L 349.217453 139.868281 
L 352.835489 140.245961 
L 358.262542 140.475904 
L 410.724059 141.609944 
L 432.432273 141.874647 
L 432.432273 141.874647 
" style="fill:none;stroke:#1f77b4;stroke-linecap:square;stroke-width:1.2;"/>
   </g>
   <g id="patch_45">
    <path d="M 54.438 141.996 
L 54.438 45.168 
" style="fill:none;stroke:#000000;stroke-linecap:square;stroke-linejoin:miter;"/>
   </g>
   <g id="patch_46">
    <path d="M 450.432 141.996 
L 450.432 45.168 
" style="fill:none;stroke:#000000;stroke-linecap:square;stroke-linejoin:miter;"/>
   </g>
   <g id="patch_47">
    <path d="M 54.438 141.996 
L 450.432 141.996 
" style="fill:none;stroke:#000000;stroke-linecap:square;stroke-linejoin:miter;"/>
   </g>
   <g id="patch_48">
    <path d="M 54.438 45.168 
L 450.432 45.168 
" style="fill:none;stroke:#000000;stroke-linecap:square;stroke-linejoin:miter;"/>
   </g>
   <g id="text_14">
    <!-- Jensen Shannon Distance = 0.8115  -->
    <defs>
     <path d="M 9.8125 72.90625 
L 19.671875 72.90625 
L 19.671875 5.078125 
Q 19.671875 -8.109375 14.671875 -14.0625 
Q 9.671875 -20.015625 -1.421875 -20.015625 
L -5.171875 -20.015625 
L -5.171875 -11.71875 
L -2.09375 -11.71875 
Q 4.4375 -11.71875 7.125 -8.046875 
Q 9.8125 -4.390625 9.8125 5.078125 
z
" id="DejaVuSans-74"/>
     <path d="M 44.28125 53.078125 
L 44.28125 44.578125 
Q 40.484375 46.53125 36.375 47.5 
Q 32.28125 48.484375 27.875 48.484375 
Q 21.1875 48.484375 17.84375 46.4375 
Q 14.5 44.390625 14.5 40.28125 
Q 14.5 37.15625 16.890625 35.375 
Q 19.28125 33.59375 26.515625 31.984375 
L 29.59375 31.296875 
Q 39.15625 29.25 43.1875 25.515625 
Q 47.21875 21.78125 47.21875 15.09375 
Q 47.21875 7.46875 41.1875 3.015625 
Q 35.15625 -1.421875 24.609375 -1.421875 
Q 20.21875 -1.421875 15.453125 -0.5625 
Q 10.6875 0.296875 5.421875 2 
L 5.421875 11.28125 
Q 10.40625 8.6875 15.234375 7.390625 
Q 20.0625 6.109375 24.8125 6.109375 
Q 31.15625 6.109375 34.5625 8.28125 
Q 37.984375 10.453125 37.984375 14.40625 
Q 37.984375 18.0625 35.515625 20.015625 
Q 33.0625 21.96875 24.703125 23.78125 
L 21.578125 24.515625 
Q 13.234375 26.265625 9.515625 29.90625 
Q 5.8125 33.546875 5.8125 39.890625 
Q 5.8125 47.609375 11.28125 51.796875 
Q 16.75 56 26.8125 56 
Q 31.78125 56 36.171875 55.265625 
Q 40.578125 54.546875 44.28125 53.078125 
z
" id="DejaVuSans-115"/>
     <path d="M 53.515625 70.515625 
L 53.515625 60.890625 
Q 47.90625 63.578125 42.921875 64.890625 
Q 37.9375 66.21875 33.296875 66.21875 
Q 25.25 66.21875 20.875 63.09375 
Q 16.5 59.96875 16.5 54.203125 
Q 16.5 49.359375 19.40625 46.890625 
Q 22.3125 44.4375 30.421875 42.921875 
L 36.375 41.703125 
Q 47.40625 39.59375 52.65625 34.296875 
Q 57.90625 29 57.90625 20.125 
Q 57.90625 9.515625 50.796875 4.046875 
Q 43.703125 -1.421875 29.984375 -1.421875 
Q 24.8125 -1.421875 18.96875 -0.25 
Q 13.140625 0.921875 6.890625 3.21875 
L 6.890625 13.375 
Q 12.890625 10.015625 18.65625 8.296875 
Q 24.421875 6.59375 29.984375 6.59375 
Q 38.421875 6.59375 43.015625 9.90625 
Q 47.609375 13.234375 47.609375 19.390625 
Q 47.609375 24.75 44.3125 27.78125 
Q 41.015625 30.8125 33.5 32.328125 
L 27.484375 33.5 
Q 16.453125 35.6875 11.515625 40.375 
Q 6.59375 45.0625 6.59375 53.421875 
Q 6.59375 63.09375 13.40625 68.65625 
Q 20.21875 74.21875 32.171875 74.21875 
Q 37.3125 74.21875 42.625 73.28125 
Q 47.953125 72.359375 53.515625 70.515625 
z
" id="DejaVuSans-83"/>
     <path d="M 19.671875 64.796875 
L 19.671875 8.109375 
L 31.59375 8.109375 
Q 46.6875 8.109375 53.6875 14.9375 
Q 60.6875 21.78125 60.6875 36.53125 
Q 60.6875 51.171875 53.6875 57.984375 
Q 46.6875 64.796875 31.59375 64.796875 
z
M 9.8125 72.90625 
L 30.078125 72.90625 
Q 51.265625 72.90625 61.171875 64.09375 
Q 71.09375 55.28125 71.09375 36.53125 
Q 71.09375 17.671875 61.125 8.828125 
Q 51.171875 0 30.078125 0 
L 9.8125 0 
z
" id="DejaVuSans-68"/>
     <path d="M 48.78125 52.59375 
L 48.78125 44.1875 
Q 44.96875 46.296875 41.140625 47.34375 
Q 37.3125 48.390625 33.40625 48.390625 
Q 24.65625 48.390625 19.8125 42.84375 
Q 14.984375 37.3125 14.984375 27.296875 
Q 14.984375 17.28125 19.8125 11.734375 
Q 24.65625 6.203125 33.40625 6.203125 
Q 37.3125 6.203125 41.140625 7.25 
Q 44.96875 8.296875 48.78125 10.40625 
L 48.78125 2.09375 
Q 45.015625 0.34375 40.984375 -0.53125 
Q 36.96875 -1.421875 32.421875 -1.421875 
Q 20.0625 -1.421875 12.78125 6.34375 
Q 5.515625 14.109375 5.515625 27.296875 
Q 5.515625 40.671875 12.859375 48.328125 
Q 20.21875 56 33.015625 56 
Q 37.15625 56 41.109375 55.140625 
Q 45.0625 54.296875 48.78125 52.59375 
z
" id="DejaVuSans-99"/>
     <path d="M 10.59375 45.40625 
L 73.1875 45.40625 
L 73.1875 37.203125 
L 10.59375 37.203125 
z
M 10.59375 25.484375 
L 73.1875 25.484375 
L 73.1875 17.1875 
L 10.59375 17.1875 
z
" id="DejaVuSans-61"/>
     <path d="M 10.6875 12.40625 
L 21 12.40625 
L 21 0 
L 10.6875 0 
z
" id="DejaVuSans-46"/>
    </defs>
    <g transform="translate(166.0005 17.6682)scale(0.096 -0.096)">
     <use xlink:href="#DejaVuSans-74"/>
     <use x="29.492188" xlink:href="#DejaVuSans-101"/>
     <use x="91.015625" xlink:href="#DejaVuSans-110"/>
     <use x="154.394531" xlink:href="#DejaVuSans-115"/>
     <use x="206.494141" xlink:href="#DejaVuSans-101"/>
     <use x="268.017578" xlink:href="#DejaVuSans-110"/>
     <use x="331.396484" xlink:href="#DejaVuSans-32"/>
     <use x="363.183594" xlink:href="#DejaVuSans-83"/>
     <use x="426.660156" xlink:href="#DejaVuSans-104"/>
     <use x="490.039062" xlink:href="#DejaVuSans-97"/>
     <use x="551.318359" xlink:href="#DejaVuSans-110"/>
     <use x="614.697266" xlink:href="#DejaVuSans-110"/>
     <use x="678.076172" xlink:href="#DejaVuSans-111"/>
     <use x="739.257812" xlink:href="#DejaVuSans-110"/>
     <use x="802.636719" xlink:href="#DejaVuSans-32"/>
     <use x="834.423828" xlink:href="#DejaVuSans-68"/>
     <use x="911.425781" xlink:href="#DejaVuSans-105"/>
     <use x="939.208984" xlink:href="#DejaVuSans-115"/>
     <use x="991.308594" xlink:href="#DejaVuSans-116"/>
     <use x="1030.517578" xlink:href="#DejaVuSans-97"/>
     <use x="1091.796875" xlink:href="#DejaVuSans-110"/>
     <use x="1155.175781" xlink:href="#DejaVuSans-99"/>
     <use x="1210.15625" xlink:href="#DejaVuSans-101"/>
     <use x="1271.679688" xlink:href="#DejaVuSans-32"/>
     <use x="1303.466797" xlink:href="#DejaVuSans-61"/>
     <use x="1387.255859" xlink:href="#DejaVuSans-32"/>
     <use x="1419.042969" xlink:href="#DejaVuSans-48"/>
     <use x="1482.666016" xlink:href="#DejaVuSans-46"/>
     <use x="1514.453125" xlink:href="#DejaVuSans-56"/>
     <use x="1578.076172" xlink:href="#DejaVuSans-49"/>
     <use x="1641.699219" xlink:href="#DejaVuSans-49"/>
     <use x="1705.322266" xlink:href="#DejaVuSans-53"/>
     <use x="1768.945312" xlink:href="#DejaVuSans-32"/>
    </g>
    <!-- DHWcalc (4 cats), ∆t = 60, No. Drawoffs = 13079, Peak = 1190.0 L/h  -->
    <defs>
     <path d="M 9.8125 72.90625 
L 19.671875 72.90625 
L 19.671875 43.015625 
L 55.515625 43.015625 
L 55.515625 72.90625 
L 65.375 72.90625 
L 65.375 0 
L 55.515625 0 
L 55.515625 34.71875 
L 19.671875 34.71875 
L 19.671875 0 
L 9.8125 0 
z
" id="DejaVuSans-72"/>
     <path d="M 3.328125 72.90625 
L 13.28125 72.90625 
L 28.609375 11.28125 
L 43.890625 72.90625 
L 54.984375 72.90625 
L 70.3125 11.28125 
L 85.59375 72.90625 
L 95.609375 72.90625 
L 77.296875 0 
L 64.890625 0 
L 49.515625 63.28125 
L 33.984375 0 
L 21.578125 0 
z
" id="DejaVuSans-87"/>
     <path d="M 31 75.875 
Q 24.46875 64.65625 21.28125 53.65625 
Q 18.109375 42.671875 18.109375 31.390625 
Q 18.109375 20.125 21.3125 9.0625 
Q 24.515625 -2 31 -13.1875 
L 23.1875 -13.1875 
Q 15.875 -1.703125 12.234375 9.375 
Q 8.59375 20.453125 8.59375 31.390625 
Q 8.59375 42.28125 12.203125 53.3125 
Q 15.828125 64.359375 23.1875 75.875 
z
" id="DejaVuSans-40"/>
     <path d="M 8.015625 75.875 
L 15.828125 75.875 
Q 23.140625 64.359375 26.78125 53.3125 
Q 30.421875 42.28125 30.421875 31.390625 
Q 30.421875 20.453125 26.78125 9.375 
Q 23.140625 -1.703125 15.828125 -13.1875 
L 8.015625 -13.1875 
Q 14.5 -2 17.703125 9.0625 
Q 20.90625 20.125 20.90625 31.390625 
Q 20.90625 42.671875 17.703125 53.65625 
Q 14.5 64.65625 8.015625 75.875 
z
" id="DejaVuSans-41"/>
     <path d="M 11.71875 12.40625 
L 22.015625 12.40625 
L 22.015625 4 
L 14.015625 -11.625 
L 7.71875 -11.625 
L 11.71875 4 
z
" id="DejaVuSans-44"/>
     <path d="M 33.40625 61.625 
L 12.984375 8.6875 
L 53.8125 8.6875 
z
M 27.984375 71.921875 
L 38.921875 71.921875 
L 67.1875 0 
L -0.296875 0 
z
" id="DejaVuSans-8710"/>
     <path d="M 9.8125 72.90625 
L 23.09375 72.90625 
L 55.421875 11.921875 
L 55.421875 72.90625 
L 64.984375 72.90625 
L 64.984375 0 
L 51.703125 0 
L 19.390625 60.984375 
L 19.390625 0 
L 9.8125 0 
z
" id="DejaVuSans-78"/>
     <path d="M 37.109375 75.984375 
L 37.109375 68.5 
L 28.515625 68.5 
Q 23.6875 68.5 21.796875 66.546875 
Q 19.921875 64.59375 19.921875 59.515625 
L 19.921875 54.6875 
L 34.71875 54.6875 
L 34.71875 47.703125 
L 19.921875 47.703125 
L 19.921875 0 
L 10.890625 0 
L 10.890625 47.703125 
L 2.296875 47.703125 
L 2.296875 54.6875 
L 10.890625 54.6875 
L 10.890625 58.5 
Q 10.890625 67.625 15.140625 71.796875 
Q 19.390625 75.984375 28.609375 75.984375 
z
" id="DejaVuSans-102"/>
     <path d="M 40.578125 39.3125 
Q 47.65625 37.796875 51.625 33 
Q 55.609375 28.21875 55.609375 21.1875 
Q 55.609375 10.40625 48.1875 4.484375 
Q 40.765625 -1.421875 27.09375 -1.421875 
Q 22.515625 -1.421875 17.65625 -0.515625 
Q 12.796875 0.390625 7.625 2.203125 
L 7.625 11.71875 
Q 11.71875 9.328125 16.59375 8.109375 
Q 21.484375 6.890625 26.8125 6.890625 
Q 36.078125 6.890625 40.9375 10.546875 
Q 45.796875 14.203125 45.796875 21.1875 
Q 45.796875 27.640625 41.28125 31.265625 
Q 36.765625 34.90625 28.71875 34.90625 
L 20.21875 34.90625 
L 20.21875 43.015625 
L 29.109375 43.015625 
Q 36.375 43.015625 40.234375 45.921875 
Q 44.09375 48.828125 44.09375 54.296875 
Q 44.09375 59.90625 40.109375 62.90625 
Q 36.140625 65.921875 28.71875 65.921875 
Q 24.65625 65.921875 20.015625 65.03125 
Q 15.375 64.15625 9.8125 62.3125 
L 9.8125 71.09375 
Q 15.4375 72.65625 20.34375 73.4375 
Q 25.25 74.21875 29.59375 74.21875 
Q 40.828125 74.21875 47.359375 69.109375 
Q 53.90625 64.015625 53.90625 55.328125 
Q 53.90625 49.265625 50.4375 45.09375 
Q 46.96875 40.921875 40.578125 39.3125 
z
" id="DejaVuSans-51"/>
     <path d="M 8.203125 72.90625 
L 55.078125 72.90625 
L 55.078125 68.703125 
L 28.609375 0 
L 18.3125 0 
L 43.21875 64.59375 
L 8.203125 64.59375 
z
" id="DejaVuSans-55"/>
     <path d="M 10.984375 1.515625 
L 10.984375 10.5 
Q 14.703125 8.734375 18.5 7.8125 
Q 22.3125 6.890625 25.984375 6.890625 
Q 35.75 6.890625 40.890625 13.453125 
Q 46.046875 20.015625 46.78125 33.40625 
Q 43.953125 29.203125 39.59375 26.953125 
Q 35.25 24.703125 29.984375 24.703125 
Q 19.046875 24.703125 12.671875 31.3125 
Q 6.296875 37.9375 6.296875 49.421875 
Q 6.296875 60.640625 12.9375 67.421875 
Q 19.578125 74.21875 30.609375 74.21875 
Q 43.265625 74.21875 49.921875 64.515625 
Q 56.59375 54.828125 56.59375 36.375 
Q 56.59375 19.140625 48.40625 8.859375 
Q 40.234375 -1.421875 26.421875 -1.421875 
Q 22.703125 -1.421875 18.890625 -0.6875 
Q 15.09375 0.046875 10.984375 1.515625 
z
M 30.609375 32.421875 
Q 37.25 32.421875 41.125 36.953125 
Q 45.015625 41.5 45.015625 49.421875 
Q 45.015625 57.28125 41.125 61.84375 
Q 37.25 66.40625 30.609375 66.40625 
Q 23.96875 66.40625 20.09375 61.84375 
Q 16.21875 57.28125 16.21875 49.421875 
Q 16.21875 41.5 20.09375 36.953125 
Q 23.96875 32.421875 30.609375 32.421875 
z
" id="DejaVuSans-57"/>
     <path d="M 19.671875 64.796875 
L 19.671875 37.40625 
L 32.078125 37.40625 
Q 38.96875 37.40625 42.71875 40.96875 
Q 46.484375 44.53125 46.484375 51.125 
Q 46.484375 57.671875 42.71875 61.234375 
Q 38.96875 64.796875 32.078125 64.796875 
z
M 9.8125 72.90625 
L 32.078125 72.90625 
Q 44.34375 72.90625 50.609375 67.359375 
Q 56.890625 61.8125 56.890625 51.125 
Q 56.890625 40.328125 50.609375 34.8125 
Q 44.34375 29.296875 32.078125 29.296875 
L 19.671875 29.296875 
L 19.671875 0 
L 9.8125 0 
z
" id="DejaVuSans-80"/>
     <path d="M 9.078125 75.984375 
L 18.109375 75.984375 
L 18.109375 31.109375 
L 44.921875 54.6875 
L 56.390625 54.6875 
L 27.390625 29.109375 
L 57.625 0 
L 45.90625 0 
L 18.109375 26.703125 
L 18.109375 0 
L 9.078125 0 
z
" id="DejaVuSans-107"/>
    </defs>
    <g transform="translate(84.75 28.4181)scale(0.096 -0.096)">
     <use xlink:href="#DejaVuSans-68"/>
     <use x="77.001953" xlink:href="#DejaVuSans-72"/>
     <use x="152.197266" xlink:href="#DejaVuSans-87"/>
     <use x="251.074219" xlink:href="#DejaVuSans-99"/>
     <use x="306.054688" xlink:href="#DejaVuSans-97"/>
     <use x="367.333984" xlink:href="#DejaVuSans-108"/>
     <use x="395.117188" xlink:href="#DejaVuSans-99"/>
     <use x="450.097656" xlink:href="#DejaVuSans-32"/>
     <use x="481.884766" xlink:href="#DejaVuSans-40"/>
     <use x="520.898438" xlink:href="#DejaVuSans-52"/>
     <use x="584.521484" xlink:href="#DejaVuSans-32"/>
     <use x="616.308594" xlink:href="#DejaVuSans-99"/>
     <use x="671.289062" xlink:href="#DejaVuSans-97"/>
     <use x="732.568359" xlink:href="#DejaVuSans-116"/>
     <use x="771.777344" xlink:href="#DejaVuSans-115"/>
     <use x="823.876953" xlink:href="#DejaVuSans-41"/>
     <use x="862.890625" xlink:href="#DejaVuSans-44"/>
     <use x="894.677734" xlink:href="#DejaVuSans-32"/>
     <use x="926.464844" xlink:href="#DejaVuSans-8710"/>
     <use x="993.359375" xlink:href="#DejaVuSans-116"/>
     <use x="1032.568359" xlink:href="#DejaVuSans-32"/>
     <use x="1064.355469" xlink:href="#DejaVuSans-61"/>
     <use x="1148.144531" xlink:href="#DejaVuSans-32"/>
     <use x="1179.931641" xlink:href="#DejaVuSans-54"/>
     <use x="1243.554688" xlink:href="#DejaVuSans-48"/>
     <use x="1307.177734" xlink:href="#DejaVuSans-44"/>
     <use x="1338.964844" xlink:href="#DejaVuSans-32"/>
     <use x="1370.751953" xlink:href="#DejaVuSans-78"/>
     <use x="1445.556641" xlink:href="#DejaVuSans-111"/>
     <use x="1504.988281" xlink:href="#DejaVuSans-46"/>
     <use x="1536.775391" xlink:href="#DejaVuSans-32"/>
     <use x="1568.5625" xlink:href="#DejaVuSans-68"/>
     <use x="1645.564453" xlink:href="#DejaVuSans-114"/>
     <use x="1686.677734" xlink:href="#DejaVuSans-97"/>
     <use x="1747.957031" xlink:href="#DejaVuSans-119"/>
     <use x="1829.744141" xlink:href="#DejaVuSans-111"/>
     <use x="1890.925781" xlink:href="#DejaVuSans-102"/>
     <use x="1926.130859" xlink:href="#DejaVuSans-102"/>
     <use x="1961.335938" xlink:href="#DejaVuSans-115"/>
     <use x="2013.435547" xlink:href="#DejaVuSans-32"/>
     <use x="2045.222656" xlink:href="#DejaVuSans-61"/>
     <use x="2129.011719" xlink:href="#DejaVuSans-32"/>
     <use x="2160.798828" xlink:href="#DejaVuSans-49"/>
     <use x="2224.421875" xlink:href="#DejaVuSans-51"/>
     <use x="2288.044922" xlink:href="#DejaVuSans-48"/>
     <use x="2351.667969" xlink:href="#DejaVuSans-55"/>
     <use x="2415.291016" xlink:href="#DejaVuSans-57"/>
     <use x="2478.914062" xlink:href="#DejaVuSans-44"/>
     <use x="2510.701172" xlink:href="#DejaVuSans-32"/>
     <use x="2542.488281" xlink:href="#DejaVuSans-80"/>
     <use x="2599.166016" xlink:href="#DejaVuSans-101"/>
     <use x="2660.689453" xlink:href="#DejaVuSans-97"/>
     <use x="2721.96875" xlink:href="#DejaVuSans-107"/>
     <use x="2779.878906" xlink:href="#DejaVuSans-32"/>
     <use x="2811.666016" xlink:href="#DejaVuSans-61"/>
     <use x="2895.455078" xlink:href="#DejaVuSans-32"/>
     <use x="2927.242188" xlink:href="#DejaVuSans-49"/>
     <use x="2990.865234" xlink:href="#DejaVuSans-49"/>
     <use x="3054.488281" xlink:href="#DejaVuSans-57"/>
     <use x="3118.111328" xlink:href="#DejaVuSans-48"/>
     <use x="3181.734375" xlink:href="#DejaVuSans-46"/>
     <use x="3213.521484" xlink:href="#DejaVuSans-48"/>
     <use x="3277.144531" xlink:href="#DejaVuSans-32"/>
     <use x="3308.931641" xlink:href="#DejaVuSans-76"/>
     <use x="3364.644531" xlink:href="#DejaVuSans-47"/>
     <use x="3398.335938" xlink:href="#DejaVuSans-104"/>
     <use x="3461.714844" xlink:href="#DejaVuSans-32"/>
    </g>
    <!--  Yearly Demand = 73000 L -->
    <defs>
     <path d="M 32.171875 -5.078125 
Q 28.375 -14.84375 24.75 -17.8125 
Q 21.140625 -20.796875 15.09375 -20.796875 
L 7.90625 -20.796875 
L 7.90625 -13.28125 
L 13.1875 -13.28125 
Q 16.890625 -13.28125 18.9375 -11.515625 
Q 21 -9.765625 23.484375 -3.21875 
L 25.09375 0.875 
L 2.984375 54.6875 
L 12.5 54.6875 
L 29.59375 11.921875 
L 46.6875 54.6875 
L 56.203125 54.6875 
z
" id="DejaVuSans-121"/>
     <path d="M 52 44.1875 
Q 55.375 50.25 60.0625 53.125 
Q 64.75 56 71.09375 56 
Q 79.640625 56 84.28125 50.015625 
Q 88.921875 44.046875 88.921875 33.015625 
L 88.921875 0 
L 79.890625 0 
L 79.890625 32.71875 
Q 79.890625 40.578125 77.09375 44.375 
Q 74.3125 48.1875 68.609375 48.1875 
Q 61.625 48.1875 57.5625 43.546875 
Q 53.515625 38.921875 53.515625 30.90625 
L 53.515625 0 
L 44.484375 0 
L 44.484375 32.71875 
Q 44.484375 40.625 41.703125 44.40625 
Q 38.921875 48.1875 33.109375 48.1875 
Q 26.21875 48.1875 22.15625 43.53125 
Q 18.109375 38.875 18.109375 30.90625 
L 18.109375 0 
L 9.078125 0 
L 9.078125 54.6875 
L 18.109375 54.6875 
L 18.109375 46.1875 
Q 21.1875 51.21875 25.484375 53.609375 
Q 29.78125 56 35.6875 56 
Q 41.65625 56 45.828125 52.96875 
Q 50 49.953125 52 44.1875 
z
" id="DejaVuSans-109"/>
     <path d="M 45.40625 46.390625 
L 45.40625 75.984375 
L 54.390625 75.984375 
L 54.390625 0 
L 45.40625 0 
L 45.40625 8.203125 
Q 42.578125 3.328125 38.25 0.953125 
Q 33.9375 -1.421875 27.875 -1.421875 
Q 17.96875 -1.421875 11.734375 6.484375 
Q 5.515625 14.40625 5.515625 27.296875 
Q 5.515625 40.1875 11.734375 48.09375 
Q 17.96875 56 27.875 56 
Q 33.9375 56 38.25 53.625 
Q 42.578125 51.265625 45.40625 46.390625 
z
M 14.796875 27.296875 
Q 14.796875 17.390625 18.875 11.75 
Q 22.953125 6.109375 30.078125 6.109375 
Q 37.203125 6.109375 41.296875 11.75 
Q 45.40625 17.390625 45.40625 27.296875 
Q 45.40625 37.203125 41.296875 42.84375 
Q 37.203125 48.484375 30.078125 48.484375 
Q 22.953125 48.484375 18.875 42.84375 
Q 14.796875 37.203125 14.796875 27.296875 
z
" id="DejaVuSans-100"/>
    </defs>
    <g transform="translate(188.1465 39.168)scale(0.096 -0.096)">
     <use xlink:href="#DejaVuSans-32"/>
     <use x="31.787109" xlink:href="#DejaVuSans-89"/>
     <use x="79.621094" xlink:href="#DejaVuSans-101"/>
     <use x="141.144531" xlink:href="#DejaVuSans-97"/>
     <use x="202.423828" xlink:href="#DejaVuSans-114"/>
     <use x="243.537109" xlink:href="#DejaVuSans-108"/>
     <use x="271.320312" xlink:href="#DejaVuSans-121"/>
     <use x="330.5" xlink:href="#DejaVuSans-32"/>
     <use x="362.287109" xlink:href="#DejaVuSans-68"/>
     <use x="439.289062" xlink:href="#DejaVuSans-101"/>
     <use x="500.8125" xlink:href="#DejaVuSans-109"/>
     <use x="598.224609" xlink:href="#DejaVuSans-97"/>
     <use x="659.503906" xlink:href="#DejaVuSans-110"/>
     <use x="722.882812" xlink:href="#DejaVuSans-100"/>
     <use x="786.359375" xlink:href="#DejaVuSans-32"/>
     <use x="818.146484" xlink:href="#DejaVuSans-61"/>
     <use x="901.935547" xlink:href="#DejaVuSans-32"/>
     <use x="933.722656" xlink:href="#DejaVuSans-55"/>
     <use x="997.345703" xlink:href="#DejaVuSans-51"/>
     <use x="1060.96875" xlink:href="#DejaVuSans-48"/>
     <use x="1124.591797" xlink:href="#DejaVuSans-48"/>
     <use x="1188.214844" xlink:href="#DejaVuSans-48"/>
     <use x="1251.837891" xlink:href="#DejaVuSans-32"/>
     <use x="1283.625" xlink:href="#DejaVuSans-76"/>
    </g>
   </g>
  </g>
  <g id="axes_2">
   <g id="patch_49">
    <path d="M 54.438 304.212 
L 450.432 304.212 
L 450.432 207.384 
L 54.438 207.384 
z
" style="fill:#ffffff;"/>
   </g>
   <g id="patch_50">
    <path clip-path="url(#pd0f20893f5)" d="M 72.405253 304.212 
L 80.961088 304.212 
L 80.961088 263.244933 
L 72.405253 263.244933 
z
" style="fill:#1f77b4;fill-opacity:0.5;stroke:#000000;stroke-linejoin:miter;stroke-width:0.8;"/>
   </g>
   <g id="patch_51">
    <path clip-path="url(#pd0f20893f5)" d="M 80.961088 304.212 
L 89.516923 304.212 
L 89.516923 263.51988 
L 80.961088 263.51988 
z
" style="fill:#1f77b4;fill-opacity:0.5;stroke:#000000;stroke-linejoin:miter;stroke-width:0.8;"/>
   </g>
   <g id="patch_52">
    <path clip-path="url(#pd0f20893f5)" d="M 89.516923 304.212 
L 98.072757 304.212 
L 98.072757 262.860007 
L 89.516923 262.860007 
z
" style="fill:#1f77b4;fill-opacity:0.5;stroke:#000000;stroke-linejoin:miter;stroke-width:0.8;"/>
   </g>
   <g id="patch_53">
    <path clip-path="url(#pd0f20893f5)" d="M 98.072757 304.212 
L 106.628592 304.212 
L 106.628592 270.833463 
L 98.072757 270.833463 
z
" style="fill:#1f77b4;fill-opacity:0.5;stroke:#000000;stroke-linejoin:miter;stroke-width:0.8;"/>
   </g>
   <g id="patch_54">
    <path clip-path="url(#pd0f20893f5)" d="M 106.628592 304.212 
L 115.184427 304.212 
L 115.184427 264.124763 
L 106.628592 264.124763 
z
" style="fill:#1f77b4;fill-opacity:0.5;stroke:#000000;stroke-linejoin:miter;stroke-width:0.8;"/>
   </g>
   <g id="patch_55">
    <path clip-path="url(#pd0f20893f5)" d="M 115.184427 304.212 
L 123.740262 304.212 
L 123.740262 267.919028 
L 115.184427 267.919028 
z
" style="fill:#1f77b4;fill-opacity:0.5;stroke:#000000;stroke-linejoin:miter;stroke-width:0.8;"/>
   </g>
   <g id="patch_56">
    <path clip-path="url(#pd0f20893f5)" d="M 123.740262 304.212 
L 132.296096 304.212 
L 132.296096 277.92709 
L 123.740262 277.92709 
z
" style="fill:#1f77b4;fill-opacity:0.5;stroke:#000000;stroke-linejoin:miter;stroke-width:0.8;"/>
   </g>
   <g id="patch_57">
    <path clip-path="url(#pd0f20893f5)" d="M 132.296096 304.212 
L 140.851931 304.212 
L 140.851931 274.077835 
L 132.296096 274.077835 
z
" style="fill:#1f77b4;fill-opacity:0.5;stroke:#000000;stroke-linejoin:miter;stroke-width:0.8;"/>
   </g>
   <g id="patch_58">
    <path clip-path="url(#pd0f20893f5)" d="M 140.851931 304.212 
L 149.407766 304.212 
L 149.407766 276.772313 
L 140.851931 276.772313 
z
" style="fill:#1f77b4;fill-opacity:0.5;stroke:#000000;stroke-linejoin:miter;stroke-width:0.8;"/>
   </g>
   <g id="patch_59">
    <path clip-path="url(#pd0f20893f5)" d="M 149.407766 304.212 
L 157.963601 304.212 
L 157.963601 282.821142 
L 149.407766 282.821142 
z
" style="fill:#1f77b4;fill-opacity:0.5;stroke:#000000;stroke-linejoin:miter;stroke-width:0.8;"/>
   </g>
   <g id="patch_60">
    <path clip-path="url(#pd0f20893f5)" d="M 157.963601 304.212 
L 166.519435 304.212 
L 166.519435 279.851717 
L 157.963601 279.851717 
z
" style="fill:#1f77b4;fill-opacity:0.5;stroke:#000000;stroke-linejoin:miter;stroke-width:0.8;"/>
   </g>
   <g id="patch_61">
    <path clip-path="url(#pd0f20893f5)" d="M 166.519435 304.212 
L 175.07527 304.212 
L 175.07527 280.126664 
L 166.519435 280.126664 
z
" style="fill:#1f77b4;fill-opacity:0.5;stroke:#000000;stroke-linejoin:miter;stroke-width:0.8;"/>
   </g>
   <g id="patch_62">
    <path clip-path="url(#pd0f20893f5)" d="M 175.07527 304.212 
L 183.631105 304.212 
L 183.631105 285.57061 
L 175.07527 285.57061 
z
" style="fill:#1f77b4;fill-opacity:0.5;stroke:#000000;stroke-linejoin:miter;stroke-width:0.8;"/>
   </g>
   <g id="patch_63">
    <path clip-path="url(#pd0f20893f5)" d="M 183.631105 304.212 
L 192.18694 304.212 
L 192.18694 280.676557 
L 183.631105 280.676557 
z
" style="fill:#1f77b4;fill-opacity:0.5;stroke:#000000;stroke-linejoin:miter;stroke-width:0.8;"/>
   </g>
   <g id="patch_64">
    <path clip-path="url(#pd0f20893f5)" d="M 192.18694 304.212 
L 200.742774 304.212 
L 200.742774 281.061483 
L 192.18694 281.061483 
z
" style="fill:#1f77b4;fill-opacity:0.5;stroke:#000000;stroke-linejoin:miter;stroke-width:0.8;"/>
   </g>
   <g id="patch_65">
    <path clip-path="url(#pd0f20893f5)" d="M 200.742774 304.212 
L 209.298609 304.212 
L 209.298609 249.662563 
L 200.742774 249.662563 
z
" style="fill:#1f77b4;fill-opacity:0.5;stroke:#000000;stroke-linejoin:miter;stroke-width:0.8;"/>
   </g>
   <g id="patch_66">
    <path clip-path="url(#pd0f20893f5)" d="M 209.298609 304.212 
L 217.854444 304.212 
L 217.854444 214.414389 
L 209.298609 214.414389 
z
" style="fill:#1f77b4;fill-opacity:0.5;stroke:#000000;stroke-linejoin:miter;stroke-width:0.8;"/>
   </g>
   <g id="patch_67">
    <path clip-path="url(#pd0f20893f5)" d="M 217.854444 304.212 
L 226.410279 304.212 
L 226.410279 223.872557 
L 217.854444 223.872557 
z
" style="fill:#1f77b4;fill-opacity:0.5;stroke:#000000;stroke-linejoin:miter;stroke-width:0.8;"/>
   </g>
   <g id="patch_68">
    <path clip-path="url(#pd0f20893f5)" d="M 226.410279 304.212 
L 234.966114 304.212 
L 234.966114 285.350652 
L 226.410279 285.350652 
z
" style="fill:#1f77b4;fill-opacity:0.5;stroke:#000000;stroke-linejoin:miter;stroke-width:0.8;"/>
   </g>
   <g id="patch_69">
    <path clip-path="url(#pd0f20893f5)" d="M 234.966114 304.212 
L 243.521948 304.212 
L 243.521948 297.778246 
L 234.966114 297.778246 
z
" style="fill:#1f77b4;fill-opacity:0.5;stroke:#000000;stroke-linejoin:miter;stroke-width:0.8;"/>
   </g>
   <g id="patch_70">
    <path clip-path="url(#pd0f20893f5)" d="M 243.521948 304.212 
L 252.077783 304.212 
L 252.077783 298.988012 
L 243.521948 298.988012 
z
" style="fill:#1f77b4;fill-opacity:0.5;stroke:#000000;stroke-linejoin:miter;stroke-width:0.8;"/>
   </g>
   <g id="patch_71">
    <path clip-path="url(#pd0f20893f5)" d="M 252.077783 304.212 
L 260.633618 304.212 
L 260.633618 302.837266 
L 252.077783 302.837266 
z
" style="fill:#1f77b4;fill-opacity:0.5;stroke:#000000;stroke-linejoin:miter;stroke-width:0.8;"/>
   </g>
   <g id="patch_72">
    <path clip-path="url(#pd0f20893f5)" d="M 260.633618 304.212 
L 269.189453 304.212 
L 269.189453 303.552128 
L 260.633618 303.552128 
z
" style="fill:#1f77b4;fill-opacity:0.5;stroke:#000000;stroke-linejoin:miter;stroke-width:0.8;"/>
   </g>
   <g id="patch_73">
    <path clip-path="url(#pd0f20893f5)" d="M 269.189453 304.212 
L 277.745287 304.212 
L 277.745287 303.277181 
L 269.189453 303.277181 
z
" style="fill:#1f77b4;fill-opacity:0.5;stroke:#000000;stroke-linejoin:miter;stroke-width:0.8;"/>
   </g>
   <g id="patch_74">
    <path clip-path="url(#pd0f20893f5)" d="M 277.745287 304.212 
L 286.301122 304.212 
L 286.301122 303.167202 
L 277.745287 303.167202 
z
" style="fill:#1f77b4;fill-opacity:0.5;stroke:#000000;stroke-linejoin:miter;stroke-width:0.8;"/>
   </g>
   <g id="patch_75">
    <path clip-path="url(#pd0f20893f5)" d="M 286.301122 304.212 
L 294.856957 304.212 
L 294.856957 303.717096 
L 286.301122 303.717096 
z
" style="fill:#1f77b4;fill-opacity:0.5;stroke:#000000;stroke-linejoin:miter;stroke-width:0.8;"/>
   </g>
   <g id="patch_76">
    <path clip-path="url(#pd0f20893f5)" d="M 294.856957 304.212 
L 303.412792 304.212 
L 303.412792 303.717096 
L 294.856957 303.717096 
z
" style="fill:#1f77b4;fill-opacity:0.5;stroke:#000000;stroke-linejoin:miter;stroke-width:0.8;"/>
   </g>
   <g id="patch_77">
    <path clip-path="url(#pd0f20893f5)" d="M 303.412792 304.212 
L 311.968626 304.212 
L 311.968626 303.882064 
L 303.412792 303.882064 
z
" style="fill:#1f77b4;fill-opacity:0.5;stroke:#000000;stroke-linejoin:miter;stroke-width:0.8;"/>
   </g>
   <g id="patch_78">
    <path clip-path="url(#pd0f20893f5)" d="M 311.968626 304.212 
L 320.524461 304.212 
L 320.524461 300.527713 
L 311.968626 300.527713 
z
" style="fill:#1f77b4;fill-opacity:0.5;stroke:#000000;stroke-linejoin:miter;stroke-width:0.8;"/>
   </g>
   <g id="patch_79">
    <path clip-path="url(#pd0f20893f5)" d="M 320.524461 304.212 
L 329.080296 304.212 
L 329.080296 287.770184 
L 320.524461 287.770184 
z
" style="fill:#1f77b4;fill-opacity:0.5;stroke:#000000;stroke-linejoin:miter;stroke-width:0.8;"/>
   </g>
   <g id="patch_80">
    <path clip-path="url(#pd0f20893f5)" d="M 329.080296 304.212 
L 337.636131 304.212 
L 337.636131 294.753832 
L 329.080296 294.753832 
z
" style="fill:#1f77b4;fill-opacity:0.5;stroke:#000000;stroke-linejoin:miter;stroke-width:0.8;"/>
   </g>
   <g id="patch_81">
    <path clip-path="url(#pd0f20893f5)" d="M 337.636131 304.212 
L 346.191965 304.212 
L 346.191965 303.717096 
L 337.636131 303.717096 
z
" style="fill:#1f77b4;fill-opacity:0.5;stroke:#000000;stroke-linejoin:miter;stroke-width:0.8;"/>
   </g>
   <g id="patch_82">
    <path clip-path="url(#pd0f20893f5)" d="M 346.191965 304.212 
L 354.7478 304.212 
L 354.7478 303.717096 
L 346.191965 303.717096 
z
" style="fill:#1f77b4;fill-opacity:0.5;stroke:#000000;stroke-linejoin:miter;stroke-width:0.8;"/>
   </g>
   <g id="patch_83">
    <path clip-path="url(#pd0f20893f5)" d="M 354.7478 304.212 
L 363.303635 304.212 
L 363.303635 302.837266 
L 354.7478 302.837266 
z
" style="fill:#1f77b4;fill-opacity:0.5;stroke:#000000;stroke-linejoin:miter;stroke-width:0.8;"/>
   </g>
   <g id="patch_84">
    <path clip-path="url(#pd0f20893f5)" d="M 363.303635 304.212 
L 371.85947 304.212 
L 371.85947 302.782277 
L 363.303635 302.782277 
z
" style="fill:#1f77b4;fill-opacity:0.5;stroke:#000000;stroke-linejoin:miter;stroke-width:0.8;"/>
   </g>
   <g id="patch_85">
    <path clip-path="url(#pd0f20893f5)" d="M 371.85947 304.212 
L 380.415304 304.212 
L 380.415304 304.157011 
L 371.85947 304.157011 
z
" style="fill:#1f77b4;fill-opacity:0.5;stroke:#000000;stroke-linejoin:miter;stroke-width:0.8;"/>
   </g>
   <g id="patch_86">
    <path clip-path="url(#pd0f20893f5)" d="M 380.415304 304.212 
L 388.971139 304.212 
L 388.971139 303.827075 
L 380.415304 303.827075 
z
" style="fill:#1f77b4;fill-opacity:0.5;stroke:#000000;stroke-linejoin:miter;stroke-width:0.8;"/>
   </g>
   <g id="patch_87">
    <path clip-path="url(#pd0f20893f5)" d="M 388.971139 304.212 
L 397.526974 304.212 
L 397.526974 304.047032 
L 388.971139 304.047032 
z
" style="fill:#1f77b4;fill-opacity:0.5;stroke:#000000;stroke-linejoin:miter;stroke-width:0.8;"/>
   </g>
   <g id="patch_88">
    <path clip-path="url(#pd0f20893f5)" d="M 397.526974 304.212 
L 406.082809 304.212 
L 406.082809 304.102021 
L 397.526974 304.102021 
z
" style="fill:#1f77b4;fill-opacity:0.5;stroke:#000000;stroke-linejoin:miter;stroke-width:0.8;"/>
   </g>
   <g id="patch_89">
    <path clip-path="url(#pd0f20893f5)" d="M 406.082809 304.212 
L 414.638644 304.212 
L 414.638644 304.102021 
L 406.082809 304.102021 
z
" style="fill:#1f77b4;fill-opacity:0.5;stroke:#000000;stroke-linejoin:miter;stroke-width:0.8;"/>
   </g>
   <g id="patch_90">
    <path clip-path="url(#pd0f20893f5)" d="M 414.638644 304.212 
L 423.194478 304.212 
L 423.194478 304.212 
L 414.638644 304.212 
z
" style="fill:#1f77b4;fill-opacity:0.5;stroke:#000000;stroke-linejoin:miter;stroke-width:0.8;"/>
   </g>
   <g id="patch_91">
    <path clip-path="url(#pd0f20893f5)" d="M 423.194478 304.212 
L 431.750313 304.212 
L 431.750313 304.157011 
L 423.194478 304.157011 
z
" style="fill:#1f77b4;fill-opacity:0.5;stroke:#000000;stroke-linejoin:miter;stroke-width:0.8;"/>
   </g>
   <g id="matplotlib.axis_3">
    <g id="xtick_8">
     <g id="line2d_13">
      <g>
       <use style="stroke:#000000;" x="70.581166" xlink:href="#m4a2f0d0ef3" y="304.212"/>
      </g>
     </g>
     <g id="text_15">
      <!-- 0 -->
      <g transform="translate(67.781666 319.198625)scale(0.088 -0.088)">
       <use xlink:href="#DejaVuSans-48"/>
      </g>
     </g>
    </g>
    <g id="xtick_9">
     <g id="line2d_14">
      <g>
       <use style="stroke:#000000;" x="131.384053" xlink:href="#m4a2f0d0ef3" y="304.212"/>
      </g>
     </g>
     <g id="text_16">
      <!-- 200 -->
      <g transform="translate(122.985553 319.198625)scale(0.088 -0.088)">
       <use xlink:href="#DejaVuSans-50"/>
       <use x="63.623047" xlink:href="#DejaVuSans-48"/>
       <use x="127.246094" xlink:href="#DejaVuSans-48"/>
      </g>
     </g>
    </g>
    <g id="xtick_10">
     <g id="line2d_15">
      <g>
       <use style="stroke:#000000;" x="192.18694" xlink:href="#m4a2f0d0ef3" y="304.212"/>
      </g>
     </g>
     <g id="text_17">
      <!-- 400 -->
      <g transform="translate(183.78844 319.198625)scale(0.088 -0.088)">
       <use xlink:href="#DejaVuSans-52"/>
       <use x="63.623047" xlink:href="#DejaVuSans-48"/>
       <use x="127.246094" xlink:href="#DejaVuSans-48"/>
      </g>
     </g>
    </g>
    <g id="xtick_11">
     <g id="line2d_16">
      <g>
       <use style="stroke:#000000;" x="252.989826" xlink:href="#m4a2f0d0ef3" y="304.212"/>
      </g>
     </g>
     <g id="text_18">
      <!-- 600 -->
      <g transform="translate(244.591326 319.198625)scale(0.088 -0.088)">
       <use xlink:href="#DejaVuSans-54"/>
       <use x="63.623047" xlink:href="#DejaVuSans-48"/>
       <use x="127.246094" xlink:href="#DejaVuSans-48"/>
      </g>
     </g>
    </g>
    <g id="xtick_12">
     <g id="line2d_17">
      <g>
       <use style="stroke:#000000;" x="313.792713" xlink:href="#m4a2f0d0ef3" y="304.212"/>
      </g>
     </g>
     <g id="text_19">
      <!-- 800 -->
      <g transform="translate(305.394213 319.198625)scale(0.088 -0.088)">
       <use xlink:href="#DejaVuSans-56"/>
       <use x="63.623047" xlink:href="#DejaVuSans-48"/>
       <use x="127.246094" xlink:href="#DejaVuSans-48"/>
      </g>
     </g>
    </g>
    <g id="xtick_13">
     <g id="line2d_18">
      <g>
       <use style="stroke:#000000;" x="374.5956" xlink:href="#m4a2f0d0ef3" y="304.212"/>
      </g>
     </g>
     <g id="text_20">
      <!-- 1000 -->
      <g transform="translate(363.3976 319.198625)scale(0.088 -0.088)">
       <use xlink:href="#DejaVuSans-49"/>
       <use x="63.623047" xlink:href="#DejaVuSans-48"/>
       <use x="127.246094" xlink:href="#DejaVuSans-48"/>
       <use x="190.869141" xlink:href="#DejaVuSans-48"/>
      </g>
     </g>
    </g>
    <g id="xtick_14">
     <g id="line2d_19">
      <g>
       <use style="stroke:#000000;" x="435.398486" xlink:href="#m4a2f0d0ef3" y="304.212"/>
      </g>
     </g>
     <g id="text_21">
      <!-- 1200 -->
      <g transform="translate(424.200486 319.198625)scale(0.088 -0.088)">
       <use xlink:href="#DejaVuSans-49"/>
       <use x="63.623047" xlink:href="#DejaVuSans-50"/>
       <use x="127.246094" xlink:href="#DejaVuSans-48"/>
       <use x="190.869141" xlink:href="#DejaVuSans-48"/>
      </g>
     </g>
    </g>
    <g id="text_22">
     <!-- Flowrate [L/h] -->
     <g transform="translate(219.12375 332.32325)scale(0.096 -0.096)">
      <use xlink:href="#DejaVuSans-70"/>
      <use x="57.519531" xlink:href="#DejaVuSans-108"/>
      <use x="85.302734" xlink:href="#DejaVuSans-111"/>
      <use x="146.484375" xlink:href="#DejaVuSans-119"/>
      <use x="228.271484" xlink:href="#DejaVuSans-114"/>
      <use x="269.384766" xlink:href="#DejaVuSans-97"/>
      <use x="330.664062" xlink:href="#DejaVuSans-116"/>
      <use x="369.873047" xlink:href="#DejaVuSans-101"/>
      <use x="431.396484" xlink:href="#DejaVuSans-32"/>
      <use x="463.183594" xlink:href="#DejaVuSans-91"/>
      <use x="502.197266" xlink:href="#DejaVuSans-76"/>
      <use x="557.910156" xlink:href="#DejaVuSans-47"/>
      <use x="591.601562" xlink:href="#DejaVuSans-104"/>
      <use x="654.980469" xlink:href="#DejaVuSans-93"/>
     </g>
    </g>
   </g>
   <g id="matplotlib.axis_4">
    <g id="ytick_5">
     <g id="line2d_20">
      <g>
       <use style="stroke:#000000;" x="54.438" xlink:href="#m8a8a1618fa" y="304.212"/>
      </g>
     </g>
     <g id="text_23">
      <!-- 0 -->
      <g transform="translate(40.539 307.555312)scale(0.088 -0.088)">
       <use xlink:href="#DejaVuSans-48"/>
      </g>
     </g>
    </g>
    <g id="ytick_6">
     <g id="line2d_21">
      <g>
       <use style="stroke:#000000;" x="54.438" xlink:href="#m8a8a1618fa" y="276.717324"/>
      </g>
     </g>
     <g id="text_24">
      <!-- 500 -->
      <g transform="translate(29.341 280.060637)scale(0.088 -0.088)">
       <use xlink:href="#DejaVuSans-53"/>
       <use x="63.623047" xlink:href="#DejaVuSans-48"/>
       <use x="127.246094" xlink:href="#DejaVuSans-48"/>
      </g>
     </g>
    </g>
    <g id="ytick_7">
     <g id="line2d_22">
      <g>
       <use style="stroke:#000000;" x="54.438" xlink:href="#m8a8a1618fa" y="249.222648"/>
      </g>
     </g>
     <g id="text_25">
      <!-- 1000 -->
      <g transform="translate(23.742 252.565961)scale(0.088 -0.088)">
       <use xlink:href="#DejaVuSans-49"/>
       <use x="63.623047" xlink:href="#DejaVuSans-48"/>
       <use x="127.246094" xlink:href="#DejaVuSans-48"/>
       <use x="190.869141" xlink:href="#DejaVuSans-48"/>
      </g>
     </g>
    </g>
    <g id="ytick_8">
     <g id="line2d_23">
      <g>
       <use style="stroke:#000000;" x="54.438" xlink:href="#m8a8a1618fa" y="221.727972"/>
      </g>
     </g>
     <g id="text_26">
      <!-- 1500 -->
      <g transform="translate(23.742 225.071285)scale(0.088 -0.088)">
       <use xlink:href="#DejaVuSans-49"/>
       <use x="63.623047" xlink:href="#DejaVuSans-53"/>
       <use x="127.246094" xlink:href="#DejaVuSans-48"/>
       <use x="190.869141" xlink:href="#DejaVuSans-48"/>
      </g>
     </g>
    </g>
    <g id="text_27">
     <!-- Count in a Year -->
     <g transform="translate(17.7455 292.11)rotate(-90)scale(0.096 -0.096)">
      <use xlink:href="#DejaVuSans-67"/>
      <use x="69.824219" xlink:href="#DejaVuSans-111"/>
      <use x="131.005859" xlink:href="#DejaVuSans-117"/>
      <use x="194.384766" xlink:href="#DejaVuSans-110"/>
      <use x="257.763672" xlink:href="#DejaVuSans-116"/>
      <use x="296.972656" xlink:href="#DejaVuSans-32"/>
      <use x="328.759766" xlink:href="#DejaVuSans-105"/>
      <use x="356.542969" xlink:href="#DejaVuSans-110"/>
      <use x="419.921875" xlink:href="#DejaVuSans-32"/>
      <use x="451.708984" xlink:href="#DejaVuSans-97"/>
      <use x="512.988281" xlink:href="#DejaVuSans-32"/>
      <use x="544.775391" xlink:href="#DejaVuSans-89"/>
      <use x="592.609375" xlink:href="#DejaVuSans-101"/>
      <use x="654.132812" xlink:href="#DejaVuSans-97"/>
      <use x="715.412109" xlink:href="#DejaVuSans-114"/>
     </g>
    </g>
   </g>
   <g id="line2d_24">
    <path clip-path="url(#pd0f20893f5)" d="M 72.405253 283.678393 
L 76.016761 278.056892 
L 77.822515 275.549483 
L 79.628269 273.329911 
L 81.434023 271.429821 
L 83.239777 269.855552 
L 85.045531 268.592754 
L 86.851286 267.612869 
L 88.65704 266.879887 
L 90.462794 266.356111 
L 92.268548 266.006178 
L 94.074302 265.799205 
L 97.68581 265.71563 
L 101.297318 265.951445 
L 104.908826 266.409343 
L 108.520334 267.04036 
L 112.131843 267.835363 
L 115.743351 268.799709 
L 121.160613 270.526836 
L 135.606645 275.445869 
L 141.023908 276.919049 
L 146.44117 278.101877 
L 155.46994 279.72445 
L 162.692957 280.8717 
L 168.110219 281.535804 
L 173.527481 281.957013 
L 177.138989 282.074417 
L 180.750497 281.976492 
L 182.556251 281.791173 
L 184.362005 281.464993 
L 186.167759 280.945018 
L 187.973514 280.165603 
L 189.779268 279.050395 
L 191.585022 277.517175 
L 193.390776 275.486043 
L 195.19653 272.890871 
L 197.002284 269.693161 
L 198.808038 265.896631 
L 200.613792 261.560126 
L 204.2253 251.822588 
L 207.836808 242.193122 
L 209.642562 238.141544 
L 211.448316 234.995041 
L 213.254071 233.004858 
L 215.059825 232.35091 
L 216.865579 233.1207 
L 218.671333 235.29876 
L 220.477087 238.768268 
L 222.282841 243.324587 
L 224.088595 248.698522 
L 231.311611 272.384989 
L 233.117365 277.586404 
L 234.923119 282.183231 
L 236.728873 286.127683 
L 238.534628 289.425725 
L 240.340382 292.123958 
L 242.146136 294.295133 
L 243.95189 296.024421 
L 245.757644 297.39798 
L 247.563398 298.494654 
L 249.369152 299.380975 
L 251.174906 300.109155 
L 254.786414 301.231926 
L 258.397922 302.040419 
L 262.00943 302.607145 
L 265.620939 302.972206 
L 271.038201 303.241341 
L 281.872725 303.398957 
L 296.318758 303.564222 
L 299.930266 303.43553 
L 303.541774 303.059467 
L 305.347528 302.730159 
L 307.153282 302.280825 
L 308.959036 301.697322 
L 310.76479 300.974463 
L 314.376298 299.158195 
L 319.793561 296.119756 
L 321.599315 295.281038 
L 323.405069 294.648242 
L 325.210823 294.277613 
L 327.016577 294.203363 
L 328.822331 294.432409 
L 330.628085 294.943149 
L 332.433839 295.688578 
L 336.045347 297.61173 
L 339.656855 299.621398 
L 341.46261 300.505841 
L 343.268364 301.260291 
L 345.074118 301.869939 
L 346.879872 302.335594 
L 350.49138 302.892884 
L 354.102888 303.100415 
L 373.966183 303.544247 
L 382.994953 303.86019 
L 395.635232 304.029188 
L 428.138805 304.1904 
L 431.750313 304.190897 
L 431.750313 304.190897 
" style="fill:none;stroke:#1f77b4;stroke-linecap:square;stroke-width:1.2;"/>
   </g>
   <g id="patch_92">
    <path d="M 54.438 304.212 
L 54.438 207.384 
" style="fill:none;stroke:#000000;stroke-linecap:square;stroke-linejoin:miter;"/>
   </g>
   <g id="patch_93">
    <path d="M 450.432 304.212 
L 450.432 207.384 
" style="fill:none;stroke:#000000;stroke-linecap:square;stroke-linejoin:miter;"/>
   </g>
   <g id="patch_94">
    <path d="M 54.438 304.212 
L 450.432 304.212 
" style="fill:none;stroke:#000000;stroke-linecap:square;stroke-linejoin:miter;"/>
   </g>
   <g id="patch_95">
    <path d="M 54.438 207.384 
L 450.432 207.384 
" style="fill:none;stroke:#000000;stroke-linecap:square;stroke-linejoin:miter;"/>
   </g>
   <g id="text_28">
    <!-- OpenDHW (4 cats), ∆t = 60, No. Drawoffs = 13577, Peak = 1188.0 L/h  -->
    <defs>
     <path d="M 39.40625 66.21875 
Q 28.65625 66.21875 22.328125 58.203125 
Q 16.015625 50.203125 16.015625 36.375 
Q 16.015625 22.609375 22.328125 14.59375 
Q 28.65625 6.59375 39.40625 6.59375 
Q 50.140625 6.59375 56.421875 14.59375 
Q 62.703125 22.609375 62.703125 36.375 
Q 62.703125 50.203125 56.421875 58.203125 
Q 50.140625 66.21875 39.40625 66.21875 
z
M 39.40625 74.21875 
Q 54.734375 74.21875 63.90625 63.9375 
Q 73.09375 53.65625 73.09375 36.375 
Q 73.09375 19.140625 63.90625 8.859375 
Q 54.734375 -1.421875 39.40625 -1.421875 
Q 24.03125 -1.421875 14.8125 8.828125 
Q 5.609375 19.09375 5.609375 36.375 
Q 5.609375 53.65625 14.8125 63.9375 
Q 24.03125 74.21875 39.40625 74.21875 
z
" id="DejaVuSans-79"/>
     <path d="M 18.109375 8.203125 
L 18.109375 -20.796875 
L 9.078125 -20.796875 
L 9.078125 54.6875 
L 18.109375 54.6875 
L 18.109375 46.390625 
Q 20.953125 51.265625 25.265625 53.625 
Q 29.59375 56 35.59375 56 
Q 45.5625 56 51.78125 48.09375 
Q 58.015625 40.1875 58.015625 27.296875 
Q 58.015625 14.40625 51.78125 6.484375 
Q 45.5625 -1.421875 35.59375 -1.421875 
Q 29.59375 -1.421875 25.265625 0.953125 
Q 20.953125 3.328125 18.109375 8.203125 
z
M 48.6875 27.296875 
Q 48.6875 37.203125 44.609375 42.84375 
Q 40.53125 48.484375 33.40625 48.484375 
Q 26.265625 48.484375 22.1875 42.84375 
Q 18.109375 37.203125 18.109375 27.296875 
Q 18.109375 17.390625 22.1875 11.75 
Q 26.265625 6.109375 33.40625 6.109375 
Q 40.53125 6.109375 44.609375 11.75 
Q 48.6875 17.390625 48.6875 27.296875 
z
" id="DejaVuSans-112"/>
    </defs>
    <g transform="translate(81.48225 190.6341)scale(0.096 -0.096)">
     <use xlink:href="#DejaVuSans-79"/>
     <use x="78.710938" xlink:href="#DejaVuSans-112"/>
     <use x="142.1875" xlink:href="#DejaVuSans-101"/>
     <use x="203.710938" xlink:href="#DejaVuSans-110"/>
     <use x="267.089844" xlink:href="#DejaVuSans-68"/>
     <use x="344.091797" xlink:href="#DejaVuSans-72"/>
     <use x="419.287109" xlink:href="#DejaVuSans-87"/>
     <use x="518.164062" xlink:href="#DejaVuSans-32"/>
     <use x="549.951172" xlink:href="#DejaVuSans-40"/>
     <use x="588.964844" xlink:href="#DejaVuSans-52"/>
     <use x="652.587891" xlink:href="#DejaVuSans-32"/>
     <use x="684.375" xlink:href="#DejaVuSans-99"/>
     <use x="739.355469" xlink:href="#DejaVuSans-97"/>
     <use x="800.634766" xlink:href="#DejaVuSans-116"/>
     <use x="839.84375" xlink:href="#DejaVuSans-115"/>
     <use x="891.943359" xlink:href="#DejaVuSans-41"/>
     <use x="930.957031" xlink:href="#DejaVuSans-44"/>
     <use x="962.744141" xlink:href="#DejaVuSans-32"/>
     <use x="994.53125" xlink:href="#DejaVuSans-8710"/>
     <use x="1061.425781" xlink:href="#DejaVuSans-116"/>
     <use x="1100.634766" xlink:href="#DejaVuSans-32"/>
     <use x="1132.421875" xlink:href="#DejaVuSans-61"/>
     <use x="1216.210938" xlink:href="#DejaVuSans-32"/>
     <use x="1247.998047" xlink:href="#DejaVuSans-54"/>
     <use x="1311.621094" xlink:href="#DejaVuSans-48"/>
     <use x="1375.244141" xlink:href="#DejaVuSans-44"/>
     <use x="1407.03125" xlink:href="#DejaVuSans-32"/>
     <use x="1438.818359" xlink:href="#DejaVuSans-78"/>
     <use x="1513.623047" xlink:href="#DejaVuSans-111"/>
     <use x="1573.054688" xlink:href="#DejaVuSans-46"/>
     <use x="1604.841797" xlink:href="#DejaVuSans-32"/>
     <use x="1636.628906" xlink:href="#DejaVuSans-68"/>
     <use x="1713.630859" xlink:href="#DejaVuSans-114"/>
     <use x="1754.744141" xlink:href="#DejaVuSans-97"/>
     <use x="1816.023438" xlink:href="#DejaVuSans-119"/>
     <use x="1897.810547" xlink:href="#DejaVuSans-111"/>
     <use x="1958.992188" xlink:href="#DejaVuSans-102"/>
     <use x="1994.197266" xlink:href="#DejaVuSans-102"/>
     <use x="2029.402344" xlink:href="#DejaVuSans-115"/>
     <use x="2081.501953" xlink:href="#DejaVuSans-32"/>
     <use x="2113.289062" xlink:href="#DejaVuSans-61"/>
     <use x="2197.078125" xlink:href="#DejaVuSans-32"/>
     <use x="2228.865234" xlink:href="#DejaVuSans-49"/>
     <use x="2292.488281" xlink:href="#DejaVuSans-51"/>
     <use x="2356.111328" xlink:href="#DejaVuSans-53"/>
     <use x="2419.734375" xlink:href="#DejaVuSans-55"/>
     <use x="2483.357422" xlink:href="#DejaVuSans-55"/>
     <use x="2546.980469" xlink:href="#DejaVuSans-44"/>
     <use x="2578.767578" xlink:href="#DejaVuSans-32"/>
     <use x="2610.554688" xlink:href="#DejaVuSans-80"/>
     <use x="2667.232422" xlink:href="#DejaVuSans-101"/>
     <use x="2728.755859" xlink:href="#DejaVuSans-97"/>
     <use x="2790.035156" xlink:href="#DejaVuSans-107"/>
     <use x="2847.945312" xlink:href="#DejaVuSans-32"/>
     <use x="2879.732422" xlink:href="#DejaVuSans-61"/>
     <use x="2963.521484" xlink:href="#DejaVuSans-32"/>
     <use x="2995.308594" xlink:href="#DejaVuSans-49"/>
     <use x="3058.931641" xlink:href="#DejaVuSans-49"/>
     <use x="3122.554688" xlink:href="#DejaVuSans-56"/>
     <use x="3186.177734" xlink:href="#DejaVuSans-56"/>
     <use x="3249.800781" xlink:href="#DejaVuSans-46"/>
     <use x="3281.587891" xlink:href="#DejaVuSans-48"/>
     <use x="3345.210938" xlink:href="#DejaVuSans-32"/>
     <use x="3376.998047" xlink:href="#DejaVuSans-76"/>
     <use x="3432.710938" xlink:href="#DejaVuSans-47"/>
     <use x="3466.402344" xlink:href="#DejaVuSans-104"/>
     <use x="3529.78125" xlink:href="#DejaVuSans-32"/>
    </g>
    <!--  Yearly Demand = 73100 L (= 7435 L, 29157 L, 10221 L, 26287 L) -->
    <g transform="translate(93.34875 201.384)scale(0.096 -0.096)">
     <use xlink:href="#DejaVuSans-32"/>
     <use x="31.787109" xlink:href="#DejaVuSans-89"/>
     <use x="79.621094" xlink:href="#DejaVuSans-101"/>
     <use x="141.144531" xlink:href="#DejaVuSans-97"/>
     <use x="202.423828" xlink:href="#DejaVuSans-114"/>
     <use x="243.537109" xlink:href="#DejaVuSans-108"/>
     <use x="271.320312" xlink:href="#DejaVuSans-121"/>
     <use x="330.5" xlink:href="#DejaVuSans-32"/>
     <use x="362.287109" xlink:href="#DejaVuSans-68"/>
     <use x="439.289062" xlink:href="#DejaVuSans-101"/>
     <use x="500.8125" xlink:href="#DejaVuSans-109"/>
     <use x="598.224609" xlink:href="#DejaVuSans-97"/>
     <use x="659.503906" xlink:href="#DejaVuSans-110"/>
     <use x="722.882812" xlink:href="#DejaVuSans-100"/>
     <use x="786.359375" xlink:href="#DejaVuSans-32"/>
     <use x="818.146484" xlink:href="#DejaVuSans-61"/>
     <use x="901.935547" xlink:href="#DejaVuSans-32"/>
     <use x="933.722656" xlink:href="#DejaVuSans-55"/>
     <use x="997.345703" xlink:href="#DejaVuSans-51"/>
     <use x="1060.96875" xlink:href="#DejaVuSans-49"/>
     <use x="1124.591797" xlink:href="#DejaVuSans-48"/>
     <use x="1188.214844" xlink:href="#DejaVuSans-48"/>
     <use x="1251.837891" xlink:href="#DejaVuSans-32"/>
     <use x="1283.625" xlink:href="#DejaVuSans-76"/>
     <use x="1339.337891" xlink:href="#DejaVuSans-32"/>
     <use x="1371.125" xlink:href="#DejaVuSans-40"/>
     <use x="1410.138672" xlink:href="#DejaVuSans-61"/>
     <use x="1493.927734" xlink:href="#DejaVuSans-32"/>
     <use x="1525.714844" xlink:href="#DejaVuSans-55"/>
     <use x="1589.337891" xlink:href="#DejaVuSans-52"/>
     <use x="1652.960938" xlink:href="#DejaVuSans-51"/>
     <use x="1716.583984" xlink:href="#DejaVuSans-53"/>
     <use x="1780.207031" xlink:href="#DejaVuSans-32"/>
     <use x="1811.994141" xlink:href="#DejaVuSans-76"/>
     <use x="1867.707031" xlink:href="#DejaVuSans-44"/>
     <use x="1899.494141" xlink:href="#DejaVuSans-32"/>
     <use x="1931.28125" xlink:href="#DejaVuSans-50"/>
     <use x="1994.904297" xlink:href="#DejaVuSans-57"/>
     <use x="2058.527344" xlink:href="#DejaVuSans-49"/>
     <use x="2122.150391" xlink:href="#DejaVuSans-53"/>
     <use x="2185.773438" xlink:href="#DejaVuSans-55"/>
     <use x="2249.396484" xlink:href="#DejaVuSans-32"/>
     <use x="2281.183594" xlink:href="#DejaVuSans-76"/>
     <use x="2336.896484" xlink:href="#DejaVuSans-44"/>
     <use x="2368.683594" xlink:href="#DejaVuSans-32"/>
     <use x="2400.470703" xlink:href="#DejaVuSans-49"/>
     <use x="2464.09375" xlink:href="#DejaVuSans-48"/>
     <use x="2527.716797" xlink:href="#DejaVuSans-50"/>
     <use x="2591.339844" xlink:href="#DejaVuSans-50"/>
     <use x="2654.962891" xlink:href="#DejaVuSans-49"/>
     <use x="2718.585938" xlink:href="#DejaVuSans-32"/>
     <use x="2750.373047" xlink:href="#DejaVuSans-76"/>
     <use x="2806.085938" xlink:href="#DejaVuSans-44"/>
     <use x="2837.873047" xlink:href="#DejaVuSans-32"/>
     <use x="2869.660156" xlink:href="#DejaVuSans-50"/>
     <use x="2933.283203" xlink:href="#DejaVuSans-54"/>
     <use x="2996.90625" xlink:href="#DejaVuSans-50"/>
     <use x="3060.529297" xlink:href="#DejaVuSans-56"/>
     <use x="3124.152344" xlink:href="#DejaVuSans-55"/>
     <use x="3187.775391" xlink:href="#DejaVuSans-32"/>
     <use x="3219.5625" xlink:href="#DejaVuSans-76"/>
     <use x="3275.275391" xlink:href="#DejaVuSans-41"/>
    </g>
   </g>
  </g>
 </g>
 <defs>
  <clipPath id="p3c3cc7b3fb">
   <rect height="96.828" width="395.994" x="54.438" y="45.168"/>
  </clipPath>
  <clipPath id="pd0f20893f5">
   <rect height="96.828" width="395.994" x="54.438" y="207.384"/>
  </clipPath>
 </defs>
</svg>
